{
.appVersion = "3133";
customParameters = (
{
name = panose;
value = (
0,
0,
5,
0,
0,
0,
0,
0,
0,
0
);
},
{
name = fsType;
value = (
);
},
{
name = "GASP Table";
value = {
"65535" = 15;
};
},
{
name = "Use Typo Metrics";
value = 1;
},
{
name = glyphOrder;
value = (
.notdef,
space,
exclam,
parenleft,
parenright,
period,
slash,
bracketleft,
backslash,
bracketright,
braceleft,
bar,
braceright,
nbspace,
brokenbar,
guillemotleft,
guillemotright,
"number-ar",
"year-ar",
"footnotemarker-ar",
"pagenumber-ar",
"samvat-ar",
"cuberoot-ar",
"fourthroot-ar",
"ray-ar",
"perthousand-ar",
"pertenthousand-ar",
"afghani-ar",
"comma-ar",
"dateseparator-ar",
"verseComma-ar",
"misraComma-ar",
"sallallahouAlayheWassallamcomb-ar",
"alayheAssallamcomb-ar",
"rehHahabove-ar",
"rehDadabove-ar",
"takhallusabove-ar",
"tahabove-ar",
"alefLamYehabove-ar",
"zainabove-ar",
"fathasmall-ar",
"dammasmall-ar",
"kasrasmall-ar",
"semicolon-ar",
"mark-ar",
uni061D,
"threedots-ar",
"question-ar",
"yehKashmiri-ar",
"hamza-ar",
"alefMadda-ar",
"alefHamzaabove-ar",
"wawHamzaabove-ar",
"alefHamzabelow-ar",
"yehHamzaabove-ar",
"alef-ar",
"beh-ar",
"tehMarbuta-ar",
"teh-ar",
"theh-ar",
"jeem-ar",
"hah-ar",
"khah-ar",
"dal-ar",
"thal-ar",
"reh-ar",
"zain-ar",
"seen-ar",
"sheen-ar",
"sad-ar",
"dad-ar",
"tah-ar",
"zah-ar",
"ain-ar",
"ghain-ar",
"kehehTwodotshorizontalabove-ar",
"kehehThreedotsbelow-ar",
"yehFarsiVinverted-ar",
"yehFarsiTwodotsabove-ar",
"yehFarsiThreedotsabove-ar",
"kashida-ar",
"feh-ar",
"qaf-ar",
"kaf-ar",
"lam-ar",
"meem-ar",
"noon-ar",
"heh-ar",
"waw-ar",
"alefMaksura-ar",
"yeh-ar",
"fathatan-ar",
"dammatan-ar",
"kasratan-ar",
"fatha-ar",
"damma-ar",
"kasra-ar",
"shadda-ar",
"sukun-ar",
"madda-ar",
"hamzaabove-ar",
"hamzabelow-ar",
"alefbelow-ar",
"dammainverted-ar",
"noonghunnaabove-ar",
"fathaHorizont-ar",
"vabove-ar",
"vinvertedabove-ar",
"dotvowelbelow-ar",
"dammareversed-ar",
"fathatwodots-ar",
"wavyhamzabelow-ar",
"zero-ar",
"one-ar",
"two-ar",
"three-ar",
"four-ar",
"five-ar",

glyphs = (
{
glyphname = .notdef;
layers = (
{
layerId = "037FF2D3-C03F-44B0-90AB-89AFD43EFA27";
paths = (
{
closed = 1;
nodes = (
"33 666 LINE",
"298 666 LINE",
"298 0 LINE",
"33 0 LINE"
);
},
{
closed = 1;
nodes = (
"265 33 LINE",
"265 633 LINE",
"66 633 LINE",
"66 33 LINE"
);
}
);
width = 364;
}
);
},
{
glyphname = exclam;
layers = (
{
components = (
{
name = dot.2;
transform = "{1, 0, 0, 1, -27, 0}";
}
);
layerId = "037FF2D3-C03F-44B0-90AB-89AFD43EFA27";
paths = (
{
closed = 1;
nodes = (
"151 671 OFFCURVE",
"165 665 OFFCURVE",
"177 653 CURVE SMOOTH",
"189 641 OFFCURVE",
"195 624 OFFCURVE",
"195 604 CURVE SMOOTH",
"195 591 OFFCURVE",
"190 535 OFFCURVE",
"180 435 CURVE SMOOTH",
"171 358 OFFCURVE",
"162 285 OFFCURVE",
"154 216 CURVE SMOOTH",
"152 199 OFFCURVE",
"146 191 OFFCURVE",
"134 191 CURVE SMOOTH",
"121 191 OFFCURVE",
"113 200 OFFCURVE",
"111 217 CURVE SMOOTH",
"101 291 OFFCURVE",
"93 360 OFFCURVE",
"86 424 CURVE SMOOTH",
"76 522 OFFCURVE",
"70 582 OFFCURVE",
"70 605 CURVE SMOOTH",
"70 625 OFFCURVE",
"77 641 OFFCURVE",
"89 653 CURVE SMOOTH",
"101 665 OFFCURVE",
"117 671 OFFCURVE",
"135 671 CURVE SMOOTH"
);
}
);
width = 263;
}
);
unicode = 0021;
},
{
glyphname = parenleft;
layers = (
{
layerId = "037FF2D3-C03F-44B0-90AB-89AFD43EFA27";
paths = (
{
closed = 1;
nodes = (
"259 317 OFFCURVE",
"289 453 OFFCURVE",
"350 574 CURVE SMOOTH",
"378 630 OFFCURVE",
"406 670 OFFCURVE",
"433 693 CURVE",
"421 720 LINE SMOOTH",
"366 691 OFFCURVE",
"316 646 OFFCURVE",
"269 586 CURVE SMOOTH",
"178 469 OFFCURVE",
"133 330 OFFCURVE",
"133 167 CURVE SMOOTH",
"133 3 OFFCURVE",
"178 -136 OFFCURVE",
"269 -253 CURVE SMOOTH",
"316 -313 OFFCURVE",
"366 -358 OFFCURVE",
"421 -387 CURVE SMOOTH",
"433 -360 LINE",
"406 -337 OFFCURVE",
"378 -297 OFFCURVE",
"350 -241 CURVE SMOOTH",
"289 -120 OFFCURVE",
"259 16 OFFCURVE",
"259 167 CURVE SMOOTH"
);
}
);
width = 458;
}
);
unicode = 0028;
},
{
glyphname = parenright;
layers = (
{
layerId = "037FF2D3-C03F-44B0-90AB-89AFD43EFA27";
paths = (
{
closed = 1;
nodes = (
"200 317 OFFCURVE",
"170 453 OFFCURVE",
"109 574 CURVE SMOOTH",
"81 630 OFFCURVE",
"53 670 OFFCURVE",
"26 693 CURVE",
"38 720 LINE SMOOTH",
"93 691 OFFCURVE",
"143 646 OFFCURVE",
"190 586 CURVE SMOOTH",
"281 469 OFFCURVE",
"326 330 OFFCURVE",
"326 167 CURVE SMOOTH",
"326 3 OFFCURVE",
"281 -136 OFFCURVE",
"190 -253 CURVE SMOOTH",
"143 -313 OFFCURVE",
"93 -358 OFFCURVE",
"38 -387 CURVE SMOOTH",
"26 -360 LINE",
"53 -337 OFFCURVE",
"81 -297 OFFCURVE",
"109 -241 CURVE SMOOTH",
"170 -120 OFFCURVE",
"200 16 OFFCURVE",
"200 167 CURVE SMOOTH"
);
}
);
width = 458;
}
);
unicode = 0029;
},
{
glyphname = period;
layers = (
{
layerId = "037FF2D3-C03F-44B0-90AB-89AFD43EFA27";
paths = (
{
closed = 1;
nodes = (
"110 223 OFFCURVE",
"116 229 OFFCURVE",
"125 232 CURVE SMOOTH",
"134 235 OFFCURVE",
"145 233 OFFCURVE",
"157 224 CURVE SMOOTH",
"244 163 LINE SMOOTH",
"260 151 OFFCURVE",
"263 132 OFFCURVE",
"252 105 CURVE",
"213 12 LINE SMOOTH",
"208 1 OFFCURVE",
"200 -6 OFFCURVE",
"190 -10 CURVE SMOOTH",
"180 -14 OFFCURVE",
"168 -10 OFFCURVE",
"153 1 CURVE SMOOTH",
"78 58 LINE SMOOTH",
"60 72 OFFCURVE",
"55 89 OFFCURVE",
"62 107 CURVE SMOOTH",
"106 214 LINE SMOOTH"
);
}
);
width = 317;
}
);
unicode = 002E;
},
{
glyphname = slash;
layers = (
{
layerId = "037FF2D3-C03F-44B0-90AB-89AFD43EFA27";
paths = (
{
closed = 1;
nodes = (
"325 711 OFFCURVE",
"332 709 OFFCURVE",
"333 704 CURVE",
"81 -182 LINE",
"80 -187 OFFCURVE",
"74 -192 OFFCURVE",
"66 -196 CURVE SMOOTH",
"58 -200 OFFCURVE",
"47 -203 OFFCURVE",
"32 -203 CURVE SMOOTH",
"28 -203 OFFCURVE",
"24 -202 OFFCURVE",
"21 -201 CURVE SMOOTH",
"18 -200 OFFCURVE",
"16 -199 OFFCURVE",
"15 -198 CURVE SMOOTH",
"14 -196 LINE",
"267 690 LINE",
"270 695 OFFCURVE",
"275 700 OFFCURVE",
"283 705 CURVE SMOOTH",
"291 710 OFFCURVE",
"301 711 OFFCURVE",
"314 711 CURVE SMOOTH"
);
}
);
width = 344;
}
);
unicode = 002F;
},
{
glyphname = bracketleft;
layers = (
{
layerId = "037FF2D3-C03F-44B0-90AB-89AFD43EFA27";
paths = (
{
closed = 1;
nodes = (
"206 713 OFFCURVE",
"273 719 OFFCURVE",
"326 729 CURVE",
"329 729 OFFCURVE",
"331 727 OFFCURVE",
"332 723 CURVE SMOOTH",
"332 722 OFFCURVE",
"332 721 OFFCURVE",
"332 720 CURVE SMOOTH",
"332 715 OFFCURVE",
"329 707 OFFCURVE",
"323 695 CURVE SMOOTH",
"323 694 OFFCURVE",
"322 694 OFFCURVE",
"322 694 CURVE SMOOTH",
"309 687 OFFCURVE",
"280 680 OFFCURVE",
"232 672 CURVE SMOOTH",
"223 670 OFFCURVE",
"216 669 OFFCURVE",
"212 668 CURVE",
"212 -338 LINE",
"217 -339 OFFCURVE",
"225 -341 OFFCURVE",
"238 -343 CURVE SMOOTH",
"277 -350 OFFCURVE",
"305 -356 OFFCURVE",
"322 -364 CURVE SMOOTH",
"326 -366 OFFCURVE",
"329 -371 OFFCURVE",
"331 -379 CURVE SMOOTH",
"332 -383 OFFCURVE",
"332 -387 OFFCURVE",
"332 -390 CURVE SMOOTH",
"332 -395 OFFCURVE",
"330 -397 OFFCURVE",
"326 -398 CURVE",
"272 -388 OFFCURVE",
"205 -383 OFFCURVE",
"126 -383 CURVE",
"116 -382 OFFCURVE",
"110 -376 OFFCURVE",
"108 -365 CURVE SMOOTH",
"108 -363 OFFCURVE",
"107 -362 OFFCURVE",
"107 -360 CURVE SMOOTH",
"107 690 LINE SMOOTH",
"107 700 OFFCURVE",
"113 708 OFFCURVE",
"122 712 CURVE SMOOTH",
"124 713 OFFCURVE",
"125 713 OFFCURVE",
"126 713 CURVE SMOOTH"
);
}
);
width = 361;
}
);
unicode = 005B;
},
{
glyphname = backslash;
layers = (
{
layerId = "037FF2D3-C03F-44B0-90AB-89AFD43EFA27";
paths = (
{
closed = 1;
nodes = (
"19 711 OFFCURVE",
"13 709 OFFCURVE",
"12 704 CURVE",
"264 -182 LINE",
"265 -187 OFFCURVE",
"270 -192 OFFCURVE",
"278 -196 CURVE SMOOTH",
"286 -200 OFFCURVE",
"298 -203 OFFCURVE",
"313 -203 CURVE SMOOTH",
"317 -203 OFFCURVE",
"321 -202 OFFCURVE",
"324 -201 CURVE SMOOTH",
"327 -200 OFFCURVE",
"328 -199 OFFCURVE",
"329 -198 CURVE SMOOTH",
"331 -196 LINE",
"78 690 LINE",
"75 695 OFFCURVE",
"70 700 OFFCURVE",
"62 705 CURVE SMOOTH",
"54 710 OFFCURVE",
"43 711 OFFCURVE",
"30 711 CURVE SMOOTH"
);
}
);
width = 344;
}
);
unicode = 005C;
},
{
glyphname = bracketright;
layers = (
{
layerId = "037FF2D3-C03F-44B0-90AB-89AFD43EFA27";
paths = (
{
closed = 1;
nodes = (
"155 713 OFFCURVE",
"88 719 OFFCURVE",
"35 729 CURVE",
"32 729 OFFCURVE",
"31 727 OFFCURVE",
"30 723 CURVE SMOOTH",
"30 722 OFFCURVE",
"29 721 OFFCURVE",
"29 720 CURVE SMOOTH",
"29 715 OFFCURVE",
"32 707 OFFCURVE",
"38 695 CURVE SMOOTH",
"38 694 OFFCURVE",
"39 694 OFFCURVE",
"39 694 CURVE SMOOTH",
"52 687 OFFCURVE",
"81 680 OFFCURVE",
"129 672 CURVE SMOOTH",
"138 670 OFFCURVE",
"145 669 OFFCURVE",
"149 668 CURVE",
"149 -338 LINE",
"144 -339 OFFCURVE",
"136 -341 OFFCURVE",
"123 -343 CURVE SMOOTH",
"84 -350 OFFCURVE",
"56 -356 OFFCURVE",
"39 -364 CURVE SMOOTH",
"35 -366 OFFCURVE",
"33 -371 OFFCURVE",
"31 -379 CURVE SMOOTH",
"30 -383 OFFCURVE",
"29 -387 OFFCURVE",
"29 -390 CURVE SMOOTH",
"29 -395 OFFCURVE",
"31 -397 OFFCURVE",
"35 -398 CURVE",
"89 -388 OFFCURVE",
"156 -383 OFFCURVE",
"235 -383 CURVE",
"245 -382 OFFCURVE",
"251 -376 OFFCURVE",
"253 -365 CURVE SMOOTH",
"253 -363 OFFCURVE",
"254 -362 OFFCURVE",
"254 -360 CURVE SMOOTH",
"254 690 LINE SMOOTH",
"254 700 OFFCURVE",
"249 708 OFFCURVE",
"240 712 CURVE SMOOTH",
"238 713 OFFCURVE",
"236 713 OFFCURVE",
"235 713 CURVE SMOOTH"
);
}
);
width = 361;
}
);
unicode = 005D;
},
{
glyphname = braceleft;
layers = (
{
layerId = "037FF2D3-C03F-44B0-90AB-89AFD43EFA27";
paths = (
{
closed = 1;
nodes = (
"184 121 OFFCURVE",
"208 84 OFFCURVE",
"199 39 CURVE SMOOTH",
"196 22 OFFCURVE",
"185 -12 OFFCURVE",
"166 -62 CURVE SMOOTH",
"149 -107 OFFCURVE",
"141 -154 OFFCURVE",
"142 -201 CURVE SMOOTH",
"144 -290 OFFCURVE",
"171 -356 OFFCURVE",
"226 -399 CURVE SMOOTH",
"241 -411 OFFCURVE",
"253 -412 OFFCURVE",
"261 -402 CURVE SMOOTH",
"270 -390 OFFCURVE",
"270 -378 OFFCURVE",
"258 -366 CURVE SMOOTH",
"215 -321 OFFCURVE",
"195 -274 OFFCURVE",
"197 -225 CURVE SMOOTH",
"198 -208 OFFCURVE",
"209 -182 OFFCURVE",
"231 -145 CURVE SMOOTH",
"266 -88 OFFCURVE",
"278 -27 OFFCURVE",
"266 38 CURVE SMOOTH",
"256 97 OFFCURVE",
"227 140 OFFCURVE",
"182 166 CURVE",
"227 192 OFFCURVE",
"256 235 OFFCURVE",
"266 294 CURVE SMOOTH",
"278 359 OFFCURVE",
"266 420 OFFCURVE",
"231 477 CURVE SMOOTH",
"209 514 OFFCURVE",
"198 540 OFFCURVE",
"197 557 CURVE SMOOTH",
"195 606 OFFCURVE",
"215 653 OFFCURVE",
"258 698 CURVE SMOOTH",
"270 710 OFFCURVE",
"270 722 OFFCURVE",
"261 734 CURVE SMOOTH",
"253 744 OFFCURVE",
"241 743 OFFCURVE",
"226 731 CURVE SMOOTH",
"171 688 OFFCURVE",
"144 622 OFFCURVE",
"142 533 CURVE SMOOTH",
"141 486 OFFCURVE",
"149 439 OFFCURVE",
"166 394 CURVE SMOOTH",
"185 344 OFFCURVE",
"196 310 OFFCURVE",
"199 293 CURVE SMOOTH",
"208 248 OFFCURVE",
"184 211 OFFCURVE",
"129 179 CURVE",
"129 153 LINE"
);
}
);
width = 397;
}
);
unicode = 007B;
},
{
glyphname = bar;
layers = (
{
layerId = "037FF2D3-C03F-44B0-90AB-89AFD43EFA27";
paths = (
{
closed = 1;
nodes = (
"125 -374 OFFCURVE",
"110 -378 OFFCURVE",
"81 -384 CURVE SMOOTH",
"79 -384 OFFCURVE",
"79 -384 OFFCURVE",
"78 -384 CURVE SMOOTH",
"75 -384 OFFCURVE",
"72 -383 OFFCURVE",
"72 -381 CURVE SMOOTH",
"72 -381 OFFCURVE",
"73 -380 OFFCURVE",
"73 -379 CURVE SMOOTH",
"73 -378 OFFCURVE",
"73 -376 OFFCURVE",
"73 -376 CURVE SMOOTH",
"73 705 LINE",
"74 710 LINE",
"75 711 OFFCURVE",
"77 712 OFFCURVE",
"78 713 CURVE SMOOTH",
"89 716 OFFCURVE",
"102 718 OFFCURVE",
"116 718 CURVE",
"122 718 OFFCURVE",
"124 716 OFFCURVE",
"124 712 CURVE",
"125 -370 LINE SMOOTH"
);
}
);
width = 197;
}
);
unicode = 007C;
},
{
glyphname = braceright;
layers = (
{
layerId = "037FF2D3-C03F-44B0-90AB-89AFD43EFA27";
paths = (
{
closed = 1;
nodes = (
"211 121 OFFCURVE",
"187 84 OFFCURVE",
"196 39 CURVE SMOOTH",
"199 22 OFFCURVE",
"210 -12 OFFCURVE",
"229 -62 CURVE SMOOTH",
"246 -107 OFFCURVE",
"254 -154 OFFCURVE",
"253 -201 CURVE SMOOTH",
"251 -290 OFFCURVE",
"224 -356 OFFCURVE",
"169 -399 CURVE SMOOTH",
"154 -411 OFFCURVE",
"142 -412 OFFCURVE",
"134 -402 CURVE SMOOTH",
"125 -390 OFFCURVE",
"125 -378 OFFCURVE",
"137 -366 CURVE SMOOTH",
"180 -321 OFFCURVE",
"200 -274 OFFCURVE",
"198 -225 CURVE SMOOTH",
"197 -208 OFFCURVE",
"186 -182 OFFCURVE",
"164 -145 CURVE SMOOTH",
"129 -88 OFFCURVE",
"117 -27 OFFCURVE",
"129 38 CURVE SMOOTH",
"139 97 OFFCURVE",
"168 140 OFFCURVE",
"213 166 CURVE",
"168 192 OFFCURVE",
"139 235 OFFCURVE",
"129 294 CURVE SMOOTH",
"117 359 OFFCURVE",
"129 420 OFFCURVE",
"164 477 CURVE SMOOTH",
"186 514 OFFCURVE",
"197 540 OFFCURVE",
"198 557 CURVE SMOOTH",
"200 606 OFFCURVE",
"180 653 OFFCURVE",
"137 698 CURVE SMOOTH",
"125 710 OFFCURVE",
"125 722 OFFCURVE",
"134 734 CURVE SMOOTH",
"142 744 OFFCURVE",
"154 743 OFFCURVE",
"169 731 CURVE SMOOTH",
"224 688 OFFCURVE",
"251 622 OFFCURVE",
"253 533 CURVE SMOOTH",
"254 486 OFFCURVE",
"246 439 OFFCURVE",
"229 394 CURVE SMOOTH",
"210 344 OFFCURVE",
"199 310 OFFCURVE",
"196 293 CURVE SMOOTH",
"187 248 OFFCURVE",
"211 211 OFFCURVE",
"266 179 CURVE",
"266 153 LINE"
);
}
);
width = 397;
}
);
unicode = 007D;
},
{
glyphname = brokenbar;
layers = (
{
layerId = "037FF2D3-C03F-44B0-90AB-89AFD43EFA27";
paths = (
{
closed = 1;
nodes = (
"125 236 OFFCURVE",
"118 232 OFFCURVE",
"104 229 CURVE SMOOTH",
"90 226 OFFCURVE",
"82 225 OFFCURVE",
"78 225 CURVE SMOOTH",
"76 225 OFFCURVE",
"75 225 OFFCURVE",
"74 225 CURVE SMOOTH",
"73 225 OFFCURVE",
"73 227 OFFCURVE",
"73 227 CURVE SMOOTH",
"73 227 OFFCURVE",
"73 229 OFFCURVE",
"73 230 CURVE SMOOTH",
"73 231 OFFCURVE",
"73 232 OFFCURVE",
"73 232 CURVE SMOOTH",
"73 705 LINE",
"72 709 OFFCURVE",
"74 712 OFFCURVE",
"78 713 CURVE SMOOTH",
"89 716 OFFCURVE",
"102 718 OFFCURVE",
"117 718 CURVE SMOOTH",
"120 718 OFFCURVE",
"122 717 OFFCURVE",
"123 716 CURVE SMOOTH",
"124 715 OFFCURVE",
"125 714 OFFCURVE",
"125 713 CURVE SMOOTH",
"125 712 LINE",
"125 239 LINE"
);
},
{
closed = 1;
nodes = (
"73 92 LINE",
"72 96 OFFCURVE",
"74 99 OFFCURVE",
"78 100 CURVE SMOOTH",
"89 103 OFFCURVE",
"102 104 OFFCURVE",
"117 104 CURVE SMOOTH",
"120 104 OFFCURVE",
"122 104 OFFCURVE",
"123 103 CURVE SMOOTH",
"124 102 OFFCURVE",
"125 101 OFFCURVE",
"125 100 CURVE SMOOTH",
"125 99 LINE",
"125 -369 LINE",
"125 -372 OFFCURVE",
"118 -376 OFFCURVE",
"104 -379 CURVE SMOOTH",
"90 -382 OFFCURVE",
"82 -384 OFFCURVE",
"78 -384 CURVE SMOOTH",
"76 -384 OFFCURVE",
"75 -383 OFFCURVE",
"74 -383 CURVE SMOOTH",
"73 -383 OFFCURVE",
"73 -382 OFFCURVE",
"73 -382 CURVE SMOOTH",
"73 -382 OFFCURVE",
"73 -380 OFFCURVE",
"73 -379 CURVE SMOOTH",
"73 -378 OFFCURVE",
"73 -376 OFFCURVE",
"73 -376 CURVE SMOOTH"
);
}
);
width = 205;
}
);
unicode = 00A6;
},
{
glyphname = guillemotleft;
layers = (
{
layerId = "037FF2D3-C03F-44B0-90AB-89AFD43EFA27";
paths = (
{
closed = 1;
nodes = (
"140 288 OFFCURVE",
"112 234 OFFCURVE",
"112 168 CURVE SMOOTH",
"112 102 OFFCURVE",
"140 47 OFFCURVE",
"195 -1 CURVE SMOOTH",
"206 -10 OFFCURVE",
"208 -22 OFFCURVE",
"201 -36 CURVE SMOOTH",
"194 -50 OFFCURVE",
"182 -53 OFFCURVE",
"166 -45 CURVE",
"125 -24 OFFCURVE",
"92 5 OFFCURVE",
"69 43 CURVE SMOOTH",
"46 81 OFFCURVE",
"34 123 OFFCURVE",
"34 167 CURVE SMOOTH",
"34 211 OFFCURVE",
"46 252 OFFCURVE",
"70 290 CURVE SMOOTH",
"94 328 OFFCURVE",
"126 357 OFFCURVE",
"166 377 CURVE SMOOTH",
"182 385 OFFCURVE",
"195 382 OFFCURVE",
"202 369 CURVE SMOOTH",
"209 356 OFFCURVE",
"207 343 OFFCURVE",
"195 333 CURVE"
);
},
{
closed = 1;
nodes = (
"315 288 OFFCURVE",
"287 234 OFFCURVE",
"287 168 CURVE SMOOTH",
"287 102 OFFCURVE",
"315 47 OFFCURVE",
"370 -1 CURVE SMOOTH",
"381 -10 OFFCURVE",
"383 -22 OFFCURVE",
"376 -36 CURVE SMOOTH",
"369 -50 OFFCURVE",
"357 -53 OFFCURVE",
"341 -45 CURVE",
"300 -24 OFFCURVE",
"267 5 OFFCURVE",
"244 43 CURVE SMOOTH",
"221 81 OFFCURVE",
"209 123 OFFCURVE",
"209 167 CURVE SMOOTH",
"209 211 OFFCURVE",
"221 252 OFFCURVE",
"245 290 CURVE SMOOTH",
"269 328 OFFCURVE",
"301 357 OFFCURVE",
"341 377 CURVE SMOOTH",
"357 385 OFFCURVE",
"369 382 OFFCURVE",
"376 369 CURVE SMOOTH",
"383 356 OFFCURVE",
"382 343 OFFCURVE",
"370 333 CURVE"
);
}
);
width = 415;
}
);
unicode = 00AB;
},
{
glyphname = guillemotright;
layers = (
{
layerId = "037FF2D3-C03F-44B0-90AB-89AFD43EFA27";
paths = (
{
closed = 1;
nodes = (
"276 47 OFFCURVE",
"303 104 OFFCURVE",
"303 169 CURVE SMOOTH",
"303 234 OFFCURVE",
"275 289 OFFCURVE",
"220 333 CURVE SMOOTH",
"208 342 OFFCURVE",
"206 354 OFFCURVE",
"213 368 CURVE SMOOTH",
"220 382 OFFCURVE",
"232 385 OFFCURVE",
"249 377 CURVE",
"290 357 OFFCURVE",
"321 327 OFFCURVE",
"345 289 CURVE SMOOTH",
"369 251 OFFCURVE",
"381 210 OFFCURVE",
"381 166 CURVE SMOOTH",
"381 122 OFFCURVE",
"368 81 OFFCURVE",
"345 43 CURVE SMOOTH",
"322 5 OFFCURVE",
"290 -24 OFFCURVE",
"249 -45 CURVE SMOOTH",
"233 -53 OFFCURVE",
"222 -50 OFFCURVE",
"214 -37 CURVE SMOOTH",
"206 -24 OFFCURVE",
"208 -11 OFFCURVE",
"220 -1 CURVE SMOOTH"
);
},
{
closed = 1;
nodes = (
"101 47 OFFCURVE",
"128 104 OFFCURVE",
"128 169 CURVE SMOOTH",
"128 234 OFFCURVE",
"100 289 OFFCURVE",
"45 333 CURVE SMOOTH",
"33 342 OFFCURVE",
"31 354 OFFCURVE",
"38 368 CURVE SMOOTH",
"45 382 OFFCURVE",
"57 385 OFFCURVE",
"74 377 CURVE SMOOTH",
"115 357 OFFCURVE",
"147 327 OFFCURVE",
"171 289 CURVE SMOOTH",
"195 251 OFFCURVE",
"206 210 OFFCURVE",
"206 166 CURVE SMOOTH",
"206 122 OFFCURVE",
"194 81 OFFCURVE",
"171 43 CURVE SMOOTH",
"148 5 OFFCURVE",
"115 -24 OFFCURVE",
"74 -45 CURVE SMOOTH",
"58 -53 OFFCURVE",
"47 -50 OFFCURVE",
"39 -37 CURVE SMOOTH",
"31 -24 OFFCURVE",
"33 -11 OFFCURVE",
"45 -1 CURVE SMOOTH"
);
}
);
width = 415;
}
);
unicode = 00BB;
},
{
glyphname = "number-ar";
layers = (
{
layerId = "037FF2D3-C03F-44B0-90AB-89AFD43EFA27";
paths = (
{
closed = 1;
nodes = (
"917 -31 OFFCURVE",
"917 10 OFFCURVE",
"933 57 CURVE SMOOTH",
"942 82 OFFCURVE",
"957 107 OFFCURVE",
"978 130 CURVE SMOOTH",
"999 153 OFFCURVE",
"1021 166 OFFCURVE",
"1045 170 CURVE SMOOTH",
"1070 174 OFFCURVE",
"1091 167 OFFCURVE",
"1108 149 CURVE SMOOTH",
"1114 143 OFFCURVE",
"1116 137 OFFCURVE",
"1114 132 CURVE SMOOTH",
"1104 96 OFFCURVE",
"1092 75 OFFCURVE",
"1077 68 CURVE SMOOTH",
"1075 67 OFFCURVE",
"1072 68 OFFCURVE",
"1069 71 CURVE SMOOTH",
"1038 99 OFFCURVE",
"1006 98 OFFCURVE",
"973 70 CURVE SMOOTH",
"961 60 OFFCURVE",
"958 44 OFFCURVE",
"963 25 CURVE SMOOTH",
"974 -16 OFFCURVE",
"998 -41 OFFCURVE",
"1035 -51 CURVE SMOOTH",
"1050 -55 OFFCURVE",
"1061 -59 OFFCURVE",
"1069 -63 CURVE SMOOTH",
"1077 -67 OFFCURVE",
"1080 -73 OFFCURVE",
"1080 -81 CURVE SMOOTH",
"1079 -109 OFFCURVE",
"1075 -130 OFFCURVE",
"1069 -145 CURVE SMOOTH",
"1064 -158 OFFCURVE",
"1056 -163 OFFCURVE",
"1046 -157 CURVE SMOOTH",
"1006 -135 OFFCURVE",
"981 -124 OFFCURVE",
"968 -124 CURVE SMOOTH",
"955 -124 OFFCURVE",
"939 -128 OFFCURVE",
"921 -136 CURVE SMOOTH",
"870 -160 OFFCURVE",
"749 -172 OFFCURVE",
"557 -172 CURVE SMOOTH",
"288 -172 OFFCURVE",
"134 -164 OFFCURVE",
"95 -149 CURVE SMOOTH",
"85 -145 OFFCURVE",
"73 -138 OFFCURVE",
"59 -125 CURVE SMOOTH",
"26 -94 LINE SMOOTH",
"15 -84 OFFCURVE",
"12 -75 OFFCURVE",
"18 -68 CURVE SMOOTH",
"22 -63 OFFCURVE",
"33 -61 OFFCURVE",
"54 -65 CURVE SMOOTH",
"156 -82 OFFCURVE",
"312 -90 OFFCURVE",
"521 -90 CURVE SMOOTH",
"706 -90 OFFCURVE",
"827 -86 OFFCURVE",
"885 -78 CURVE SMOOTH",
"906 -75 OFFCURVE",
"922 -71 OFFCURVE",
"934 -67 CURVE"
);
}
);
width = 1134;
}
);
unicode = 0600;
},
{
glyphname = "year-ar";
layers = (
{
layerId = "037FF2D3-C03F-44B0-90AB-89AFD43EFA27";
paths = (
{
closed = 1;
nodes = (
"455 -247 OFFCURVE",
"418 -274 OFFCURVE",
"375 -274 CURVE",
"345 -274 OFFCURVE",
"317 -259 OFFCURVE",
"290 -230 CURVE SMOOTH",
"286 -225 OFFCURVE",
"279 -216 OFFCURVE",
"269 -204 CURVE SMOOTH",
"259 -192 OFFCURVE",
"251 -186 OFFCURVE",
"243 -186 CURVE SMOOTH",
"235 -186 OFFCURVE",
"224 -196 OFFCURVE",
"212 -212 CURVE SMOOTH",
"200 -228 OFFCURVE",
"192 -240 OFFCURVE",
"188 -249 CURVE SMOOTH",
"184 -258 OFFCURVE",
"179 -274 OFFCURVE",
"171 -296 CURVE SMOOTH",
"163 -318 OFFCURVE",
"153 -337 OFFCURVE",
"142 -350 CURVE SMOOTH",
"131 -363 OFFCURVE",
"119 -370 OFFCURVE",
"102 -371 CURVE",
"71 -370 OFFCURVE",
"48 -353 OFFCURVE",
"35 -319 CURVE SMOOTH",
"22 -285 OFFCURVE",
"15 -228 OFFCURVE",
"15 -146 CURVE SMOOTH",
"15 -133 OFFCURVE",
"20 -125 OFFCURVE",
"30 -121 CURVE SMOOTH",
"45 -116 OFFCURVE",
"55 -121 OFFCURVE",
"59 -138 CURVE SMOOTH",
"60 -142 OFFCURVE",
"62 -160 OFFCURVE",
"62 -191 CURVE SMOOTH",
"63 -249 OFFCURVE",
"75 -281 OFFCURVE",
"98 -286 CURVE",
"99 -286 LINE SMOOTH",
"107 -286 OFFCURVE",
"121 -263 OFFCURVE",
"140 -219 CURVE",
"176 -132 OFFCURVE",
"216 -87 OFFCURVE",
"260 -87 CURVE",
"277 -87 OFFCURVE",
"295 -99 OFFCURVE",
"313 -121 CURVE SMOOTH",
"331 -143 OFFCURVE",
"346 -158 OFFCURVE",
"356 -164 CURVE SMOOTH",
"366 -170 OFFCURVE",
"377 -174 OFFCURVE",
"389 -174 CURVE SMOOTH",
"420 -173 OFFCURVE",
"450 -151 OFFCURVE",
"478 -106 CURVE SMOOTH",
"501 -68 OFFCURVE",
"524 -66 OFFCURVE",
"545 -100 CURVE SMOOTH",
"566 -134 OFFCURVE",
"611 -160 OFFCURVE",
"679 -179 CURVE SMOOTH",
"747 -198 OFFCURVE",
"842 -207 OFFCURVE",
"967 -207 CURVE SMOOTH",
"1092 -207 OFFCURVE",
"1241 -178 OFFCURVE",
"1413 -121 CURVE SMOOTH",
"1436 -113 OFFCURVE",
"1485 -95 OFFCURVE",
"1560 -65 CURVE SMOOTH",
"1635 -35 OFFCURVE",
"1685 -20 OFFCURVE",
"1713 -20 CURVE SMOOTH",
"1749 -20 OFFCURVE",
"1768 -32 OFFCURVE",
"1768 -57 CURVE SMOOTH",
"1768 -67 OFFCURVE",
"1765 -81 OFFCURVE",
"1759 -99 CURVE SMOOTH",
"1753 -117 OFFCURVE",
"1745 -132 OFFCURVE",
"1733 -145 CURVE SMOOTH",
"1721 -158 OFFCURVE",
"1701 -180 OFFCURVE",
"1672 -211 CURVE SMOOTH",
"1643 -242 OFFCURVE",
"1622 -266 OFFCURVE",
"1611 -282 CURVE SMOOTH",
"1600 -298 OFFCURVE",
"1592 -309 OFFCURVE",
"1587 -313 CURVE SMOOTH",
"1582 -317 OFFCURVE",
"1577 -318 OFFCURVE",
"1572 -316 CURVE SMOOTH",
"1555 -309 OFFCURVE",
"1551 -296 OFFCURVE",
"1562 -276 CURVE",
"1587 -234 OFFCURVE",
"1611 -201 OFFCURVE",
"1632 -178 CURVE SMOOTH",
"1653 -155 OFFCURVE",
"1674 -135 OFFCURVE",
"1693 -116 CURVE",
"1682 -115 OFFCURVE",
"1666 -119 OFFCURVE",
"1646 -127 CURVE SMOOTH",
"1527 -176 OFFCURVE",
"1430 -212 OFFCURVE",
"1357 -235 CURVE SMOOTH",
"1203 -284 OFFCURVE",
"1050 -308 OFFCURVE",
"899 -308 CURVE SMOOTH",
"796 -308 OFFCURVE",
"714 -298 OFFCURVE",
"652 -279 CURVE SMOOTH",
"590 -260 OFFCURVE",
"535 -231 OFFCURVE",
"489 -194 CURVE"
);
}
);
width = 1782;
}
);
unicode = 0601;
},
{
glyphname = "footnotemarker-ar";
layers = (
{
layerId = "037FF2D3-C03F-44B0-90AB-89AFD43EFA27";
paths = (
{
closed = 1;
nodes = (
"147 -40 OFFCURVE",
"138 -21 OFFCURVE",
"121 -17 CURVE SMOOTH",
"104 -13 OFFCURVE",
"94 -16 OFFCURVE",
"91 -25 CURVE",
"86 -43 OFFCURVE",
"92 -55 OFFCURVE",
"108 -61 CURVE SMOOTH",
"120 -65 OFFCURVE",
"134 -70 OFFCURVE",
"150 -73 CURVE"
);
},
{
closed = 1;
nodes = (
"68 -142 OFFCURVE",
"54 -132 OFFCURVE",
"43 -118 CURVE SMOOTH",
"32 -104 OFFCURVE",
"26 -88 OFFCURVE",
"26 -69 CURVE SMOOTH",
"26 -31 OFFCURVE",
"39 3 OFFCURVE",
"66 34 CURVE",
"98 69 OFFCURVE",
"133 76 OFFCURVE",
"170 54 CURVE SMOOTH",
"193 40 OFFCURVE",
"204 9 OFFCURVE",
"204 -40 CURVE SMOOTH",
"204 -53 OFFCURVE",
"203 -66 OFFCURVE",
"202 -81 CURVE",
"244 -85 OFFCURVE",
"317 -87 OFFCURVE",
"424 -87 CURVE SMOOTH",
"531 -87 OFFCURVE",
"638 -78 OFFCURVE",
"747 -59 CURVE SMOOTH",
"755 -58 OFFCURVE",
"762 -57 OFFCURVE",
"766 -57 CURVE",
"775 -57 LINE",
"782 -60 OFFCURVE",
"786 -65 OFFCURVE",
"786 -73 CURVE SMOOTH",
"786 -81 OFFCURVE",
"782 -88 OFFCURVE",
"773 -94 CURVE SMOOTH",
"771 -95 OFFCURVE",
"770 -97 OFFCURVE",
"769 -97 CURVE SMOOTH",
"728 -125 LINE SMOOTH",
"714 -134 OFFCURVE",
"698 -142 OFFCURVE",
"681 -146 CURVE SMOOTH",
"600 -166 OFFCURVE",
"490 -176 OFFCURVE",
"350 -176 CURVE SMOOTH",
"210 -176 OFFCURVE",
"122 -167 OFFCURVE",
"83 -149 CURVE SMOOTH"
);
}
);
width = 812;
}
);
unicode = 0602;
},
{
glyphname = "pagenumber-ar";
layers = (
{
layerId = "037FF2D3-C03F-44B0-90AB-89AFD43EFA27";
paths = (
{
closed = 1;
nodes = (
"15 -44 OFFCURVE",
"25 -38 OFFCURVE",
"47 -44 CURVE SMOOTH",
"48 -44 OFFCURVE",
"49 -44 OFFCURVE",
"49 -44 CURVE SMOOTH",
"194 -73 OFFCURVE",
"321 -88 OFFCURVE",
"429 -88 CURVE SMOOTH",
"584 -88 OFFCURVE",
"693 -72 OFFCURVE",
"756 -41 CURVE SMOOTH",
"766 -36 OFFCURVE",
"776 -39 OFFCURVE",
"786 -52 CURVE SMOOTH",
"796 -65 OFFCURVE",
"812 -73 OFFCURVE",
"833 -76 CURVE",
"895 12 OFFCURVE",
"954 56 OFFCURVE",
"1011 57 CURVE",
"1024 57 OFFCURVE",
"1042 50 OFFCURVE",
"1063 36 CURVE SMOOTH",
"1084 22 OFFCURVE",
"1094 4 OFFCURVE",
"1094 -18 CURVE SMOOTH",
"1094 -40 OFFCURVE",
"1088 -64 OFFCURVE",
"1075 -87 CURVE SMOOTH",
"1062 -110 OFFCURVE",
"1052 -124 OFFCURVE",
"1046 -129 CURVE SMOOTH",
"1008 -158 OFFCURVE",
"957 -172 OFFCURVE",
"893 -172 CURVE SMOOTH",
"872 -172 OFFCURVE",
"852 -170 OFFCURVE",
"834 -166 CURVE",
"831 -175 OFFCURVE",
"828 -185 OFFCURVE",
"825 -198 CURVE SMOOTH",
"822 -211 OFFCURVE",
"814 -219 OFFCURVE",
"802 -219 CURVE SMOOTH",
"790 -219 OFFCURVE",
"782 -213 OFFCURVE",
"779 -201 CURVE SMOOTH",
"776 -189 OFFCURVE",
"777 -173 OFFCURVE",
"785 -151 CURVE",
"770 -146 OFFCURVE",
"757 -139 OFFCURVE",
"744 -130 CURVE",
"680 -162 OFFCURVE",
"566 -178 OFFCURVE",
"402 -178 CURVE SMOOTH",
"291 -178 OFFCURVE",
"192 -166 OFFCURVE",
"106 -143 CURVE SMOOTH",
"83 -137 OFFCURVE",
"66 -127 OFFCURVE",
"56 -116 CURVE SMOOTH",
"24 -80 LINE SMOOTH",
"18 -73 OFFCURVE",
"15 -66 OFFCURVE",
"15 -60 CURVE SMOOTH"
);
},
{
closed = 1;
nodes = (
"986 -20 OFFCURVE",
"944 -25 OFFCURVE",
"893 -86 CURVE",
"912 -86 OFFCURVE",
"935 -85 OFFCURVE",
"963 -82 CURVE SMOOTH",
"991 -79 OFFCURVE",
"1011 -74 OFFCURVE",
"1020 -69 CURVE"
);
}
);
width = 1109;
}
);
unicode = 0603;
},
{
glyphname = "samvat-ar";
layers = (
{
layerId = "037FF2D3-C03F-44B0-90AB-89AFD43EFA27";
paths = (
{
closed = 1;
nodes = (
"103 -155 OFFCURVE",
"89 -143 OFFCURVE",
"66 -120 CURVE SMOOTH",
"34 -89 LINE SMOOTH",
"23 -79 OFFCURVE",
"19 -70 OFFCURVE",
"25 -63 CURVE SMOOTH",
"28 -59 OFFCURVE",
"40 -59 OFFCURVE",
"62 -61 CURVE SMOOTH",
"221 -75 OFFCURVE",
"486 -82 OFFCURVE",
"857 -82 CURVE SMOOTH",
"1301 -82 OFFCURVE",
"1568 -75 OFFCURVE",
"1659 -60 CURVE SMOOTH",
"1660 -60 OFFCURVE",
"1661 -60 OFFCURVE",
"1662 -60 CURVE SMOOTH",
"1701 -57 OFFCURVE",
"1730 -50 OFFCURVE",
"1748 -40 CURVE",
"1729 2 OFFCURVE",
"1726 43 OFFCURVE",
"1741 83 CURVE",
"1767 149 OFFCURVE",
"1803 183 OFFCURVE",
"1849 185 CURVE SMOOTH",
"1868 186 OFFCURVE",
"1884 173 OFFCURVE",
"1899 146 CURVE SMOOTH",
"1909 128 OFFCURVE",
"1921 119 OFFCURVE",
"1936 119 CURVE SMOOTH",
"1972 118 OFFCURVE",
"2007 146 OFFCURVE",
"2042 203 CURVE SMOOTH",
"2046 210 OFFCURVE",
"2053 210 OFFCURVE",
"2060 205 CURVE SMOOTH",
"2067 200 OFFCURVE",
"2067 191 OFFCURVE",
"2060 177 CURVE SMOOTH",
"2057 171 OFFCURVE",
"2055 168 OFFCURVE",
"2055 166 CURVE SMOOTH",
"2055 164 OFFCURVE",
"2056 162 OFFCURVE",
"2060 160 CURVE SMOOTH",
"2082 147 OFFCURVE",
"2105 140 OFFCURVE",
"2129 139 CURVE",
"2124 146 OFFCURVE",
"2118 152 OFFCURVE",
"2112 157 CURVE SMOOTH",
"2106 162 OFFCURVE",
"2106 169 OFFCURVE",
"2110 176 CURVE SMOOTH",
"2135 220 LINE SMOOTH",
"2141 231 OFFCURVE",
"2148 230 OFFCURVE",
"2155 220 CURVE SMOOTH",
"2173 193 OFFCURVE",
"2176 157 OFFCURVE",
"2163 111 CURVE SMOOTH",
"2156 86 OFFCURVE",
"2147 68 OFFCURVE",
"2136 57 CURVE SMOOTH",
"2125 46 OFFCURVE",
"2112 42 OFFCURVE",
"2095 44 CURVE SMOOTH",
"2061 49 OFFCURVE",
"2033 60 OFFCURVE",
"2010 74 CURVE",
"1980 37 OFFCURVE",
"1946 19 OFFCURVE",
"1909 21 CURVE",
"1885 24 OFFCURVE",
"1863 42 OFFCURVE",
"1844 75 CURVE SMOOTH",
"1840 82 OFFCURVE",
"1836 85 OFFCURVE",
"1829 87 CURVE",
"1805 91 OFFCURVE",
"1787 87 OFFCURVE",
"1773 75 CURVE",
"1774 57 OFFCURVE",
"1780 39 OFFCURVE",
"1791 22 CURVE SMOOTH",
"1802 5 OFFCURVE",
"1814 -8 OFFCURVE",
"1826 -15 CURVE SMOOTH",
"1831 -18 OFFCURVE",
"1841 -21 OFFCURVE",
"1859 -26 CURVE SMOOTH",
"1877 -31 OFFCURVE",
"1892 -35 OFFCURVE",
"1905 -42 CURVE SMOOTH",
"1918 -49 OFFCURVE",
"1924 -59 OFFCURVE",
"1924 -73 CURVE SMOOTH",
"1922 -113 OFFCURVE",
"1918 -139 OFFCURVE",
"1913 -150 CURVE SMOOTH",
"1908 -161 OFFCURVE",
"1899 -163 OFFCURVE",
"1887 -156 CURVE SMOOTH",
"1839 -130 OFFCURVE",
"1808 -117 OFFCURVE",
"1794 -117 CURVE SMOOTH",
"1780 -117 OFFCURVE",
"1759 -123 OFFCURVE",
"1732 -136 CURVE SMOOTH",
"1705 -149 OFFCURVE",
"1646 -159 OFFCURVE",
"1556 -167 CURVE SMOOTH",
"1466 -175 OFFCURVE",
"1240 -177 OFFCURVE",
"880 -173 CURVE SMOOTH",
"372 -168 OFFCURVE",
"114 -163 OFFCURVE",
"107 -158 CURVE SMOOTH"
);
}
);
width = 2183;
}
);
unicode = 0604;
},
{
glyphname = "ray-ar";
layers = (
{
layerId = "037FF2D3-C03F-44B0-90AB-89AFD43EFA27";
paths = (
{
closed = 1;
nodes = (
"590 122 OFFCURVE",
"580 129 OFFCURVE",
"566 129 CURVE SMOOTH",
"552 129 OFFCURVE",
"547 125 OFFCURVE",
"551 116 CURVE SMOOTH",
"558 101 OFFCURVE",
"571 94 OFFCURVE",
"593 96 CURVE SMOOTH",
"598 97 OFFCURVE",
"600 100 OFFCURVE",
"598 104 CURVE SMOOTH"
);
},
{
closed = 1;
nodes = (
"241 137 OFFCURVE",
"253 142 OFFCURVE",
"260 134 CURVE SMOOTH",
"267 126 OFFCURVE",
"265 113 OFFCURVE",
"254 98 CURVE SMOOTH",
"201 22 OFFCURVE",
"194 -43 OFFCURVE",
"233 -98 CURVE SMOOTH",
"253 -126 OFFCURVE",
"290 -142 OFFCURVE",
"345 -149 CURVE SMOOTH",
"400 -156 OFFCURVE",
"455 -148 OFFCURVE",
"511 -127 CURVE SMOOTH",
"567 -106 OFFCURVE",
"604 -76 OFFCURVE",
"625 -36 CURVE",
"626 -31 OFFCURVE",
"626 -23 OFFCURVE",
"624 -13 CURVE",
"565 -11 OFFCURVE",
"524 -1 OFFCURVE",
"502 20 CURVE SMOOTH",
"476 44 OFFCURVE",
"482 89 OFFCURVE",
"521 156 CURVE SMOOTH",
"551 208 OFFCURVE",
"576 233 OFFCURVE",
"595 231 CURVE SMOOTH",
"638 226 OFFCURVE",
"667 184 OFFCURVE",
"683 105 CURVE",
"720 108 OFFCURVE",
"757 117 OFFCURVE",
"794 131 CURVE",
"827 144 OFFCURVE",
"836 131 OFFCURVE",
"821 91 CURVE SMOOTH",
"786 0 LINE SMOOTH",
"780 -15 OFFCURVE",
"771 -21 OFFCURVE",
"761 -19 CURVE SMOOTH",
"751 -17 OFFCURVE",
"747 -10 OFFCURVE",
"750 2 CURVE",
"724 -5 OFFCURVE",
"699 -10 OFFCURVE",
"676 -14 CURVE",
"673 -24 OFFCURVE",
"668 -42 OFFCURVE",
"661 -69 CURVE SMOOTH",
"654 -96 OFFCURVE",
"643 -118 OFFCURVE",
"628 -138 CURVE SMOOTH",
"574 -211 OFFCURVE",
"494 -254 OFFCURVE",
"389 -269 CURVE SMOOTH",
"336 -276 OFFCURVE",
"289 -268 OFFCURVE",
"247 -243 CURVE SMOOTH",
"205 -218 OFFCURVE",
"179 -186 OFFCURVE",
"167 -147 CURVE SMOOTH",
"152 -100 OFFCURVE",
"156 -48 OFFCURVE",
"177 13 CURVE",
"141 -16 OFFCURVE",
"103 -35 OFFCURVE",
"63 -42 CURVE SMOOTH",
"42 -46 OFFCURVE",
"32 -39 OFFCURVE",
"33 -22 CURVE SMOOTH",
"37 29 LINE SMOOTH",
"38 45 OFFCURVE",
"46 54 OFFCURVE",
"61 54 CURVE SMOOTH",
"129 56 OFFCURVE",
"183 78 OFFCURVE",
"224 120 CURVE SMOOTH"
);
}
);
width = 860;
}
);
unicode = 0608;
},
{
glyphname = "afghani-ar";
layers = (
{
components = (
{
name = "alefabove-ar";
transform = "{1, 0, 0, 1, 117, -1226}";
},
{
name = "dotabove-ar";
transform = "{1, 0, 0, 1, 303, 493}";
}
);
layerId = "037FF2D3-C03F-44B0-90AB-89AFD43EFA27";
paths = (
{
closed = 1;
nodes = (
"297 322 OFFCURVE",
"288 307 OFFCURVE",
"286 277 CURVE",
"296 274 OFFCURVE",
"308 273 OFFCURVE",
"324 275 CURVE SMOOTH",
"340 277 OFFCURVE",
"350 281 OFFCURVE",
"354 287 CURVE",
"339 310 OFFCURVE",
"325 322 OFFCURVE",
"312 322 CURVE SMOOTH"
);
},
{
closed = 1;
nodes = (
"412 212 OFFCURVE",
"405 220 OFFCURVE",
"396 203 CURVE SMOOTH",
"383 181 OFFCURVE",
"367 167 OFFCURVE",
"347 162 CURVE SMOOTH",
"282 146 OFFCURVE",
"247 164 OFFCURVE",
"243 214 CURVE SMOOTH",
"238 272 OFFCURVE",
"246 325 OFFCURVE",
"268 373 CURVE SMOOTH",
"290 421 OFFCURVE",
"313 445 OFFCURVE",
"337 445 CURVE SMOOTH",
"357 445 OFFCURVE",
"374 438 OFFCURVE",
"387 425 CURVE SMOOTH",
"440 371 OFFCURVE",
"467 298 OFFCURVE",
"467 206 CURVE SMOOTH",
"467 156 OFFCURVE",
"457 116 OFFCURVE",
"438 87 CURVE SMOOTH",
"383 4 OFFCURVE",
"263 -28 OFFCURVE",
"77 -10 CURVE SMOOTH",
"56 -8 OFFCURVE",
"45 2 OFFCURVE",
"41 20 CURVE SMOOTH",
"31 67 LINE SMOOTH",
"28 80 OFFCURVE",
"31 92 OFFCURVE",
"38 100 CURVE SMOOTH",
"45 108 OFFCURVE",
"58 112 OFFCURVE",
"76 110 CURVE SMOOTH",
"232 93 OFFCURVE",
"345 117 OFFCURVE",
"416 181 CURVE"
);
}
);
width = 500;
}
);
unicode = 060B;
},
{
glyphname = "comma-ar";
layers = (
{
layerId = "037FF2D3-C03F-44B0-90AB-89AFD43EFA27";
paths = (
{
closed = 1;
nodes = (
"207 416 OFFCURVE",
"217 418 OFFCURVE",
"225 416 CURVE SMOOTH",
"241 412 OFFCURVE",
"249 403 OFFCURVE",
"251 389 CURVE",
"252 379 OFFCURVE",
"248 369 OFFCURVE",
"240 361 CURVE SMOOTH",
"166 284 OFFCURVE",
"137 213 OFFCURVE",
"155 150 CURVE",
"172 165 OFFCURVE",
"193 173 OFFCURVE",
"217 173 CURVE SMOOTH",
"241 173 OFFCURVE",
"261 164 OFFCURVE",
"279 146 CURVE SMOOTH",
"297 128 OFFCURVE",
"305 108 OFFCURVE",
"305 83 CURVE SMOOTH",
"305 58 OFFCURVE",
"295 36 OFFCURVE",
"276 18 CURVE",
"257 0 OFFCURVE",
"235 -9 OFFCURVE",
"208 -8 CURVE SMOOTH",
"181 -7 OFFCURVE",
"160 0 OFFCURVE",
"143 13 CURVE SMOOTH",
"97 49 OFFCURVE",
"78 113 OFFCURVE",
"85 206 CURVE",
"89 248 OFFCURVE",
"103 289 OFFCURVE",
"128 328 CURVE SMOOTH",
"153 367 OFFCURVE",
"176 394 OFFCURVE",
"197 409 CURVE"
);
}
);
width = 369;
}
);
unicode = 060C;
},
{
glyphname = "dateseparator-ar";
layers = (
{
layerId = "037FF2D3-C03F-44B0-90AB-89AFD43EFA27";
paths = (
{
closed = 1;
nodes = (
"267 422 LINE",
"256 400 OFFCURVE",
"244 388 OFFCURVE",
"229 387 CURVE",
"220 387 OFFCURVE",
"211 390 OFFCURVE",
"202 397 CURVE SMOOTH",
"193 404 OFFCURVE",
"178 397 OFFCURVE",
"156 376 CURVE SMOOTH",
"134 355 OFFCURVE",
"109 321 OFFCURVE",
"79 273 CURVE",
"66 252 OFFCURVE",
"52 245 OFFCURVE",
"37 253 CURVE SMOOTH",
"22 261 OFFCURVE",
"20 278 OFFCURVE",
"30 302 CURVE",
"48 344 OFFCURVE",
"77 392 OFFCURVE",
"115 448 CURVE",
"162 514 OFFCURVE",
"210 542 OFFCURVE",
"258 533 CURVE",
"295 526 OFFCURVE",
"302 500 OFFCURVE",
"281 454 CURVE"
);
}
);
width = 316;
}
);
unicode = 060D;
},
{
glyphname = "verseComma-ar";
layers = (
{
layerId = "037FF2D3-C03F-44B0-90AB-89AFD43EFA27";
paths = (
{
closed = 1;
nodes = (
"146 182 OFFCURVE",
"136 201 OFFCURVE",
"119 205 CURVE SMOOTH",
"102 209 OFFCURVE",
"93 206 OFFCURVE",
"90 197 CURVE",
"85 179 OFFCURVE",
"90 167 OFFCURVE",
"106 161 CURVE SMOOTH",
"118 157 OFFCURVE",
"133 152 OFFCURVE",
"149 149 CURVE"
);
},
{
closed = 1;
nodes = (
"66 80 OFFCURVE",
"53 90 OFFCURVE",
"42 104 CURVE SMOOTH",
"31 118 OFFCURVE",
"24 133 OFFCURVE",
"24 152 CURVE SMOOTH",
"24 190 OFFCURVE",
"38 225 OFFCURVE",
"65 256 CURVE",
"97 291 OFFCURVE",
"131 298 OFFCURVE",
"168 276 CURVE SMOOTH",
"191 262 OFFCURVE",
"202 231 OFFCURVE",
"202 182 CURVE SMOOTH",
"202 169 OFFCURVE",
"201 155 OFFCURVE",
"200 140 CURVE",
"238 135 OFFCURVE",
"289 133 OFFCURVE",
"351 134 CURVE SMOOTH",
"413 135 OFFCURVE",
"499 144 OFFCURVE",
"608 163 CURVE SMOOTH",
"616 164 OFFCURVE",
"623 165 OFFCURVE",
"627 165 CURVE",
"636 164 LINE",
"643 161 OFFCURVE",
"647 156 OFFCURVE",
"647 148 CURVE SMOOTH",
"647 140 OFFCURVE",
"642 133 OFFCURVE",
"633 127 CURVE SMOOTH",
"631 126 OFFCURVE",
"631 125 OFFCURVE",
"630 125 CURVE SMOOTH",
"588 97 LINE SMOOTH",
"574 88 OFFCURVE",
"559 80 OFFCURVE",
"542 76 CURVE SMOOTH",
"461 56 OFFCURVE",
"374 46 OFFCURVE",
"280 46 CURVE SMOOTH",
"186 46 OFFCURVE",
"119 55 OFFCURVE",
"81 73 CURVE SMOOTH"
);
}
);
width = 671;
}
);
unicode = 060E;
},
{
glyphname = "misraComma-ar";
layers = (
{
layerId = "037FF2D3-C03F-44B0-90AB-89AFD43EFA27";
paths = (
{
closed = 1;
nodes = (
"150 -48 OFFCURVE",
"190 60 OFFCURVE",
"273 154 CURVE",
"202 186 OFFCURVE",
"168 221 OFFCURVE",
"171 259 CURVE",
"174 292 OFFCURVE",
"183 323 OFFCURVE",
"198 350 CURVE SMOOTH",
"231 411 OFFCURVE",
"269 451 OFFCURVE",
"311 472 CURVE",
"335 483 OFFCURVE",
"363 480 OFFCURVE",
"394 462 CURVE SMOOTH",
"425 444 OFFCURVE",
"446 427 OFFCURVE",
"459 409 CURVE SMOOTH",
"464 402 OFFCURVE",
"466 396 OFFCURVE",
"465 390 CURVE SMOOTH",
"463 376 OFFCURVE",
"451 372 OFFCURVE",
"431 376 CURVE SMOOTH",
"353 391 OFFCURVE",
"288 365 OFFCURVE",
"236 299 CURVE",
"276 260 OFFCURVE",
"326 244 OFFCURVE",
"386 251 CURVE SMOOTH",
"395 252 OFFCURVE",
"409 259 OFFCURVE",
"427 270 CURVE SMOOTH",
"505 317 OFFCURVE",
"549 343 OFFCURVE",
"558 348 CURVE SMOOTH",
"567 353 OFFCURVE",
"575 356 OFFCURVE",
"581 354 CURVE",
"594 349 OFFCURVE",
"598 336 OFFCURVE",
"590 315 CURVE SMOOTH",
"578 280 OFFCURVE",
"568 258 OFFCURVE",
"562 251 CURVE SMOOTH",
"556 244 OFFCURVE",
"551 239 OFFCURVE",
"547 237 CURVE SMOOTH",
"485 207 OFFCURVE",
"419 167 OFFCURVE",
"351 117 CURVE SMOOTH",
"273 59 OFFCURVE",
"227 -18 OFFCURVE",
"212 -113 CURVE",
"278 -54 OFFCURVE",
"336 -13 OFFCURVE",
"385 11 CURVE SMOOTH",
"499 66 OFFCURVE",
"593 78 OFFCURVE",
"668 47 CURVE",
"720 24 OFFCURVE",
"755 -12 OFFCURVE",
"771 -61 CURVE",
"794 -133 OFFCURVE",
"776 -215 OFFCURVE",
"718 -305 CURVE",
"638 -429 OFFCURVE",
"540 -490 OFFCURVE",
"426 -491 CURVE SMOOTH",
"273 -491 OFFCURVE",
"184 -415 OFFCURVE",
"157 -261 CURVE",
"112 -308 OFFCURVE",
"83 -339 OFFCURVE",
"72 -354 CURVE SMOOTH",
"61 -369 OFFCURVE",
"52 -376 OFFCURVE",
"45 -374 CURVE SMOOTH",
"29 -370 OFFCURVE",
"24 -360 OFFCURVE",
"31 -344 CURVE",
"48 -283 LINE SMOOTH",
"51 -272 OFFCURVE",
"70 -250 OFFCURVE",
"103 -217 CURVE SMOOTH",
"110 -210 OFFCURVE",
"126 -194 OFFCURVE",
"150 -171 CURVE"
);
},
{
closed = 1;
nodes = (
"248 -317 OFFCURVE",
"327 -373 OFFCURVE",
"454 -373 CURVE SMOOTH",
"581 -373 OFFCURVE",
"663 -320 OFFCURVE",
"698 -215 CURVE",
"715 -161 OFFCURVE",
"701 -114 OFFCURVE",
"655 -72 CURVE SMOOTH",
"609 -30 OFFCURVE",
"532 -28 OFFCURVE",
"423 -68 CURVE SMOOTH",
"365 -89 OFFCURVE",
"296 -136 OFFCURVE",
"215 -206 CURVE"
);
}
);
width = 809;
}
);
unicode = 060F;
},
{
glyphname = "sallallahouAlayheWassallamcomb-ar";
layers = (
{
layerId = "037FF2D3-C03F-44B0-90AB-89AFD43EFA27";
paths = (
{
closed = 1;
nodes = (
"251 1011 OFFCURVE",
"234 1015 OFFCURVE",
"216 1010 CURVE SMOOTH",
"198 1005 OFFCURVE",
"173 993 OFFCURVE",
"144 972 CURVE",
"197 971 OFFCURVE",
"238 980 OFFCURVE",
"268 999 CURVE"
);
},
{
closed = 1;
nodes = (
"58 977 OFFCURVE",
"75 974 OFFCURVE",
"96 973 CURVE",
"125 1002 OFFCURVE",
"155 1027 OFFCURVE",
"184 1048 CURVE SMOOTH",
"251 1096 OFFCURVE",
"295 1090 OFFCURVE",
"317 1031 CURVE SMOOTH",
"320 1022 OFFCURVE",
"318 1008 OFFCURVE",
"310 992 CURVE SMOOTH",
"302 976 OFFCURVE",
"296 965 OFFCURVE",
"291 959 CURVE SMOOTH",
"265 932 OFFCURVE",
"218 915 OFFCURVE",
"151 909 CURVE SMOOTH",
"120 906 OFFCURVE",
"90 908 OFFCURVE",
"62 913 CURVE",
"62 883 OFFCURVE",
"56 850 OFFCURVE",
"43 817 CURVE",
"38 806 OFFCURVE",
"31 802 OFFCURVE",
"22 804 CURVE SMOOTH",
"13 806 OFFCURVE",
"9 813 OFFCURVE",
"12 825 CURVE SMOOTH",
"23 874 OFFCURVE",
"18 918 OFFCURVE",
"-3 955 CURVE SMOOTH",
"-6 961 OFFCURVE",
"-8 966 OFFCURVE",
"-7 969 CURVE SMOOTH",
"9 1010 LINE SMOOTH",
"10 1013 OFFCURVE",
"11 1015 OFFCURVE",
"13 1017 CURVE",
"23 1024 OFFCURVE",
"34 1013 OFFCURVE",
"46 984 CURVE"
);
}
);
width = 0;
}
);
unicode = 0610;
},
{
glyphname = "alayheAssallamcomb-ar";
layers = (
{
layerId = "037FF2D3-C03F-44B0-90AB-89AFD43EFA27";
paths = (
{
closed = 1;
nodes = (
"63 883 OFFCURVE",
"56 850 OFFCURVE",
"43 817 CURVE",
"38 806 OFFCURVE",
"31 802 OFFCURVE",
"22 804 CURVE SMOOTH",
"13 806 OFFCURVE",
"9 813 OFFCURVE",
"12 825 CURVE SMOOTH",
"23 874 OFFCURVE",
"18 918 OFFCURVE",
"-3 955 CURVE SMOOTH",
"-6 961 OFFCURVE",
"-8 966 OFFCURVE",
"-7 969 CURVE SMOOTH",
"9 1010 LINE",
"11 1014 OFFCURVE",
"13 1017 OFFCURVE",
"16 1018 CURVE SMOOTH",
"24 1022 OFFCURVE",
"33 1015 OFFCURVE",
"41 997 CURVE SMOOTH",
"42 995 OFFCURVE",
"43 991 OFFCURVE",
"46 984 CURVE",
"64 977 OFFCURVE",
"85 974 OFFCURVE",
"110 973 CURVE",
"104 984 OFFCURVE",
"101 996 OFFCURVE",
"100 1009 CURVE SMOOTH",
"97 1043 OFFCURVE",
"106 1071 OFFCURVE",
"127 1092 CURVE SMOOTH",
"148 1113 OFFCURVE",
"169 1125 OFFCURVE",
"191 1129 CURVE SMOOTH",
"213 1133 OFFCURVE",
"240 1120 OFFCURVE",
"274 1091 CURVE",
"281 1084 OFFCURVE",
"282 1076 OFFCURVE",
"277 1069 CURVE SMOOTH",
"272 1062 OFFCURVE",
"265 1060 OFFCURVE",
"257 1063 CURVE SMOOTH",
"225 1075 OFFCURVE",
"194 1075 OFFCURVE",
"162 1064 CURVE SMOOTH",
"150 1059 OFFCURVE",
"143 1055 OFFCURVE",
"140 1049 CURVE",
"139 1042 OFFCURVE",
"143 1030 OFFCURVE",
"154 1013 CURVE SMOOTH",
"165 996 OFFCURVE",
"175 986 OFFCURVE",
"182 985 CURVE SMOOTH",
"203 982 OFFCURVE",
"229 990 OFFCURVE",
"261 1010 CURVE SMOOTH",
"273 1017 OFFCURVE",
"281 1021 OFFCURVE",
"284 1020 CURVE SMOOTH",
"287 1019 OFFCURVE",
"291 1017 OFFCURVE",
"294 1014 CURVE SMOOTH",
"297 1011 OFFCURVE",
"298 1006 OFFCURVE",
"296 1001 CURVE",
"276 960 LINE SMOOTH",
"273 954 OFFCURVE",
"270 950 OFFCURVE",
"267 948 CURVE SMOOTH",
"206 911 OFFCURVE",
"138 900 OFFCURVE",
"62 913 CURVE"
);
}
);
width = 0;
}
);
unicode = 0611;
},
{
glyphname = "rehHahabove-ar";
layers = (
{
components = (
{
name = aRaa.isol;
transform = "{0.5, 0, 0, 0.5, 220, 915}";
}
);
layerId = "037FF2D3-C03F-44B0-90AB-89AFD43EFA27";
paths = (
{
closed = 1;
nodes = (
"-1 805 OFFCURVE",
"-6 810 OFFCURVE",
"-7 820 CURVE",
"-7 910 OFFCURVE",
"30 976 OFFCURVE",
"104 1017 CURVE",
"76 1021 OFFCURVE",
"51 1018 OFFCURVE",
"28 1009 CURVE SMOOTH",
"18 1005 OFFCURVE",
"12 1008 OFFCURVE",
"10 1016 CURVE SMOOTH",
"10 1017 OFFCURVE",
"10 1018 OFFCURVE",
"10 1019 CURVE SMOOTH",
"11 1057 OFFCURVE",
"31 1077 OFFCURVE",
"70 1079 CURVE SMOOTH",
"84 1080 OFFCURVE",
"109 1076 OFFCURVE",
"145 1069 CURVE SMOOTH",
"181 1062 OFFCURVE",
"218 1061 OFFCURVE",
"257 1068 CURVE SMOOTH",
"274 1071 OFFCURVE",
"285 1071 OFFCURVE",
"290 1069 CURVE SMOOTH",
"295 1067 OFFCURVE",
"296 1061 OFFCURVE",
"292 1052 CURVE SMOOTH",
"279 1025 LINE",
"276 1020 OFFCURVE",
"273 1017 OFFCURVE",
"268 1016 CURVE SMOOTH",
"187 1004 OFFCURVE",
"133 989 OFFCURVE",
"104 970 CURVE SMOOTH",
"51 935 OFFCURVE",
"24 885 OFFCURVE",
"24 820 CURVE SMOOTH",
"24 818 LINE",
"21 810 OFFCURVE",
"16 805 OFFCURVE",
"8 804 CURVE"
);
}
);
width = 0;
}
);
unicode = 0612;
},
{
glyphname = "takhallusabove-ar";
layers = (
{
layerId = "037FF2D3-C03F-44B0-90AB-89AFD43EFA27";
paths = (
{
closed = 1;
nodes = (
"191 839 OFFCURVE",
"93 830 OFFCURVE",
"-11 849 CURVE",
"-26 852 OFFCURVE",
"-33 860 OFFCURVE",
"-32 873 CURVE",
"-30 884 OFFCURVE",
"-21 890 OFFCURVE",
"-6 889 CURVE SMOOTH",
"145 884 OFFCURVE",
"246 904 OFFCURVE",
"296 950 CURVE",
"304 957 OFFCURVE",
"312 958 OFFCURVE",
"319 954 CURVE SMOOTH",
"326 950 OFFCURVE",
"328 941 OFFCURVE",
"322 927 CURVE",
"345 911 OFFCURVE",
"367 903 OFFCURVE",
"389 903 CURVE",
"387 906 OFFCURVE",
"385 911 OFFCURVE",
"382 917 CURVE SMOOTH",
"379 923 OFFCURVE",
"379 930 OFFCURVE",
"383 940 CURVE",
"399 973 LINE SMOOTH",
"401 977 OFFCURVE",
"404 979 OFFCURVE",
"407 981 CURVE",
"415 984 OFFCURVE",
"421 978 OFFCURVE",
"427 962 CURVE SMOOTH",
"433 946 OFFCURVE",
"433 922 OFFCURVE",
"428 891 CURVE SMOOTH",
"423 860 OFFCURVE",
"411 843 OFFCURVE",
"393 841 CURVE",
"357 837 OFFCURVE",
"320 848 OFFCURVE",
"283 875 CURVE"
);
}
);
width = 0;
}
);
unicode = 0614;
},
{
glyphname = "tahabove-ar";
layers = (
{
anchors = (
{
name = _MarkAbove;
position = "{233, 1270}";
}
);
layerId = "037FF2D3-C03F-44B0-90AB-89AFD43EFA27";
paths = (
{
closed = 1;
nodes = (
"198 1618 OFFCURVE",
"204 1522 OFFCURVE",
"200 1458 CURVE",
"271 1529 OFFCURVE",
"327 1552 OFFCURVE",
"368 1527 CURVE",
"390 1513 OFFCURVE",
"403 1497 OFFCURVE",
"405 1479 CURVE SMOOTH",
"407 1461 OFFCURVE",
"403 1440 OFFCURVE",
"390 1416 CURVE SMOOTH",
"377 1392 OFFCURVE",
"367 1378 OFFCURVE",
"360 1373 CURVE SMOOTH",
"305 1337 OFFCURVE",
"215 1314 OFFCURVE",
"89 1304 CURVE",
"88 1304 LINE",
"65 1308 OFFCURVE",
"43 1317 OFFCURVE",
"22 1331 CURVE SMOOTH",
"1 1345 OFFCURVE",
"-9 1359 OFFCURVE",
"-8 1373 CURVE SMOOTH",
"-7 1381 OFFCURVE",
"-3 1384 OFFCURVE",
"6 1383 CURVE SMOOTH",
"34 1379 OFFCURVE",
"71 1379 OFFCURVE",
"116 1382 CURVE",
"152 1416 LINE",
"151 1515 OFFCURVE",
"143 1612 OFFCURVE",
"129 1708 CURVE SMOOTH",
"127 1723 OFFCURVE",
"129 1735 OFFCURVE",
"134 1742 CURVE SMOOTH",
"149 1765 LINE SMOOTH",
"154 1772 OFFCURVE",
"158 1775 OFFCURVE",
"163 1776 CURVE SMOOTH",
"171 1777 OFFCURVE",
"177 1772 OFFCURVE",
"180 1759 CURVE SMOOTH",
"181 1755 OFFCURVE",
"181 1751 OFFCURVE",
"182 1745 CURVE SMOOTH"
);
},
{
closed = 1;
nodes = (
"250 1448 OFFCURVE",
"220 1426 OFFCURVE",
"177 1389 CURVE",
"244 1398 OFFCURVE",
"299 1414 OFFCURVE",
"342 1435 CURVE",
"325 1458 OFFCURVE",
"300 1463 OFFCURVE",
"266 1453 CURVE"
);
}
);
width = 0;
}
);
unicode = 0615;
},
{
glyphname = "alefLamYehabove-ar";
layers = (
{
anchors = (
{
name = _MarkAbove;
position = "{214, 801}";
},
{
name = _TashkilAbove;
position = "{213, 801}";
},
{
name = _TashkilAboveDot;
position = "{213, 801}";
}
);
layerId = "037FF2D3-C03F-44B0-90AB-89AFD43EFA27";
paths = (
{
closed = 1;
nodes = (
"269 1177 OFFCURVE",
"264 1183 OFFCURVE",
"254 1178 CURVE SMOOTH",
"252 1177 OFFCURVE",
"249 1172 OFFCURVE",
"245 1164 CURVE SMOOTH",
"233 1140 LINE",
"230 1135 OFFCURVE",
"229 1128 OFFCURVE",
"230 1117 CURVE SMOOTH",
"240 1015 OFFCURVE",
"244 947 OFFCURVE",
"242 914 CURVE SMOOTH",
"241 901 OFFCURVE",
"245 894 OFFCURVE",
"255 894 CURVE",
"258 894 OFFCURVE",
"261 896 OFFCURVE",
"263 898 CURVE SMOOTH",
"265 900 OFFCURVE",
"269 907 OFFCURVE",
"274 920 CURVE SMOOTH",
"289 961 OFFCURVE",
"288 1042 OFFCURVE",
"272 1163 CURVE"
);
},
{
closed = 1;
nodes = (
"167 1092 OFFCURVE",
"168 1034 OFFCURVE",
"160 989 CURVE",
"153 954 OFFCURVE",
"132 922 OFFCURVE",
"97 897 CURVE",
"166 890 OFFCURVE",
"276 893 OFFCURVE",
"427 906 CURVE SMOOTH",
"432 906 OFFCURVE",
"436 906 OFFCURVE",
"441 903 CURVE SMOOTH",
"446 900 OFFCURVE",
"445 894 OFFCURVE",
"439 885 CURVE SMOOTH",
"421 858 LINE",
"416 852 OFFCURVE",
"412 849 OFFCURVE",
"407 848 CURVE SMOOTH",
"376 843 OFFCURVE",
"323 840 OFFCURVE",
"246 837 CURVE SMOOTH",
"169 834 OFFCURVE",
"112 835 OFFCURVE",
"74 841 CURVE SMOOTH",
"58 844 OFFCURVE",
"49 851 OFFCURVE",
"47 864 CURVE SMOOTH",
"45 880 OFFCURVE",
"49 896 OFFCURVE",
"58 911 CURVE SMOOTH",
"67 926 OFFCURVE",
"77 937 OFFCURVE",
"87 945 CURVE SMOOTH",
"114 965 OFFCURVE",
"127 985 OFFCURVE",
"127 1007 CURVE",
"122 1055 OFFCURVE",
"119 1090 OFFCURVE",
"116 1111 CURVE SMOOTH",
"113 1132 OFFCURVE",
"113 1145 OFFCURVE",
"116 1151 CURVE",
"126 1166 LINE SMOOTH",
"131 1173 OFFCURVE",
"136 1176 OFFCURVE",
"140 1177 CURVE",
"147 1178 OFFCURVE",
"152 1173 OFFCURVE",
"154 1163 CURVE SMOOTH"
);
}
);
width = 0;
}
);
unicode = 0616;
},
{
glyphname = "zainabove-ar";
layers = (
{
anchors = (
{
name = _MarkAbove;
position = "{233, 1270}";
}
);
layerId = "037FF2D3-C03F-44B0-90AB-89AFD43EFA27";
paths = (
{
closed = 1;
nodes = (
"213 1779 OFFCURVE",
"218 1780 OFFCURVE",
"224 1778 CURVE SMOOTH",
"230 1776 OFFCURVE",
"234 1773 OFFCURVE",
"240 1771 CURVE SMOOTH",
"246 1769 OFFCURVE",
"255 1762 OFFCURVE",
"268 1751 CURVE",
"272 1746 OFFCURVE",
"274 1741 OFFCURVE",
"271 1736 CURVE",
"242 1691 LINE",
"238 1685 OFFCURVE",
"233 1684 OFFCURVE",
"228 1688 CURVE SMOOTH",
"223 1692 OFFCURVE",
"208 1701 OFFCURVE",
"183 1716 CURVE SMOOTH",
"177 1720 OFFCURVE",
"176 1724 OFFCURVE",
"180 1730 CURVE SMOOTH",
"209 1774 LINE"
);
},
{
closed = 1;
nodes = (
"273 1618 OFFCURVE",
"278 1621 OFFCURVE",
"288 1615 CURVE SMOOTH",
"290 1614 OFFCURVE",
"292 1612 OFFCURVE",
"293 1611 CURVE SMOOTH",
"310 1594 OFFCURVE",
"322 1571 OFFCURVE",
"330 1543 CURVE SMOOTH",
"350 1476 OFFCURVE",
"337 1414 OFFCURVE",
"294 1359 CURVE SMOOTH",
"270 1328 OFFCURVE",
"239 1307 OFFCURVE",
"200 1297 CURVE SMOOTH",
"188 1294 OFFCURVE",
"177 1294 OFFCURVE",
"167 1298 CURVE SMOOTH",
"122 1313 OFFCURVE",
"94 1323 OFFCURVE",
"85 1328 CURVE SMOOTH",
"76 1333 OFFCURVE",
"72 1339 OFFCURVE",
"72 1345 CURVE SMOOTH",
"73 1355 OFFCURVE",
"78 1358 OFFCURVE",
"88 1355 CURVE SMOOTH",
"114 1347 OFFCURVE",
"137 1344 OFFCURVE",
"156 1347 CURVE SMOOTH",
"219 1356 OFFCURVE",
"269 1393 OFFCURVE",
"303 1458 CURVE SMOOTH",
"304 1460 OFFCURVE",
"303 1461 OFFCURVE",
"303 1462 CURVE SMOOTH",
"297 1483 OFFCURVE",
"282 1508 OFFCURVE",
"257 1539 CURVE SMOOTH",
"254 1543 OFFCURVE",
"254 1546 OFFCURVE",
"255 1550 CURVE",
"270 1609 LINE"
);
}
);
width = 0;
}
);
unicode = 0617;
},
{
glyphname = "fathasmall-ar";
layers = (
{
anchors = (
{
name = _MarkAbove;
position = "{249, 801}";
},
{
name = _TashkilAbove;
position = "{247, 801}";
},
{
name = _TashkilAboveDot;
position = "{247, 801}";
}
);
layerId = "037FF2D3-C03F-44B0-90AB-89AFD43EFA27";
paths = (
{
closed = 1;
nodes = (
"312 952 LINE",
"317 954 OFFCURVE",
"321 955 OFFCURVE",
"326 954 CURVE SMOOTH",
"331 953 OFFCURVE",
"332 949 OFFCURVE",
"331 941 CURVE SMOOTH",
"328 913 LINE SMOOTH",
"327 905 OFFCURVE",
"323 900 OFFCURVE",
"317 898 CURVE SMOOTH",
"149 840 LINE",
"133 835 OFFCURVE",
"126 839 OFFCURVE",
"127 852 CURVE",
"129 862 LINE SMOOTH",
"130 868 OFFCURVE",
"134 873 OFFCURVE",
"141 876 CURVE SMOOTH"
);
}
);
width = 0;
}
);
unicode = 0618;
},
{
glyphname = "dammasmall-ar";
layers = (
{
anchors = (
{
name = _MarkAbove;
position = "{244, 801}";
},
{
name = _TashkilAbove;
position = "{244, 801}";
},
{
name = _TashkilAboveDot;
position = "{244, 801}";
}
);
layerId = "037FF2D3-C03F-44B0-90AB-89AFD43EFA27";
paths = (
{
closed = 1;
nodes = (
"279 1062 OFFCURVE",
"286 1058 OFFCURVE",
"292 1050 CURVE SMOOTH",
"305 1031 OFFCURVE",
"304 1002 OFFCURVE",
"288 964 CURVE",
"295 959 OFFCURVE",
"302 956 OFFCURVE",
"307 953 CURVE SMOOTH",
"312 950 OFFCURVE",
"312 944 OFFCURVE",
"308 935 CURVE SMOOTH",
"298 916 LINE SMOOTH",
"294 908 OFFCURVE",
"282 908 OFFCURVE",
"263 919 CURVE",
"233 882 OFFCURVE",
"207 856 OFFCURVE",
"183 843 CURVE",
"169 836 OFFCURVE",
"160 835 OFFCURVE",
"155 842 CURVE",
"150 849 OFFCURVE",
"158 861 OFFCURVE",
"178 875 CURVE SMOOTH",
"198 889 OFFCURVE",
"217 910 OFFCURVE",
"237 935 CURVE",
"206 952 OFFCURVE",
"197 974 OFFCURVE",
"209 1000 CURVE SMOOTH",
"224 1033 OFFCURVE",
"244 1052 OFFCURVE",
"268 1059 CURVE"
);
},
{
closed = 1;
nodes = (
"254 1004 OFFCURVE",
"247 1004 OFFCURVE",
"237 996 CURVE",
"242 991 OFFCURVE",
"250 985 OFFCURVE",
"261 979 CURVE",
"262 987 OFFCURVE",
"261 993 OFFCURVE",
"259 998 CURVE"
);
}
);
width = 0;
}
);
unicode = 0619;
},
{
glyphname = uni061D;
layers = (
{
layerId = "037FF2D3-C03F-44B0-90AB-89AFD43EFA27";
paths = (
{
closed = 1;
nodes = (
"587 180 OFFCURVE",
"617 130 OFFCURVE",
"617 80 CURVE SMOOTH",
"617 43 OFFCURVE",
"600 7 OFFCURVE",
"574 -19 CURVE SMOOTH",
"551 -42 OFFCURVE",
"521 -57 OFFCURVE",
"488 -57 CURVE SMOOTH",
"423 -57 OFFCURVE",
"393 -6 OFFCURVE",
"373 41 CURVE SMOOTH",
"335 124 OFFCURVE",
"303 176 OFFCURVE",
"250 241 CURVE SMOOTH",
"215 288 OFFCURVE",
"164 319 OFFCURVE",
"121 359 CURVE SMOOTH",
"85 391 OFFCURVE",
"65 455 OFFCURVE",
"65 517 CURVE SMOOTH",
"65 545 OFFCURVE",
"71 569 OFFCURVE",
"81 590 CURVE SMOOTH",
"105 638 OFFCURVE",
"146 697 OFFCURVE",
"202 735 CURVE SMOOTH",
"256 772 OFFCURVE",
"347 793 OFFCURVE",
"398 742 CURVE SMOOTH",
"472 668 OFFCURVE",
"417 529 OFFCURVE",
"373 464 CURVE",
"347 481 LINE",
"361 517 OFFCURVE",
"374 559 OFFCURVE",
"374 579 CURVE SMOOTH",
"374 622 OFFCURVE",
"347 641 OFFCURVE",
"304 641 CURVE SMOOTH",
"234 641 OFFCURVE",
"148 557 OFFCURVE",
"122 496 CURVE",
"143 474 OFFCURVE",
"178 452 OFFCURVE",
"212 424 CURVE SMOOTH",
"253 390 OFFCURVE",
"279 370 OFFCURVE",
"305 338 CURVE SMOOTH",
"349 282 OFFCURVE",
"366 216 OFFCURVE",
"383 156 CURVE SMOOTH",
"390 131 OFFCURVE",
"418 67 OFFCURVE",
"455 67 CURVE",
"453 77 OFFCURVE",
"451 86 OFFCURVE",
"451 95 CURVE SMOOTH",
"451 119 OFFCURVE",
"459 141 OFFCURVE",
"475 157 CURVE SMOOTH",
"490 172 OFFCURVE",
"511 180 OFFCURVE",
"534 180 CURVE SMOOTH"
);
}
);
width = 674;
}
);
unicode = 061D;
},
{
glyphname = "question-ar";
layers = (
{
components = (
{
name = dot.2;
transform = "{1, 0, 0, 1, 51, 0}";
}
);
layerId = "037FF2D3-C03F-44B0-90AB-89AFD43EFA27";
paths = (
{
closed = 1;
nodes = (
"312 599 OFFCURVE",
"276 636 OFFCURVE",
"218 636 CURVE SMOOTH",
"170 636 OFFCURVE",
"144 614 OFFCURVE",
"139 570 CURVE SMOOTH",
"136 543 OFFCURVE",
"145 511 OFFCURVE",
"165 473 CURVE SMOOTH",
"203 400 OFFCURVE",
"223 334 OFFCURVE",
"226 276 CURVE SMOOTH",
"228 243 OFFCURVE",
"227 215 OFFCURVE",
"222 192 CURVE SMOOTH",
"221 185 OFFCURVE",
"216 182 OFFCURVE",
"209 182 CURVE SMOOTH",
"201 182 OFFCURVE",
"196 184 OFFCURVE",
"195 190 CURVE SMOOTH",
"193 197 OFFCURVE",
"193 208 OFFCURVE",
"192 223 CURVE SMOOTH",
"191 254 OFFCURVE",
"178 277 OFFCURVE",
"155 294 CURVE SMOOTH",
"81 347 OFFCURVE",
"39 394 OFFCURVE",
"28 435 CURVE SMOOTH",
"12 495 OFFCURVE",
"21 549 OFFCURVE",
"55 596 CURVE SMOOTH",
"90 644 OFFCURVE",
"143 669 OFFCURVE",
"215 671 CURVE SMOOTH",
"252 672 OFFCURVE",
"284 660 OFFCURVE",
"312 637 CURVE SMOOTH",
"335 618 OFFCURVE",
"350 594 OFFCURVE",
"359 564 CURVE SMOOTH",
"372 521 OFFCURVE",
"372 482 OFFCURVE",
"358 447 CURVE SMOOTH",
"344 412 OFFCURVE",
"322 395 OFFCURVE",
"289 393 CURVE SMOOTH",
"267 392 OFFCURVE",
"249 400 OFFCURVE",
"234 417 CURVE SMOOTH",
"220 433 OFFCURVE",
"214 450 OFFCURVE",
"214 468 CURVE SMOOTH",
"214 486 OFFCURVE",
"219 502 OFFCURVE",
"230 516 CURVE SMOOTH",
"241 530 OFFCURVE",
"257 539 OFFCURVE",
"277 541 CURVE SMOOTH",
"297 543 OFFCURVE",
"314 538 OFFCURVE",
"327 526 CURVE"
);
}
);
width = 413;
}
);
unicode = 061F;
},
{
glyphname = "hamza-ar";
layers = (
{
anchors = (
{
name = TashkilAbove;
position = "{146, 342}";
},
{
name = TashkilBelow;
position = "{210, 29}";
}
);
layerId = "037FF2D3-C03F-44B0-90AB-89AFD43EFA27";
paths = (
{
closed = 1;
nodes = (
"223 305 OFFCURVE",
"241 284 OFFCURVE",
"237 242 CURVE",
"235 222 OFFCURVE",
"229 206 OFFCURVE",
"219 195 CURVE SMOOTH",
"209 184 OFFCURVE",
"199 183 OFFCURVE",
"187 193 CURVE",
"159 219 OFFCURVE",
"140 224 OFFCURVE",
"131 206 CURVE",
"124 192 OFFCURVE",
"134 179 OFFCURVE",
"160 166 CURVE SMOOTH",
"200 147 OFFCURVE",
"237 147 OFFCURVE",
"271 167 CURVE SMOOTH",
"291 178 OFFCURVE",
"305 183 OFFCURVE",
"315 180 CURVE SMOOTH",
"325 177 OFFCURVE",
"328 167 OFFCURVE",
"323 149 CURVE SMOOTH",
"315 123 LINE",
"311 110 OFFCURVE",
"305 101 OFFCURVE",
"298 98 CURVE",
"248 80 OFFCURVE",
"186 47 OFFCURVE",
"113 -2 CURVE",
"103 -8 OFFCURVE",
"95 -8 OFFCURVE",
"88 -1 CURVE",
"74 13 OFFCURVE",
"86 36 OFFCURVE",
"124 70 CURVE",
"75 91 OFFCURVE",
"52 117 OFFCURVE",
"56 149 CURVE SMOOTH",
"60 181 OFFCURVE",
"82 219 OFFCURVE",
"120 264 CURVE SMOOTH",
"144 292 OFFCURVE",
"166 306 OFFCURVE",
"184 306 CURVE SMOOTH"
);
}
);
width = 381;
}
);
unicode = 0621;
},
{
glyphname = "kashida-ar";
layers = (
{
anchors = (
{
name = AlefAbove;
position = "{93, 244}";
},
{
name = HamzaAbove;
position = "{93, 244}";
},
{
name = HamzaBelow;
position = "{93, -92.773}";
},
{
name = MarkAbove;
position = "{93, 801}";
},
{
name = MarkBelow;
position = "{93, -327}";
},
{
name = NoonAbove;
position = "{93, 244}";
}
);
layerId = "037FF2D3-C03F-44B0-90AB-89AFD43EFA27";
paths = (
{
closed = 1;
nodes = (
"-13 -15 OFFCURVE",
"-22 -6 OFFCURVE",
"-27 11 CURVE SMOOTH",
"-40 55 LINE",
"-46 87 OFFCURVE",
"-32 104 OFFCURVE",
"0 104 CURVE SMOOTH",
"186 104 LINE SMOOTH",
"214 104 OFFCURVE",
"227 92 OFFCURVE",
"227 69 CURVE SMOOTH",
"227 63 OFFCURVE",
"226 59 OFFCURVE",
"225 55 CURVE SMOOTH",
"212 11 LINE SMOOTH",
"207 -6 OFFCURVE",
"198 -15 OFFCURVE",
"186 -15 CURVE SMOOTH",
"0 -15 LINE SMOOTH"
);
}
);
width = 185;
}
);
unicode = 0640;
},
{
glyphname = "fathatan-ar";
layers = (
{
anchors = (
{
name = TashkilTashkilAbove;
position = "{140, 1060}";
},
{
name = _MarkAbove;
position = "{258, 801}";
},
{
name = _TashkilAbove;
position = "{258, 801}";
},
{
name = _TashkilAboveDot;
position = "{258, 801}";
}
);
layerId = "037FF2D3-C03F-44B0-90AB-89AFD43EFA27";
paths = (
{
closed = 1;
nodes = (
"345 1026 OFFCURVE",
"355 1029 OFFCURVE",
"362 1027 CURVE SMOOTH",
"369 1025 OFFCURVE",
"371 1016 OFFCURVE",
"366 1001 CURVE SMOOTH",
"355 970 LINE SMOOTH",
"351 958 OFFCURVE",
"345 950 OFFCURVE",
"336 944 CURVE SMOOTH",
"161 836 LINE SMOOTH",
"154 832 OFFCURVE",
"147 831 OFFCURVE",
"140 832 CURVE SMOOTH",
"133 833 OFFCURVE",
"130 840 OFFCURVE",
"132 853 CURVE SMOOTH",
"135 872 LINE",
"137 883 OFFCURVE",
"144 893 OFFCURVE",
"155 900 CURVE",
"333 1018 LINE SMOOTH"
);
},
{
closed = 1;
nodes = (
"340 1125 OFFCURVE",
"348 1127 OFFCURVE",
"355 1125 CURVE SMOOTH",
"362 1123 OFFCURVE",
"364 1116 OFFCURVE",
"361 1102 CURVE SMOOTH",
"354 1076 LINE SMOOTH",
"350 1063 OFFCURVE",
"342 1053 OFFCURVE",
"330 1046 CURVE SMOOTH",
"153 943 LINE SMOOTH",
"140 936 OFFCURVE",
"130 933 OFFCURVE",
"123 936 CURVE SMOOTH",
"116 939 OFFCURVE",
"115 948 OFFCURVE",
"121 962 CURVE",
"130 981 LINE SMOOTH",
"135 992 OFFCURVE",
"140 999 OFFCURVE",
"148 1004 CURVE SMOOTH",
"329 1118 LINE SMOOTH"
);
}
);
width = 0;
}
);
unicode = 064B;
},
{
glyphname = "dammatan-ar";
layers = (
{
anchors = (
{
name = TashkilTashkilAbove;
position = "{91, 1060}";
},
{
name = _MarkAbove;
position = "{249, 801}";
},
{
name = _TashkilAbove;
position = "{249, 801}";
},
{
name = _TashkilAboveDot;
position = "{249, 801}";
}
);
layerId = "037FF2D3-C03F-44B0-90AB-89AFD43EFA27";
paths = (
{
closed = 1;
nodes = (
"243 982 OFFCURVE",
"230 996 OFFCURVE",
"227 1007 CURVE SMOOTH",
"224 1018 OFFCURVE",
"225 1032 OFFCURVE",
"231 1051 CURVE SMOOTH",
"237 1070 OFFCURVE",
"247 1085 OFFCURVE",
"259 1097 CURVE SMOOTH",
"271 1109 OFFCURVE",
"283 1115 OFFCURVE",
"297 1113 CURVE SMOOTH",
"311 1111 OFFCURVE",
"320 1103 OFFCURVE",
"325 1087 CURVE SMOOTH",
"333 1060 OFFCURVE",
"333 1031 OFFCURVE",
"325 1001 CURVE",
"334 996 OFFCURVE",
"341 992 OFFCURVE",
"347 988 CURVE SMOOTH",
"353 984 OFFCURVE",
"355 978 OFFCURVE",
"354 972 CURVE",
"348 939 LINE",
"344 922 OFFCURVE",
"332 920 OFFCURVE",
"312 932 CURVE SMOOTH",
"305 937 OFFCURVE",
"299 941 OFFCURVE",
"295 944 CURVE",
"265 893 OFFCURVE",
"220 858 OFFCURVE",
"160 841 CURVE SMOOTH",
"140 835 OFFCURVE",
"128 840 OFFCURVE",
"125 854 CURVE",
"123 867 OFFCURVE",
"132 877 OFFCURVE",
"152 883 CURVE SMOOTH",
"203 898 OFFCURVE",
"240 926 OFFCURVE",
"264 966 CURVE"
);
},
{
closed = 1;
nodes = (
"287 1031 OFFCURVE",
"285 1037 OFFCURVE",
"281 1041 CURVE SMOOTH",
"277 1045 OFFCURVE",
"271 1045 OFFCURVE",
"263 1041 CURVE",
"269 1035 OFFCURVE",
"277 1030 OFFCURVE",
"287 1024 CURVE"
);
},
{
closed = 1;
nodes = (
"219 1022 OFFCURVE",
"225 1017 OFFCURVE",
"225 1007 CURVE SMOOTH",
"225 1004 OFFCURVE",
"224 1001 OFFCURVE",
"223 998 CURVE SMOOTH",
"215 972 LINE SMOOTH",
"210 957 OFFCURVE",
"199 951 OFFCURVE",
"183 956 CURVE",
"169 961 OFFCURVE",
"160 972 OFFCURVE",
"153 990 CURVE SMOOTH",
"146 1008 OFFCURVE",
"145 1029 OFFCURVE",
"151 1054 CURVE SMOOTH",
"157 1079 OFFCURVE",
"174 1107 OFFCURVE",
"201 1137 CURVE SMOOTH",
"264 1206 OFFCURVE",
"311 1233 OFFCURVE",
"341 1219 CURVE",
"353 1213 OFFCURVE",
"359 1203 OFFCURVE",
"360 1188 CURVE SMOOTH",
"361 1167 OFFCURVE",
"356 1151 OFFCURVE",
"346 1140 CURVE SMOOTH",
"335 1128 OFFCURVE",
"323 1128 OFFCURVE",
"309 1141 CURVE SMOOTH",
"295 1154 OFFCURVE",
"277 1153 OFFCURVE",
"255 1137 CURVE SMOOTH",
"233 1121 OFFCURVE",
"217 1105 OFFCURVE",
"206 1088 CURVE SMOOTH",
"195 1071 OFFCURVE",
"189 1058 OFFCURVE",
"188 1048 CURVE SMOOTH",
"187 1038 OFFCURVE",
"190 1031 OFFCURVE",
"195 1026 CURVE SMOOTH",
"200 1021 OFFCURVE",
"205 1019 OFFCURVE",
"211 1020 CURVE SMOOTH"
);
}
);
width = 0;
}
);
unicode = 064C;
},
{
glyphname = "fatha-ar";
layers = (
{
anchors = (
{
name = TashkilTashkilAbove;
position = "{145, 955}";
},
{
name = _MarkAbove;
position = "{268, 801}";
},
{
name = _TashkilAbove;
position = "{271, 801}";
},
{
name = _TashkilAboveDot;
position = "{271, 801}";
}
);
layerId = "037FF2D3-C03F-44B0-90AB-89AFD43EFA27";
paths = (
{
closed = 1;
nodes = (
"359 1034 OFFCURVE",
"367 1035 OFFCURVE",
"374 1033 CURVE SMOOTH",
"381 1031 OFFCURVE",
"382 1023 OFFCURVE",
"378 1009 CURVE SMOOTH",
"369 977 LINE SMOOTH",
"366 967 OFFCURVE",
"357 957 OFFCURVE",
"344 949 CURVE",
"149 836 LINE SMOOTH",
"144 833 OFFCURVE",
"140 832 OFFCURVE",
"136 832 CURVE",
"127 833 OFFCURVE",
"122 840 OFFCURVE",
"121 852 CURVE",
"121 869 LINE",
"122 879 OFFCURVE",
"129 889 OFFCURVE",
"142 898 CURVE",
"350 1028 LINE SMOOTH"
);
}
);
width = 0;
}
);
unicode = 064E;
},
{
glyphname = "damma-ar";
layers = (
{
anchors = (
{
name = TashkilTashkilAbove;
position = "{195, 1074}";
},
{
name = _MarkAbove;
position = "{278, 801}";
},
{
name = _TashkilAbove;
position = "{278, 801}";
},
{
name = _TashkilAboveDot;
position = "{278, 801}";
}
);
layerId = "037FF2D3-C03F-44B0-90AB-89AFD43EFA27";
paths = (
{
closed = 1;
nodes = (
"325 1156 OFFCURVE",
"337 1149 OFFCURVE",
"346 1134 CURVE SMOOTH",
"363 1107 OFFCURVE",
"364 1072 OFFCURVE",
"348 1029 CURVE",
"356 1025 OFFCURVE",
"361 1022 OFFCURVE",
"365 1020 CURVE SMOOTH",
"379 1014 OFFCURVE",
"382 1005 OFFCURVE",
"375 990 CURVE SMOOTH",
"363 968 LINE SMOOTH",
"357 957 OFFCURVE",
"351 954 OFFCURVE",
"343 957 CURVE SMOOTH",
"335 960 OFFCURVE",
"326 964 OFFCURVE",
"317 969 CURVE",
"271 910 OFFCURVE",
"220 865 OFFCURVE",
"162 836 CURVE SMOOTH",
"145 828 OFFCURVE",
"132 830 OFFCURVE",
"125 843 CURVE SMOOTH",
"118 856 OFFCURVE",
"124 868 OFFCURVE",
"143 878 CURVE SMOOTH",
"199 911 OFFCURVE",
"244 948 OFFCURVE",
"278 990 CURVE",
"232 1016 OFFCURVE",
"215 1044 OFFCURVE",
"227 1073 CURVE SMOOTH",
"248 1122 OFFCURVE",
"275 1148 OFFCURVE",
"310 1154 CURVE"
);
},
{
closed = 1;
nodes = (
"304 1062 OFFCURVE",
"302 1070 OFFCURVE",
"298 1074 CURVE SMOOTH",
"294 1078 OFFCURVE",
"289 1080 OFFCURVE",
"285 1083 CURVE SMOOTH",
"280 1086 OFFCURVE",
"276 1083 OFFCURVE",
"271 1075 CURVE",
"274 1068 OFFCURVE",
"284 1060 OFFCURVE",
"304 1050 CURVE"
);
}
);
width = 0;
}
);
unicode = 064F;
},
{
glyphname = "shadda-ar";
layers = (
{
anchors = (
{
name = TashkilTashkilAbove;
position = "{200, 1003}";
},
{
name = TashkilTashkilBelow;
position = "{198, 801}";
},
{
name = _MarkAbove;
position = "{208, 801}";
},
{
name = _TashkilAbove;
position = "{208, 801}";
},
{
name = _TashkilAboveDot;
position = "{208, 801}";
}
);
layerId = "037FF2D3-C03F-44B0-90AB-89AFD43EFA27";
paths = (
{
closed = 1;
nodes = (
"296 1002 OFFCURVE",
"302 1011 OFFCURVE",
"314 1010 CURVE SMOOTH",
"326 1009 OFFCURVE",
"333 1002 OFFCURVE",
"334 988 CURVE SMOOTH",
"334 986 OFFCURVE",
"333 985 OFFCURVE",
"333 983 CURVE SMOOTH",
"331 947 OFFCURVE",
"324 916 OFFCURVE",
"313 891 CURVE SMOOTH",
"299 861 OFFCURVE",
"278 844 OFFCURVE",
"252 842 CURVE",
"236 841 OFFCURVE",
"222 848 OFFCURVE",
"208 862 CURVE",
"198 848 OFFCURVE",
"187 837 OFFCURVE",
"173 830 CURVE",
"154 821 OFFCURVE",
"137 819 OFFCURVE",
"119 826 CURVE",
"77 844 OFFCURVE",
"71 893 OFFCURVE",
"102 975 CURVE SMOOTH",
"108 990 OFFCURVE",
"117 995 OFFCURVE",
"129 991 CURVE SMOOTH",
"130 991 OFFCURVE",
"131 990 OFFCURVE",
"132 990 CURVE SMOOTH",
"142 985 OFFCURVE",
"146 975 OFFCURVE",
"142 960 CURVE SMOOTH",
"140 953 OFFCURVE",
"138 946 OFFCURVE",
"137 940 CURVE SMOOTH",
"134 919 OFFCURVE",
"139 907 OFFCURVE",
"151 905 CURVE",
"168 903 OFFCURVE",
"183 918 OFFCURVE",
"195 952 CURVE SMOOTH",
"198 961 OFFCURVE",
"201 970 OFFCURVE",
"204 981 CURVE SMOOTH",
"208 995 OFFCURVE",
"215 1001 OFFCURVE",
"226 1000 CURVE SMOOTH",
"227 1000 OFFCURVE",
"227 1000 OFFCURVE",
"227 1000 CURVE SMOOTH",
"238 997 OFFCURVE",
"243 991 OFFCURVE",
"242 982 CURVE SMOOTH",
"242 981 OFFCURVE",
"242 979 OFFCURVE",
"242 978 CURVE",
"242 979 LINE SMOOTH",
"241 973 OFFCURVE",
"240 967 OFFCURVE",
"240 962 CURVE SMOOTH",
"240 945 OFFCURVE",
"245 936 OFFCURVE",
"256 934 CURVE SMOOTH",
"257 934 OFFCURVE",
"259 934 OFFCURVE",
"260 934 CURVE SMOOTH",
"276 934 OFFCURVE",
"286 946 OFFCURVE",
"291 972 CURVE SMOOTH",
"292 976 OFFCURVE",
"293 980 OFFCURVE",
"293 984 CURVE SMOOTH"
);
}
);
width = 0;
}
);
unicode = 0651;
},
{
glyphname = "sukun-ar";
layers = (
{
anchors = (
{
name = _MarkAbove;
position = "{180, 801}";
},
{
name = _TashkilAbove;
position = "{182, 801}";
},
{
name = _TashkilAboveDot;
position = "{182, 801}";
},
{
name = _TashkilTashkilAbove;
position = "{112, 791}";
}
);
layerId = "037FF2D3-C03F-44B0-90AB-89AFD43EFA27";
paths = (
{
closed = 1;
nodes = (
"242 914 OFFCURVE",
"242 927 OFFCURVE",
"222 947 CURVE SMOOTH",
"208 961 OFFCURVE",
"190 969 OFFCURVE",
"169 969 CURVE SMOOTH",
"144 970 OFFCURVE",
"131 959 OFFCURVE",
"130 937 CURVE SMOOTH",
"130 923 OFFCURVE",
"135 913 OFFCURVE",
"146 909 CURVE SMOOTH",
"169 901 OFFCURVE",
"195 901 OFFCURVE",
"223 909 CURVE SMOOTH"
);
},
{
closed = 1;
nodes = (
"115 994 OFFCURVE",
"119 1001 OFFCURVE",
"123 1006 CURVE SMOOTH",
"148 1040 OFFCURVE",
"179 1044 OFFCURVE",
"216 1020 CURVE SMOOTH",
"219 1018 OFFCURVE",
"222 1016 OFFCURVE",
"224 1014 CURVE SMOOTH",
"253 992 OFFCURVE",
"268 965 OFFCURVE",
"270 934 CURVE",
"272 896 OFFCURVE",
"259 867 OFFCURVE",
"234 849 CURVE",
"215 836 OFFCURVE",
"193 831 OFFCURVE",
"166 833 CURVE SMOOTH",
"162 833 OFFCURVE",
"157 834 OFFCURVE",
"153 834 CURVE SMOOTH",
"108 841 OFFCURVE",
"88 871 OFFCURVE",
"93 924 CURVE SMOOTH",
"93 929 OFFCURVE",
"94 934 OFFCURVE",
"95 940 CURVE SMOOTH",
"98 958 OFFCURVE",
"103 973 OFFCURVE",
"111 987 CURVE SMOOTH"
);
}
);
width = 0;
}
);
unicode = 0652;
},
{
glyphname = "madda-ar";
layers = (
{
anchors = (
{
name = _MarkAbove;
position = "{0, 767}";
},
{
name = _TashkilAbove;
position = "{0, 801}";
}
);
layerId = "037FF2D3-C03F-44B0-90AB-89AFD43EFA27";
paths = (
{
closed = 1;
nodes = (
"210 926 OFFCURVE",
"222 921 OFFCURVE",
"227 907 CURVE SMOOTH",
"233 892 OFFCURVE",
"229 881 OFFCURVE",
"217 873 CURVE SMOOTH",
"139 821 OFFCURVE",
"24 800 OFFCURVE",
"-128 808 CURVE",
"-140 779 OFFCURVE",
"-152 764 OFFCURVE",
"-164 763 CURVE SMOOTH",
"-171 763 OFFCURVE",
"-176 764 OFFCURVE",
"-181 769 CURVE SMOOTH",
"-224 816 LINE SMOOTH",
"-235 828 OFFCURVE",
"-236 840 OFFCURVE",
"-229 852 CURVE SMOOTH",
"-200 896 LINE SMOOTH",
"-193 907 OFFCURVE",
"-178 911 OFFCURVE",
"-155 907 CURVE SMOOTH",
"-35 886 OFFCURVE",
"81 890 OFFCURVE",
"192 921 CURVE SMOOTH"
);
}
);
width = 0;
}
);
unicode = 0653;
},
{
glyphname = "hamzaabove-ar";
layers = (
{
anchors = (
{
name = TashkilTashkilAbove;
position = "{-24, 718}";
},
{
name = _HamzaAbove;
position = "{0, 464}";
},
{
name = _MarkAbove;
position = "{0, 405}";
},
{
name = _TashkilAbove;
position = "{0, 464}";
}
);
layerId = "037FF2D3-C03F-44B0-90AB-89AFD43EFA27";
paths = (
{
closed = 1;
nodes = (
"39 466 OFFCURVE",
"14 460 OFFCURVE",
"-1 455 CURVE SMOOTH",
"-16 450 OFFCURVE",
"-43 439 OFFCURVE",
"-84 421 CURVE",
"-96 416 OFFCURVE",
"-106 419 OFFCURVE",
"-112 428 CURVE",
"-121 443 OFFCURVE",
"-112 460 OFFCURVE",
"-82 481 CURVE",
"-102 493 OFFCURVE",
"-113 507 OFFCURVE",
"-116 522 CURVE",
"-121 551 OFFCURVE",
"-109 586 OFFCURVE",
"-80 626 CURVE SMOOTH",
"-51 666 OFFCURVE",
"-19 685 OFFCURVE",
"15 682 CURVE SMOOTH",
"40 680 OFFCURVE",
"51 667 OFFCURVE",
"49 643 CURVE SMOOTH",
"47 619 OFFCURVE",
"41 602 OFFCURVE",
"34 592 CURVE SMOOTH",
"27 582 OFFCURVE",
"22 575 OFFCURVE",
"19 573 CURVE SMOOTH",
"9 566 OFFCURVE",
"1 568 OFFCURVE",
"-6 578 CURVE SMOOTH",
"-13 588 OFFCURVE",
"-21 594 OFFCURVE",
"-32 595 CURVE SMOOTH",
"-43 596 OFFCURVE",
"-51 593 OFFCURVE",
"-56 587 CURVE SMOOTH",
"-61 581 OFFCURVE",
"-61 576 OFFCURVE",
"-56 571 CURVE SMOOTH",
"-35 551 OFFCURVE",
"-3 541 OFFCURVE",
"37 540 CURVE SMOOTH",
"44 540 OFFCURVE",
"53 541 OFFCURVE",
"67 544 CURVE SMOOTH",
"81 547 OFFCURVE",
"90 549 OFFCURVE",
"97 549 CURVE SMOOTH",
"104 549 OFFCURVE",
"110 545 OFFCURVE",
"114 539 CURVE",
"118 532 OFFCURVE",
"118 527 OFFCURVE",
"116 521 CURVE",
"102 492 OFFCURVE",
"88 476 OFFCURVE",
"75 473 CURVE SMOOTH"
);
}
);
width = 0;
}
);
unicode = 0654;
},
{
glyphname = "noonghunnaabove-ar";
layers = (
{
anchors = (
{
name = _MarkAbove;
position = "{180, 801}";
},
{
name = _TashkilAbove;
position = "{182, 801}";
},
{
name = _TashkilAboveDot;
position = "{182, 801}";
}
);
layerId = "037FF2D3-C03F-44B0-90AB-89AFD43EFA27";
paths = (
{
closed = 1;
nodes = (
"148 1022 OFFCURVE",
"155 1027 OFFCURVE",
"162 1027 CURVE",
"171 1026 OFFCURVE",
"175 1018 OFFCURVE",
"173 1005 CURVE SMOOTH",
"167 956 OFFCURVE",
"182 930 OFFCURVE",
"217 925 CURVE",
"227 924 OFFCURVE",
"236 929 OFFCURVE",
"244 941 CURVE SMOOTH",
"253 954 OFFCURVE",
"262 960 OFFCURVE",
"270 956 CURVE",
"277 952 OFFCURVE",
"278 943 OFFCURVE",
"274 929 CURVE",
"255 868 OFFCURVE",
"224 837 OFFCURVE",
"183 836 CURVE",
"137 836 OFFCURVE",
"112 858 OFFCURVE",
"108 904 CURVE",
"106 940 OFFCURVE",
"117 976 OFFCURVE",
"141 1013 CURVE SMOOTH"
);
}
);
width = 0;
}
);
unicode = 0658;
},
{
glyphname = "fathaHorizont-ar";
layers = (
{
anchors = (
{
name = _MarkAbove;
position = "{268, 801}";
},
{
name = _TashkilAbove;
position = "{271, 801}";
},
{
name = _TashkilAboveDot;
position = "{271, 801}";
}
);
layerId = "037FF2D3-C03F-44B0-90AB-89AFD43EFA27";
paths = (
{
closed = 1;
nodes = (
"121 837 OFFCURVE",
"113 840 OFFCURVE",
"108 845 CURVE SMOOTH",
"103 850 OFFCURVE",
"106 858 OFFCURVE",
"116 868 CURVE SMOOTH",
"142 892 LINE",
"150 899 OFFCURVE",
"162 903 OFFCURVE",
"177 903 CURVE",
"411 903 LINE SMOOTH",
"422 903 OFFCURVE",
"430 900 OFFCURVE",
"435 895 CURVE SMOOTH",
"440 890 OFFCURVE",
"437 882 OFFCURVE",
"427 872 CURVE SMOOTH",
"401 849 LINE",
"393 842 OFFCURVE",
"381 837 OFFCURVE",
"366 837 CURVE",
"132 837 LINE SMOOTH"
);
}
);
width = 0;
}
);
unicode = 0659;
},
{
glyphname = "vabove-ar";
layers = (
{
anchors = (
{
name = TashkilTashkilAbove;
position = "{0, 732}";
},
{
name = _MarkAbove;
position = "{0, 410}";
},
{
name = _MarkDotAbove;
position = "{0, 464}";
},
{
name = _TashkilAbove;
position = "{0, 464}";
},
{
name = _VAbove;
position = "{0, 464}";
}
);
layerId = "037FF2D3-C03F-44B0-90AB-89AFD43EFA27";
paths = (
{
closed = 1;
nodes = (
"94 615 LINE",
"100 605 OFFCURVE",
"100 596 OFFCURVE",
"94 588 CURVE",
"62 535 OFFCURVE",
"40 489 OFFCURVE",
"29 450 CURVE SMOOTH",
"28 448 OFFCURVE",
"27 447 OFFCURVE",
"26 446 CURVE SMOOTH",
"17 439 LINE",
"9 434 OFFCURVE",
"2 436 OFFCURVE",
"-5 444 CURVE SMOOTH",
"-43 492 OFFCURVE",
"-74 542 OFFCURVE",
"-96 596 CURVE SMOOTH",
"-103 613 OFFCURVE",
"-99 625 OFFCURVE",
"-86 629 CURVE SMOOTH",
"-73 633 OFFCURVE",
"-63 627 OFFCURVE",
"-57 612 CURVE",
"-49 591 OFFCURVE",
"-35 562 OFFCURVE",
"-15 527 CURVE",
"-1 571 OFFCURVE",
"20 609 OFFCURVE",
"46 641 CURVE SMOOTH",
"52 647 OFFCURVE",
"57 650 OFFCURVE",
"62 650 CURVE SMOOTH",
"67 650 OFFCURVE",
"72 647 OFFCURVE",
"75 642 CURVE SMOOTH"
);
}
);
width = 0;
}
);
unicode = 065A;
},
{
glyphname = "vinvertedabove-ar";
layers = (
{
anchors = (
{
name = TashkilTashkilAbove;
position = "{0, 732}";
},
{
name = _MarkAbove;
position = "{0, 410}";
},
{
name = _TashkilAbove;
position = "{0, 464}";
},
{
name = _TashkilAboveDot;
position = "{0, 464}";
},
{
name = _VAbove;
position = "{0, 464}";
}
);
layerId = "037FF2D3-C03F-44B0-90AB-89AFD43EFA27";
paths = (
{
closed = 1;
nodes = (
"-55 456 OFFCURVE",
"-62 450 OFFCURVE",
"-74 450 CURVE SMOOTH",
"-86 450 OFFCURVE",
"-92 456 OFFCURVE",
"-93 468 CURVE SMOOTH",
"-93 472 OFFCURVE",
"-93 476 OFFCURVE",
"-91 481 CURVE SMOOTH",
"-75 537 OFFCURVE",
"-51 592 OFFCURVE",
"-18 643 CURVE",
"-11 652 OFFCURVE",
"-4 654 OFFCURVE",
"4 649 CURVE SMOOTH",
"12 644 OFFCURVE",
"16 642 OFFCURVE",
"17 641 CURVE SMOOTH",
"33 603 OFFCURVE",
"59 559 OFFCURVE",
"96 510 CURVE",
"103 502 OFFCURVE",
"104 493 OFFCURVE",
"99 483 CURVE",
"83 454 LINE SMOOTH",
"80 449 OFFCURVE",
"77 446 OFFCURVE",
"71 445 CURVE SMOOTH",
"65 444 OFFCURVE",
"60 447 OFFCURVE",
"54 453 CURVE SMOOTH",
"25 482 OFFCURVE",
"1 517 OFFCURVE",
"-18 559 CURVE",
"-34 522 OFFCURVE",
"-45 492 OFFCURVE",
"-51 470 CURVE SMOOTH"
);
}
);
width = 0;
}
);
unicode = 065B;
},
{
glyphname = "dammareversed-ar";
layers = (
{
anchors = (
{
name = _MarkAbove;
position = "{278, 801}";
},
{
name = _TashkilAbove;
position = "{278, 801}";
},
{
name = _TashkilAboveDot;
position = "{278, 801}";
}
);
layerId = "037FF2D3-C03F-44B0-90AB-89AFD43EFA27";
paths = (
{
closed = 1;
nodes = (
"225 1148 OFFCURVE",
"252 1121 OFFCURVE",
"272 1073 CURVE SMOOTH",
"284 1044 OFFCURVE",
"268 1016 OFFCURVE",
"222 990 CURVE",
"257 948 OFFCURVE",
"301 911 OFFCURVE",
"357 878 CURVE",
"376 868 OFFCURVE",
"382 856 OFFCURVE",
"375 843 CURVE SMOOTH",
"368 830 OFFCURVE",
"355 827 OFFCURVE",
"338 836 CURVE SMOOTH",
"280 865 OFFCURVE",
"229 910 OFFCURVE",
"183 969 CURVE",
"174 964 OFFCURVE",
"165 960 OFFCURVE",
"157 957 CURVE SMOOTH",
"149 954 OFFCURVE",
"142 957 OFFCURVE",
"136 968 CURVE SMOOTH",
"125 990 LINE SMOOTH",
"118 1004 OFFCURVE",
"120 1014 OFFCURVE",
"134 1020 CURVE SMOOTH",
"138 1022 OFFCURVE",
"145 1025 OFFCURVE",
"152 1029 CURVE",
"137 1073 OFFCURVE",
"137 1108 OFFCURVE",
"154 1134 CURVE SMOOTH",
"164 1149 OFFCURVE",
"176 1156 OFFCURVE",
"190 1154 CURVE"
);
},
{
closed = 1;
nodes = (
"215 1060 OFFCURVE",
"227 1069 OFFCURVE",
"229 1075 CURVE",
"223 1085 OFFCURVE",
"216 1087 OFFCURVE",
"208 1079 CURVE SMOOTH",
"200 1071 OFFCURVE",
"195 1061 OFFCURVE",
"195 1050 CURVE"
);
}
);
width = 0;
}
);
unicode = 065D;
},
{
glyphname = "fathatwodots-ar";
layers = (
{
anchors = (
{
name = _MarkAbove;
position = "{268, 801}";
},
{
name = _TashkilAbove;
position = "{271, 801}";
},
{
name = _TashkilAboveDot;
position = "{271, 801}";
}
);
components = (
{
name = "fatha-ar";
}
);
layerId = "037FF2D3-C03F-44B0-90AB-89AFD43EFA27";
paths = (
{
closed = 1;
nodes = (
"148 1023 OFFCURVE",
"154 1025 OFFCURVE",
"161 1025 CURVE SMOOTH",
"168 1025 OFFCURVE",
"180 1017 OFFCURVE",
"197 1002 CURVE",
"201 997 OFFCURVE",
"202 993 OFFCURVE",
"200 988 CURVE",
"176 951 LINE",
"172 946 OFFCURVE",
"168 945 OFFCURVE",
"163 948 CURVE SMOOTH",
"152 955 OFFCURVE",
"143 961 OFFCURVE",
"134 965 CURVE",
"126 970 OFFCURVE",
"122 975 OFFCURVE",
"121 979 CURVE",
"122 983 LINE",
"146 1020 LINE SMOOTH"
);
},
{
closed = 1;
nodes = (
"327 919 OFFCURVE",
"329 920 OFFCURVE",
"332 920 CURVE SMOOTH",
"335 920 OFFCURVE",
"340 919 OFFCURVE",
"349 916 CURVE SMOOTH",
"357 913 OFFCURVE",
"363 910 OFFCURVE",
"366 907 CURVE SMOOTH",
"369 904 OFFCURVE",
"372 900 OFFCURVE",
"376 896 CURVE SMOOTH",
"380 892 OFFCURVE",
"380 888 OFFCURVE",
"377 883 CURVE SMOOTH",
"354 846 LINE",
"349 840 OFFCURVE",
"341 840 OFFCURVE",
"333 848 CURVE SMOOTH",
"325 855 OFFCURVE",
"317 861 OFFCURVE",
"310 863 CURVE SMOOTH",
"303 865 OFFCURVE",
"298 869 OFFCURVE",
"298 874 CURVE",
"299 878 LINE",
"325 916 LINE"
);
}
);
width = 0;
}
);
unicode = 065E;
},
{
glyphname = "wavyhamzabelow-ar";
layers = (
{
anchors = (
{
name = TashkilTashkilBelow;
position = "{0, -547}";
},
{
name = _HamzaBelow;
position = "{0, -244}";
},
{
name = _MarkBelow;
position = "{0, -225}";
},
{
name = _TashkilBelow;
position = "{0, -244}";
}
);
layerId = "037FF2D3-C03F-44B0-90AB-89AFD43EFA27";
paths = (
{
closed = 1;
nodes = (
"-84 -442 OFFCURVE",
"-83 -441 OFFCURVE",
"-81 -440 CURVE",
"-102 -428 OFFCURVE",
"-113 -414 OFFCURVE",
"-116 -398 CURVE",
"-121 -369 OFFCURVE",
"-109 -334 OFFCURVE",
"-80 -294 CURVE SMOOTH",
"-51 -254 OFFCURVE",
"-19 -235 OFFCURVE",
"15 -238 CURVE SMOOTH",
"40 -240 OFFCURVE",
"51 -253 OFFCURVE",
"49 -277 CURVE SMOOTH",
"47 -301 OFFCURVE",
"41 -318 OFFCURVE",
"34 -328 CURVE SMOOTH",
"27 -338 OFFCURVE",
"22 -345 OFFCURVE",
"19 -347 CURVE SMOOTH",
"9 -354 OFFCURVE",
"1 -352 OFFCURVE",
"-6 -342 CURVE SMOOTH",
"-13 -332 OFFCURVE",
"-21 -326 OFFCURVE",
"-32 -325 CURVE SMOOTH",
"-43 -324 OFFCURVE",
"-51 -327 OFFCURVE",
"-56 -333 CURVE SMOOTH",
"-61 -339 OFFCURVE",
"-61 -344 OFFCURVE",
"-56 -349 CURVE SMOOTH",
"-35 -369 OFFCURVE",
"-3 -379 OFFCURVE",
"37 -380 CURVE SMOOTH",
"44 -380 OFFCURVE",
"53 -378 OFFCURVE",
"67 -375 CURVE SMOOTH",
"81 -372 OFFCURVE",
"90 -371 OFFCURVE",
"97 -371 CURVE SMOOTH",
"104 -371 OFFCURVE",
"110 -375 OFFCURVE",
"114 -381 CURVE",
"118 -388 OFFCURVE",
"118 -393 OFFCURVE",
"116 -399 CURVE SMOOTH",
"103 -428 OFFCURVE",
"89 -444 OFFCURVE",
"75 -447 CURVE",
"25 -458 OFFCURVE",
"-28 -475 OFFCURVE",
"-84 -499 CURVE SMOOTH",
"-103 -507 OFFCURVE",
"-131 -503 OFFCURVE",
"-167 -488 CURVE SMOOTH",
"-181 -482 OFFCURVE",
"-195 -484 OFFCURVE",
"-205 -491 CURVE SMOOTH",
"-215 -498 OFFCURVE",
"-227 -511 OFFCURVE",
"-240 -530 CURVE SMOOTH",
"-245 -537 OFFCURVE",
"-251 -538 OFFCURVE",
"-257 -531 CURVE SMOOTH",
"-263 -524 OFFCURVE",
"-264 -519 OFFCURVE",
"-261 -513 CURVE SMOOTH",
"-237 -472 OFFCURVE",
"-217 -446 OFFCURVE",
"-199 -434 CURVE SMOOTH",
"-181 -422 OFFCURVE",
"-164 -420 OFFCURVE",
"-146 -427 CURVE SMOOTH",
"-116 -439 OFFCURVE",
"-95 -444 OFFCURVE",
"-87 -443 CURVE"
);
}
);
width = 0;
}
);
unicode = 065F;
},
{
glyphname = "zero-ar";
layers = (
{
layerId = "037FF2D3-C03F-44B0-90AB-89AFD43EFA27";
paths = (
{
closed = 1;
nodes = (
"246 342 OFFCURVE",
"264 347 OFFCURVE",
"289 331 CURVE SMOOTH",
"372 277 LINE SMOOTH",
"390 265 OFFCURVE",
"395 248 OFFCURVE",
"388 226 CURVE SMOOTH",
"356 128 LINE SMOOTH",
"347 100 OFFCURVE",
"329 94 OFFCURVE",
"301 110 CURVE SMOOTH",
"210 164 LINE SMOOTH",
"195 173 OFFCURVE",
"191 188 OFFCURVE",
"199 210 CURVE SMOOTH",
"237 317 LINE SMOOTH"
);
}
);
width = 585;
}
);
unicode = 0660;
},
{
glyphname = "one-ar";
layers = (
{
layerId = "037FF2D3-C03F-44B0-90AB-89AFD43EFA27";
paths = (
{
closed = 1;
nodes = (
"251 584 OFFCURVE",
"273 579 OFFCURVE",
"299 512 CURVE SMOOTH",
"339 411 OFFCURVE",
"367 302 OFFCURVE",
"380 185 CURVE SMOOTH",
"393 68 OFFCURVE",
"388 -21 OFFCURVE",
"363 -84 CURVE SMOOTH",
"356 -103 OFFCURVE",
"345 -111 OFFCURVE",
"334 -107 CURVE SMOOTH",
"323 -103 OFFCURVE",
"317 -92 OFFCURVE",
"317 -72 CURVE SMOOTH",
"318 90 OFFCURVE",
"282 236 OFFCURVE",
"208 366 CURVE SMOOTH",
"195 389 OFFCURVE",
"191 410 OFFCURVE",
"198 429 CURVE SMOOTH",
"232 529 LINE SMOOTH"
);
}
);
width = 585;
}
);
unicode = 0661;
},
{
glyphname = "two-ar";
layers = (
{
layerId = "037FF2D3-C03F-44B0-90AB-89AFD43EFA27";
paths = (
{
closed = 1;
nodes = (
"136 579 OFFCURVE",
"157 578 OFFCURVE",
"188 520 CURVE SMOOTH",
"219 462 OFFCURVE",
"259 433 OFFCURVE",
"308 433 CURVE SMOOTH",
"377 433 OFFCURVE",
"418 464 OFFCURVE",
"433 525 CURVE SMOOTH",
"438 545 OFFCURVE",
"446 554 OFFCURVE",
"460 553 CURVE SMOOTH",
"473 552 OFFCURVE",
"480 543 OFFCURVE",
"481 526 CURVE SMOOTH",
"482 509 OFFCURVE",
"479 482 OFFCURVE",
"473 446 CURVE SMOOTH",
"467 410 OFFCURVE",
"455 379 OFFCURVE",
"437 354 CURVE SMOOTH",
"403 305 OFFCURVE",
"350 284 OFFCURVE",
"278 291 CURVE",
"313 141 OFFCURVE",
"321 17 OFFCURVE",
"300 -80 CURVE SMOOTH",
"297 -92 OFFCURVE",
"292 -100 OFFCURVE",
"285 -104 CURVE SMOOTH",
"278 -108 OFFCURVE",
"271 -107 OFFCURVE",
"264 -101 CURVE SMOOTH",
"257 -95 OFFCURVE",
"254 -87 OFFCURVE",
"253 -74 CURVE SMOOTH",
"242 97 OFFCURVE",
"196 243 OFFCURVE",
"113 364 CURVE",
"99 386 OFFCURVE",
"94 406 OFFCURVE",
"98 423 CURVE SMOOTH",
"123 524 LINE SMOOTH"
);
}
);
width = 585;
}
);
unicode = 0662;
},
{
glyphname = "three-ar";
layers = (
{
layerId = "037FF2D3-C03F-44B0-90AB-89AFD43EFA27";
paths = (
{
closed = 1;
nodes = (
"521 561 OFFCURVE",
"529 547 OFFCURVE",
"528 519 CURVE SMOOTH",
"526 469 OFFCURVE",
"517 419 OFFCURVE",
"502 372 CURVE SMOOTH",
"487 325 OFFCURVE",
"462 300 OFFCURVE",
"426 296 CURVE SMOOTH",
"394 293 OFFCURVE",
"360 302 OFFCURVE",
"326 323 CURVE",
"299 297 OFFCURVE",
"269 283 OFFCURVE",
"236 280 CURVE",
"272 120 OFFCURVE",
"279 -1 OFFCURVE",
"258 -81 CURVE SMOOTH",
"255 -92 OFFCURVE",
"250 -98 OFFCURVE",
"243 -101 CURVE SMOOTH",
"224 -108 OFFCURVE",
"213 -98 OFFCURVE",
"211 -73 CURVE SMOOTH",
"201 93 OFFCURVE",
"155 238 OFFCURVE",
"72 362 CURVE SMOOTH",
"56 386 OFFCURVE",
"50 406 OFFCURVE",
"54 423 CURVE SMOOTH",
"79 525 LINE SMOOTH",
"90 569 OFFCURVE",
"110 569 OFFCURVE",
"140 526 CURVE",
"177 472 OFFCURVE",
"199 443 OFFCURVE",
"206 438 CURVE SMOOTH",
"219 429 OFFCURVE",
"240 426 OFFCURVE",
"268 428 CURVE SMOOTH",
"307 431 OFFCURVE",
"332 463 OFFCURVE",
"343 525 CURVE SMOOTH",
"346 544 OFFCURVE",
"355 553 OFFCURVE",
"370 551 CURVE SMOOTH",
"380 550 OFFCURVE",
"386 543 OFFCURVE",
"389 532 CURVE SMOOTH",
"392 521 OFFCURVE",
"390 502 OFFCURVE",
"385 474 CURVE SMOOTH",
"383 462 OFFCURVE",
"392 451 OFFCURVE",
"411 443 CURVE SMOOTH",
"420 439 OFFCURVE",
"427 437 OFFCURVE",
"433 437 CURVE SMOOTH",
"459 436 OFFCURVE",
"473 467 OFFCURVE",
"477 532 CURVE SMOOTH",
"478 551 OFFCURVE",
"486 561 OFFCURVE",
"502 561 CURVE"
);
}
);
width = 585;
}
);
unicode = 0663;
},
{
glyphname = "four-ar";
layers = (
{
layerId = "037FF2D3-C03F-44B0-90AB-89AFD43EFA27";
paths = (
{
closed = 1;
nodes = (
"306 568 OFFCURVE",
"321 567 OFFCURVE",
"335 550 CURVE SMOOTH",
"342 542 OFFCURVE",
"344 533 OFFCURVE",
"342 523 CURVE SMOOTH",
"324 446 LINE",
"321 436 OFFCURVE",
"313 428 OFFCURVE",
"300 423 CURVE",
"258 411 OFFCURVE",
"235 400 OFFCURVE",
"229 388 CURVE SMOOTH",
"228 385 OFFCURVE",
"229 382 OFFCURVE",
"234 379 CURVE SMOOTH",
"276 352 OFFCURVE",
"320 333 OFFCURVE",
"365 321 CURVE SMOOTH",
"392 314 OFFCURVE",
"401 300 OFFCURVE",
"392 279 CURVE SMOOTH",
"369 226 LINE SMOOTH",
"363 213 OFFCURVE",
"350 200 OFFCURVE",
"329 186 CURVE SMOOTH",
"289 159 OFFCURVE",
"260 134 OFFCURVE",
"241 111 CURVE SMOOTH",
"236 104 OFFCURVE",
"239 98 OFFCURVE",
"249 91 CURVE SMOOTH",
"308 56 OFFCURVE",
"369 34 OFFCURVE",
"430 26 CURVE SMOOTH",
"451 23 OFFCURVE",
"457 11 OFFCURVE",
"448 -11 CURVE SMOOTH",
"417 -90 LINE SMOOTH",
"410 -107 OFFCURVE",
"397 -114 OFFCURVE",
"378 -112 CURVE SMOOTH",
"299 -103 OFFCURVE",
"230 -78 OFFCURVE",
"172 -38 CURVE",
"153 -24 OFFCURVE",
"149 -1 OFFCURVE",
"157 30 CURVE SMOOTH",
"180 115 LINE",
"187 139 OFFCURVE",
"212 171 OFFCURVE",
"255 211 CURVE",
"225 224 OFFCURVE",
"197 240 OFFCURVE",
"169 259 CURVE SMOOTH",
"141 278 OFFCURVE",
"136 308 OFFCURVE",
"155 348 CURVE SMOOTH",
"187 416 LINE SMOOTH",
"210 465 OFFCURVE",
"244 509 OFFCURVE",
"289 552 CURVE SMOOTH"
);
}
);
width = 585;
}
);
unicode = 0664;
},
{
glyphname = "five-ar";
layers = (
{
layerId = "037FF2D3-C03F-44B0-90AB-89AFD43EFA27";
paths = (
{
closed = 1;
nodes = (
"342 274 OFFCURVE",
"293 299 OFFCURVE",
"242 295 CURVE",
"211 293 OFFCURVE",
"193 270 OFFCURVE",
"188 223 CURVE",
"184 193 OFFCURVE",
"189 170 OFFCURVE",
"203 154 CURVE",
"224 129 OFFCURVE",
"261 121 OFFCURVE",
"311 133 CURVE",
"347 141 OFFCURVE",
"375 155 OFFCURVE",
"396 175 CURVE",
"409 186 OFFCURVE",
"407 200 OFFCURVE",
"391 219 CURVE SMOOTH"
);
},
{
closed = 1;
nodes = (
"249 446 OFFCURVE",
"275 455 OFFCURVE",
"305 448 CURVE SMOOTH",
"352 436 OFFCURVE",
"393 412 OFFCURVE",
"427 377 CURVE SMOOTH",
"476 325 OFFCURVE",
"490 247 OFFCURVE",
"468 143 CURVE SMOOTH",
"457 89 OFFCURVE",
"433 47 OFFCURVE",
"399 17 CURVE",
"364 -10 OFFCURVE",
"319 -23 OFFCURVE",
"265 -23 CURVE SMOOTH",
"211 -23 OFFCURVE",
"172 -11 OFFCURVE",
"147 12 CURVE SMOOTH",
"122 35 OFFCURVE",
"109 76 OFFCURVE",
"109 133 CURVE",
"108 235 OFFCURVE",
"147 330 OFFCURVE",
"225 419 CURVE SMOOTH"
);
}
);
width = 585;
}
);
unicode = 0665;
},
{
glyphname = "six-ar";
layers = (
{
layerId = "037FF2D3-C03F-44B0-90AB-89AFD43EFA27";
paths = (
{
closed = 1;
nodes = (
"107 577 OFFCURVE",
"127 577 OFFCURVE",
"160 529 CURVE SMOOTH",
"193 481 OFFCURVE",
"258 470 OFFCURVE",
"357 498 CURVE SMOOTH",
"388 507 OFFCURVE",
"403 497 OFFCURVE",
"400 467 CURVE SMOOTH",
"389 340 OFFCURVE",
"420 214 OFFCURVE",
"493 89 CURVE",
"504 68 OFFCURVE",
"507 48 OFFCURVE",
"504 28 CURVE SMOOTH",
"487 -68 LINE SMOOTH",
"478 -119 OFFCURVE",
"458 -122 OFFCURVE",
"428 -78 CURVE",
"363 54 OFFCURVE",
"332 196 OFFCURVE",
"337 348 CURVE",
"226 324 OFFCURVE",
"145 340 OFFCURVE",
"95 398 CURVE SMOOTH",
"82 412 OFFCURVE",
"78 428 OFFCURVE",
"82 446 CURVE SMOOTH",
"98 530 LINE SMOOTH"
);
}
);
width = 585;
}
);
unicode = 0666;
},
{
glyphname = "seven-ar";
layers = (
{
layerId = "037FF2D3-C03F-44B0-90AB-89AFD43EFA27";
paths = (
{
closed = 1;
nodes = (
"315 -93 OFFCURVE",
"310 -101 OFFCURVE",
"303 -105 CURVE SMOOTH",
"296 -109 OFFCURVE",
"290 -108 OFFCURVE",
"284 -102 CURVE SMOOTH",
"278 -96 OFFCURVE",
"276 -88 OFFCURVE",
"275 -77 CURVE SMOOTH",
"274 -46 OFFCURVE",
"253 20 OFFCURVE",
"213 122 CURVE SMOOTH",
"194 171 OFFCURVE",
"145 263 OFFCURVE",
"68 397 CURVE SMOOTH",
"63 405 OFFCURVE",
"62 417 OFFCURVE",
"64 431 CURVE SMOOTH",
"81 532 LINE SMOOTH",
"84 548 OFFCURVE",
"89 557 OFFCURVE",
"99 561 CURVE SMOOTH",
"109 565 OFFCURVE",
"118 558 OFFCURVE",
"128 541 CURVE SMOOTH",
"199 418 OFFCURVE",
"260 274 OFFCURVE",
"311 111 CURVE",
"343 258 OFFCURVE",
"394 394 OFFCURVE",
"466 518 CURVE SMOOTH",
"474 533 OFFCURVE",
"484 540 OFFCURVE",
"494 541 CURVE SMOOTH",
"508 543 OFFCURVE",
"515 534 OFFCURVE",
"517 515 CURVE SMOOTH",
"523 418 LINE SMOOTH",
"524 408 OFFCURVE",
"520 396 OFFCURVE",
"512 381 CURVE",
"430 265 OFFCURVE",
"366 111 OFFCURVE",
"318 -81 CURVE SMOOTH"
);
}
);
width = 585;
}
);
unicode = 0667;
},
{
glyphname = "eight-ar";
layers = (
{
layerId = "037FF2D3-C03F-44B0-90AB-89AFD43EFA27";
paths = (
{
closed = 1;
nodes = (
"271 548 OFFCURVE",
"276 556 OFFCURVE",
"283 560 CURVE SMOOTH",
"290 564 OFFCURVE",
"296 564 OFFCURVE",
"302 558 CURVE SMOOTH",
"308 552 OFFCURVE",
"310 544 OFFCURVE",
"311 533 CURVE SMOOTH",
"312 502 OFFCURVE",
"333 435 OFFCURVE",
"373 333 CURVE SMOOTH",
"392 284 OFFCURVE",
"441 192 OFFCURVE",
"518 58 CURVE SMOOTH",
"523 50 OFFCURVE",
"523 38 OFFCURVE",
"521 24 CURVE SMOOTH",
"505 -76 LINE SMOOTH",
"502 -92 OFFCURVE",
"497 -101 OFFCURVE",
"487 -105 CURVE SMOOTH",
"477 -109 OFFCURVE",
"468 -102 OFFCURVE",
"458 -85 CURVE SMOOTH",
"387 38 OFFCURVE",
"326 182 OFFCURVE",
"275 345 CURVE",
"243 198 OFFCURVE",
"192 62 OFFCURVE",
"120 -62 CURVE SMOOTH",
"112 -77 OFFCURVE",
"102 -84 OFFCURVE",
"92 -85 CURVE SMOOTH",
"78 -87 OFFCURVE",
"71 -79 OFFCURVE",
"69 -60 CURVE SMOOTH",
"63 37 LINE SMOOTH",
"62 47 OFFCURVE",
"66 59 OFFCURVE",
"74 74 CURVE",
"156 190 OFFCURVE",
"220 344 OFFCURVE",
"268 536 CURVE SMOOTH"
);
}
);
width = 585;
}
);
unicode = 0668;
},
{
glyphname = "nine-ar";
layers = (
{
layerId = "037FF2D3-C03F-44B0-90AB-89AFD43EFA27";
paths = (
{
closed = 1;
nodes = (
"311 383 OFFCURVE",
"290 405 OFFCURVE",
"260 414 CURVE",
"224 424 OFFCURVE",
"200 409 OFFCURVE",
"188 370 CURVE SMOOTH",
"181 349 OFFCURVE",
"186 333 OFFCURVE",
"202 323 CURVE SMOOTH",
"224 309 OFFCURVE",
"260 303 OFFCURVE",
"310 306 CURVE SMOOTH",
"326 307 OFFCURVE",
"330 321 OFFCURVE",
"322 348 CURVE SMOOTH"
);
},
{
closed = 1;
nodes = (
"190 167 OFFCURVE",
"113 209 OFFCURVE",
"108 301 CURVE",
"106 353 OFFCURVE",
"140 424 OFFCURVE",
"213 514 CURVE",
"255 568 OFFCURVE",
"296 576 OFFCURVE",
"336 540 CURVE SMOOTH",
"381 499 OFFCURVE",
"405 420 OFFCURVE",
"409 302 CURVE SMOOTH",
"411 226 OFFCURVE",
"429 156 OFFCURVE",
"464 91 CURVE SMOOTH",
"475 70 OFFCURVE",
"480 51 OFFCURVE",
"477 33 CURVE SMOOTH",
"459 -73 LINE SMOOTH",
"456 -88 OFFCURVE",
"454 -97 OFFCURVE",
"450 -100 CURVE SMOOTH",
"432 -118 OFFCURVE",
"416 -109 OFFCURVE",
"402 -75 CURVE SMOOTH",
"401 -73 OFFCURVE",
"400 -72 OFFCURVE",
"400 -72 CURVE SMOOTH",
"367 16 OFFCURVE",
"347 99 OFFCURVE",
"339 178 CURVE"
);
}
);
width = 585;
}
);
unicode = 0669;
},
{
glyphname = "decimalseparator-ar";
layers = (
{
layerId = "037FF2D3-C03F-44B0-90AB-89AFD43EFA27";
paths = (
{
closed = 1;
nodes = (
"139 186 OFFCURVE",
"164 193 OFFCURVE",
"205 170 CURVE SMOOTH",
"254 142 OFFCURVE",
"273 93 OFFCURVE",
"263 23 CURVE SMOOTH",
"253 -47 OFFCURVE",
"229 -106 OFFCURVE",
"191 -155 CURVE SMOOTH",
"153 -204 OFFCURVE",
"111 -229 OFFCURVE",
"64 -231 CURVE SMOOTH",
"44 -232 OFFCURVE",
"32 -232 OFFCURVE",
"27 -229 CURVE SMOOTH",
"22 -226 OFFCURVE",
"18 -223 OFFCURVE",
"16 -220 CURVE SMOOTH",
"7 -207 OFFCURVE",
"13 -193 OFFCURVE",
"35 -177 CURVE SMOOTH",
"121 -115 OFFCURVE",
"176 -44 OFFCURVE",
"201 37 CURVE",
"199 38 OFFCURVE",
"197 39 OFFCURVE",
"195 39 CURVE SMOOTH",
"148 49 LINE SMOOTH",
"132 52 OFFCURVE",
"124 61 OFFCURVE",
"120 75 CURVE SMOOTH",
"119 81 OFFCURVE",
"118 87 OFFCURVE",
"119 93 CURVE SMOOTH",
"131 149 LINE"
);
}
);
width = 299;
}
);
unicode = 066B;
},
{
glyphname = "thousandseparator-ar";
layers = (
{
layerId = "037FF2D3-C03F-44B0-90AB-89AFD43EFA27";
paths = (
{
closed = 1;
nodes = (
"161 174 OFFCURVE",
"136 167 OFFCURVE",
"95 190 CURVE SMOOTH",
"46 218 OFFCURVE",
"27 267 OFFCURVE",
"37 337 CURVE SMOOTH",
"47 407 OFFCURVE",
"71 466 OFFCURVE",
"109 515 CURVE SMOOTH",
"147 564 OFFCURVE",
"189 590 OFFCURVE",
"236 592 CURVE SMOOTH",
"256 593 OFFCURVE",
"268 592 OFFCURVE",
"273 589 CURVE SMOOTH",
"278 586 OFFCURVE",
"282 584 OFFCURVE",
"284 581 CURVE SMOOTH",
"293 568 OFFCURVE",
"286 553 OFFCURVE",
"264 537 CURVE SMOOTH",
"177 474 OFFCURVE",
"123 403 OFFCURVE",
"99 323 CURVE",
"101 322 OFFCURVE",
"103 321 OFFCURVE",
"105 321 CURVE SMOOTH",
"151 312 LINE SMOOTH",
"167 309 OFFCURVE",
"176 299 OFFCURVE",
"180 285 CURVE SMOOTH",
"181 279 OFFCURVE",
"181 273 OFFCURVE",
"180 267 CURVE SMOOTH",
"169 211 LINE"
);
}
);
width = 299;
}
);
unicode = 066C;
},
{
glyphname = "asterisk-ar";
layers = (
{
layerId = "037FF2D3-C03F-44B0-90AB-89AFD43EFA27";
paths = (
{
closed = 1;
nodes = (
"207 385 LINE",
"272 584 LINE",
"338 385 LINE",
"547 385 LINE",
"378 262 LINE",
"443 62 LINE",
"272 186 LINE",
"102 62 LINE",
"167 262 LINE",
"-2 385 LINE"
);
}
);
width = 544;
}
);
unicode = 066D;
},
{
glyphname = "alefabove-ar";
layers = (
{
anchors = (
{
name = TashkilTashkilAbove2;
position = "{120, 1230}";
},
{
name = _AlefAbove;
position = "{193, 801}";
},
{
name = _HamzaAbove;
position = "{153, 969}";
},
{
name = _MarkAbove;
position = "{190, 801}";
},
{
name = _TashkilAbove;
position = "{193, 801}";
},
{
name = _TashkilTashkilAbove;
position = "{195, 867}";
}
);
layerId = "037FF2D3-C03F-44B0-90AB-89AFD43EFA27";
paths = (
{
closed = 1;
nodes = (
"118 1182 OFFCURVE",
"128 1183 OFFCURVE",
"142 1166 CURVE",
"207 1094 OFFCURVE",
"228 1002 OFFCURVE",
"208 892 CURVE",
"206 882 OFFCURVE",
"202 877 OFFCURVE",
"195 876 CURVE SMOOTH",
"182 874 OFFCURVE",
"175 880 OFFCURVE",
"174 892 CURVE SMOOTH",
"165 960 OFFCURVE",
"140 1020 OFFCURVE",
"98 1071 CURVE SMOOTH",
"91 1080 OFFCURVE",
"89 1090 OFFCURVE",
"92 1100 CURVE SMOOTH",
"111 1164 LINE"
);
}
);
width = 0;
}
);
unicode = 0670;
},
{
glyphname = "fullstop-ar";
layers = (
{
layerId = "037FF2D3-C03F-44B0-90AB-89AFD43EFA27";
paths = (
{
closed = 1;
nodes = (
"416 104 OFFCURVE",
"423 103 OFFCURVE",
"427 99 CURVE SMOOTH",
"436 90 OFFCURVE",
"436 79 OFFCURVE",
"425 67 CURVE SMOOTH",
"367 4 LINE",
"355 -8 OFFCURVE",
"337 -15 OFFCURVE",
"316 -15 CURVE",
"84 -15 LINE",
"76 -14 OFFCURVE",
"69 -12 OFFCURVE",
"65 -8 CURVE SMOOTH",
"56 1 OFFCURVE",
"56 11 OFFCURVE",
"67 23 CURVE SMOOTH",
"125 86 LINE",
"137 98 OFFCURVE",
"155 105 OFFCURVE",
"176 105 CURVE",
"408 105 LINE"
);
}
);
width = 491;
}
);
unicode = 06D4;
},
{
glyphname = "sadLamAlefMaksuraabove-ar";
layers = (
{
anchors = (
{
name = _MarkAbove;
position = "{244, 1270}";
}
);
layerId = "037FF2D3-C03F-44B0-90AB-89AFD43EFA27";
paths = (
{
closed = 1;
nodes = (
"95 1546 OFFCURVE",
"95 1567 OFFCURVE",
"93 1589 CURVE SMOOTH",
"88 1663 OFFCURVE",
"87 1703 OFFCURVE",
"92 1710 CURVE SMOOTH",
"104 1728 LINE SMOOTH",
"111 1738 OFFCURVE",
"117 1743 OFFCURVE",
"123 1744 CURVE SMOOTH",
"132 1745 OFFCURVE",
"136 1737 OFFCURVE",
"137 1721 CURVE SMOOTH",
"137 1720 OFFCURVE",
"137 1720 OFFCURVE",
"137 1720 CURVE SMOOTH",
"142 1605 OFFCURVE",
"148 1539 OFFCURVE",
"155 1524 CURVE SMOOTH",
"162 1509 OFFCURVE",
"172 1502 OFFCURVE",
"185 1503 CURVE SMOOTH",
"198 1504 OFFCURVE",
"213 1515 OFFCURVE",
"232 1536 CURVE SMOOTH",
"241 1546 OFFCURVE",
"250 1549 OFFCURVE",
"258 1544 CURVE SMOOTH",
"276 1533 OFFCURVE",
"289 1526 OFFCURVE",
"297 1522 CURVE",
"303 1527 OFFCURVE",
"315 1537 OFFCURVE",
"332 1553 CURVE",
"374 1590 OFFCURVE",
"409 1610 OFFCURVE",
"441 1613 CURVE",
"462 1615 OFFCURVE",
"478 1608 OFFCURVE",
"489 1591 CURVE",
"499 1574 OFFCURVE",
"498 1551 OFFCURVE",
"485 1521 CURVE",
"465 1478 OFFCURVE",
"434 1452 OFFCURVE",
"392 1445 CURVE",
"342 1439 OFFCURVE",
"292 1449 OFFCURVE",
"241 1474 CURVE",
"229 1460 OFFCURVE",
"221 1452 OFFCURVE",
"217 1449 CURVE SMOOTH",
"192 1427 OFFCURVE",
"168 1425 OFFCURVE",
"143 1446 CURVE",
"133 1455 OFFCURVE",
"125 1466 OFFCURVE",
"119 1480 CURVE",
"113 1461 OFFCURVE",
"106 1444 OFFCURVE",
"96 1429 CURVE SMOOTH",
"86 1414 OFFCURVE",
"70 1398 OFFCURVE",
"49 1383 CURVE",
"134 1373 OFFCURVE",
"232 1372 OFFCURVE",
"342 1381 CURVE",
"359 1383 OFFCURVE",
"404 1388 OFFCURVE",
"479 1395 CURVE SMOOTH",
"485 1395 OFFCURVE",
"490 1393 OFFCURVE",
"495 1390 CURVE SMOOTH",
"500 1387 OFFCURVE",
"499 1381 OFFCURVE",
"493 1371 CURVE SMOOTH",
"471 1337 LINE SMOOTH",
"466 1329 OFFCURVE",
"460 1325 OFFCURVE",
"453 1324 CURVE SMOOTH",
"414 1318 OFFCURVE",
"344 1313 OFFCURVE",
"246 1310 CURVE SMOOTH",
"148 1307 OFFCURVE",
"74 1308 OFFCURVE",
"26 1315 CURVE",
"7 1318 OFFCURVE",
"-3 1328 OFFCURVE",
"-6 1343 CURVE",
"-9 1363 OFFCURVE",
"-5 1383 OFFCURVE",
"7 1402 CURVE SMOOTH",
"19 1421 OFFCURVE",
"31 1435 OFFCURVE",
"44 1445 CURVE SMOOTH",
"79 1471 OFFCURVE",
"97 1498 OFFCURVE",
"96 1527 CURVE SMOOTH"
);
},
{
closed = 1;
nodes = (
"416 1560 OFFCURVE",
"381 1551 OFFCURVE",
"333 1514 CURVE",
"366 1509 OFFCURVE",
"401 1509 OFFCURVE",
"439 1515 CURVE",
"441 1526 OFFCURVE",
"440 1534 OFFCURVE",
"436 1539 CURVE"
);
}
);
width = 0;
}
);
unicode = 06D6;
},
{
glyphname = "qafLamAlefMaksuraabove-ar";
layers = (
{
anchors = (
{
name = _MarkAbove;
position = "{244, 1270}";
}
);
layerId = "037FF2D3-C03F-44B0-90AB-89AFD43EFA27";
paths = (
{
closed = 1;
nodes = (
"291 1544 OFFCURVE",
"290 1549 OFFCURVE",
"288 1552 CURVE",
"277 1531 OFFCURVE",
"262 1520 OFFCURVE",
"242 1519 CURVE SMOOTH",
"208 1518 OFFCURVE",
"190 1538 OFFCURVE",
"188 1579 CURVE",
"188 1600 OFFCURVE",
"193 1618 OFFCURVE",
"204 1636 CURVE SMOOTH",
"215 1654 OFFCURVE",
"222 1666 OFFCURVE",
"229 1671 CURVE SMOOTH",
"251 1689 OFFCURVE",
"275 1683 OFFCURVE",
"298 1654 CURVE SMOOTH",
"321 1625 OFFCURVE",
"333 1592 OFFCURVE",
"332 1554 CURVE",
"331 1532 OFFCURVE",
"324 1512 OFFCURVE",
"312 1492 CURVE SMOOTH",
"287 1451 OFFCURVE",
"252 1431 OFFCURVE",
"208 1431 CURVE SMOOTH",
"164 1431 OFFCURVE",
"135 1448 OFFCURVE",
"120 1481 CURVE",
"114 1462 OFFCURVE",
"106 1445 OFFCURVE",
"96 1429 CURVE SMOOTH",
"86 1413 OFFCURVE",
"70 1398 OFFCURVE",
"49 1383 CURVE",
"77 1380 OFFCURVE",
"119 1377 OFFCURVE",
"177 1376 CURVE SMOOTH",
"235 1375 OFFCURVE",
"291 1376 OFFCURVE",
"344 1382 CURVE SMOOTH",
"439 1391 OFFCURVE",
"488 1395 OFFCURVE",
"492 1392 CURVE",
"499 1387 OFFCURVE",
"499 1381 OFFCURVE",
"493 1371 CURVE SMOOTH",
"471 1337 LINE SMOOTH",
"466 1329 OFFCURVE",
"460 1325 OFFCURVE",
"453 1324 CURVE SMOOTH",
"414 1318 OFFCURVE",
"344 1313 OFFCURVE",
"246 1310 CURVE SMOOTH",
"148 1307 OFFCURVE",
"74 1308 OFFCURVE",
"26 1315 CURVE",
"7 1318 OFFCURVE",
"-3 1328 OFFCURVE",
"-6 1343 CURVE",
"-9 1363 OFFCURVE",
"-5 1383 OFFCURVE",
"7 1402 CURVE SMOOTH",
"19 1421 OFFCURVE",
"31 1435 OFFCURVE",
"44 1445 CURVE SMOOTH",
"79 1470 OFFCURVE",
"97 1498 OFFCURVE",
"96 1527 CURVE SMOOTH",
"95 1546 OFFCURVE",
"95 1567 OFFCURVE",
"93 1589 CURVE SMOOTH",
"88 1663 OFFCURVE",
"87 1703 OFFCURVE",
"92 1710 CURVE SMOOTH",
"104 1728 LINE SMOOTH",
"111 1738 OFFCURVE",
"117 1743 OFFCURVE",
"123 1744 CURVE SMOOTH",
"132 1745 OFFCURVE",
"136 1737 OFFCURVE",
"137 1721 CURVE SMOOTH",
"137 1720 OFFCURVE",
"137 1720 OFFCURVE",
"137 1720 CURVE SMOOTH",
"142 1605 OFFCURVE",
"149 1539 OFFCURVE",
"156 1524 CURVE SMOOTH",
"163 1509 OFFCURVE",
"181 1501 OFFCURVE",
"210 1501 CURVE SMOOTH",
"239 1501 OFFCURVE",
"267 1513 OFFCURVE",
"292 1537 CURVE"
);
},
{
closed = 1;
nodes = (
"215 1811 OFFCURVE",
"230 1807 OFFCURVE",
"252 1792 CURVE",
"269 1816 LINE SMOOTH",
"272 1821 OFFCURVE",
"276 1822 OFFCURVE",
"283 1820 CURVE SMOOTH",
"290 1818 OFFCURVE",
"303 1810 OFFCURVE",
"324 1796 CURVE",
"330 1791 OFFCURVE",
"331 1786 OFFCURVE",
"328 1780 CURVE SMOOTH",
"300 1737 LINE",
"295 1731 OFFCURVE",
"291 1730 OFFCURVE",
"286 1734 CURVE SMOOTH",
"281 1738 OFFCURVE",
"272 1744 OFFCURVE",
"258 1752 CURVE",
"240 1724 LINE SMOOTH",
"237 1719 OFFCURVE",
"234 1718 OFFCURVE",
"231 1719 CURVE SMOOTH",
"228 1720 OFFCURVE",
"226 1721 OFFCURVE",
"225 1721 CURVE SMOOTH",
"224 1721 OFFCURVE",
"222 1723 OFFCURVE",
"218 1725 CURVE SMOOTH",
"214 1727 OFFCURVE",
"202 1735 OFFCURVE",
"183 1748 CURVE",
"178 1752 OFFCURVE",
"177 1756 OFFCURVE",
"180 1761 CURVE",
"208 1804 LINE"
);
}
);
width = 0;
}
);
unicode = 06D7;
},
{
glyphname = "meemabove-ar";
layers = (
{
anchors = (
{
name = _MarkAbove;
position = "{209, 1270}";
}
);
layerId = "037FF2D3-C03F-44B0-90AB-89AFD43EFA27";
paths = (
{
closed = 1;
nodes = (
"166 1352 OFFCURVE",
"113 1312 OFFCURVE",
"47 1297 CURVE",
"28 1293 OFFCURVE",
"18 1295 OFFCURVE",
"14 1303 CURVE",
"9 1316 OFFCURVE",
"15 1327 OFFCURVE",
"33 1336 CURVE SMOOTH",
"94 1367 OFFCURVE",
"139 1404 OFFCURVE",
"170 1448 CURVE",
"185 1531 OFFCURVE",
"212 1573 OFFCURVE",
"250 1573 CURVE",
"295 1572 OFFCURVE",
"317 1533 OFFCURVE",
"317 1456 CURVE SMOOTH",
"317 1455 OFFCURVE",
"316 1454 OFFCURVE",
"316 1453 CURVE SMOOTH",
"299 1416 LINE",
"295 1409 OFFCURVE",
"289 1405 OFFCURVE",
"281 1405 CURVE SMOOTH",
"251 1406 OFFCURVE",
"225 1410 OFFCURVE",
"204 1417 CURVE"
);
}
);
width = 0;
}
);
unicode = 06D8;
},
{
glyphname = "lamAlefabove-ar";
layers = (
{
anchors = (
{
name = _MarkAbove;
position = "{190, 1270}";
}
);
layerId = "037FF2D3-C03F-44B0-90AB-89AFD43EFA27";
paths = (
{
closed = 1;
nodes = (
"248 1535 OFFCURVE",
"254 1611 OFFCURVE",
"247 1705 CURVE SMOOTH",
"246 1722 OFFCURVE",
"247 1732 OFFCURVE",
"250 1737 CURVE SMOOTH",
"258 1752 OFFCURVE",
"263 1760 OFFCURVE",
"265 1763 CURVE SMOOTH",
"269 1768 OFFCURVE",
"273 1770 OFFCURVE",
"278 1769 CURVE SMOOTH",
"283 1768 OFFCURVE",
"286 1765 OFFCURVE",
"288 1760 CURVE",
"294 1739 OFFCURVE",
"299 1724 OFFCURVE",
"306 1717 CURVE SMOOTH",
"313 1709 OFFCURVE",
"312 1701 OFFCURVE",
"304 1692 CURVE SMOOTH",
"290 1678 LINE",
"293 1584 OFFCURVE",
"278 1504 OFFCURVE",
"246 1439 CURVE",
"256 1411 OFFCURVE",
"263 1386 OFFCURVE",
"264 1362 CURVE SMOOTH",
"265 1338 OFFCURVE",
"258 1325 OFFCURVE",
"242 1320 CURVE",
"205 1311 OFFCURVE",
"164 1309 OFFCURVE",
"121 1316 CURVE SMOOTH",
"114 1317 OFFCURVE",
"109 1321 OFFCURVE",
"107 1325 CURVE SMOOTH",
"100 1344 OFFCURVE",
"101 1361 OFFCURVE",
"111 1375 CURVE",
"116 1381 OFFCURVE",
"121 1383 OFFCURVE",
"127 1382 CURVE SMOOTH",
"133 1381 OFFCURVE",
"138 1381 OFFCURVE",
"144 1380 CURVE",
"169 1394 OFFCURVE",
"189 1413 OFFCURVE",
"205 1436 CURVE",
"169 1512 OFFCURVE",
"123 1576 OFFCURVE",
"71 1628 CURVE",
"68 1623 OFFCURVE",
"66 1619 OFFCURVE",
"65 1618 CURVE SMOOTH",
"56 1613 OFFCURVE",
"49 1615 OFFCURVE",
"42 1622 CURVE SMOOTH",
"1 1665 LINE",
"-6 1673 OFFCURVE",
"-8 1683 OFFCURVE",
"-7 1693 CURVE SMOOTH",
"0 1744 LINE SMOOTH",
"2 1752 OFFCURVE",
"6 1757 OFFCURVE",
"12 1758 CURVE",
"21 1759 OFFCURVE",
"36 1748 OFFCURVE",
"56 1726 CURVE SMOOTH",
"134 1637 OFFCURVE",
"191 1556 OFFCURVE",
"228 1481 CURVE"
);
},
{
closed = 1;
nodes = (
"215 1390 OFFCURVE",
"210 1385 OFFCURVE",
"205 1379 CURVE",
"212 1379 OFFCURVE",
"219 1380 OFFCURVE",
"224 1381 CURVE",
"223 1386 OFFCURVE",
"222 1391 OFFCURVE",
"220 1397 CURVE"
);
}
);
width = 0;
}
);
unicode = 06D9;
},
{
glyphname = "jeemabove-ar";
layers = (
{
anchors = (
{
name = _MarkAbove;
position = "{195, 1270}";
}
);
layerId = "037FF2D3-C03F-44B0-90AB-89AFD43EFA27";
paths = (
{
closed = 1;
nodes = (
"178 1565 OFFCURVE",
"185 1565 OFFCURVE",
"196 1561 CURVE SMOOTH",
"207 1557 OFFCURVE",
"218 1550 OFFCURVE",
"230 1539 CURVE",
"234 1534 OFFCURVE",
"235 1530 OFFCURVE",
"233 1525 CURVE",
"205 1481 LINE SMOOTH",
"201 1475 OFFCURVE",
"197 1474 OFFCURVE",
"192 1478 CURVE SMOOTH",
"187 1482 OFFCURVE",
"172 1491 OFFCURVE",
"149 1505 CURVE SMOOTH",
"144 1508 OFFCURVE",
"143 1512 OFFCURVE",
"146 1518 CURVE",
"174 1561 LINE"
);
},
{
closed = 1;
nodes = (
"322 1709 LINE SMOOTH",
"320 1703 OFFCURVE",
"316 1701 OFFCURVE",
"310 1700 CURVE SMOOTH",
"219 1688 OFFCURVE",
"155 1669 OFFCURVE",
"119 1646 CURVE",
"50 1600 OFFCURVE",
"23 1546 OFFCURVE",
"38 1483 CURVE",
"47 1448 OFFCURVE",
"73 1421 OFFCURVE",
"117 1401 CURVE",
"142 1390 OFFCURVE",
"182 1383 OFFCURVE",
"236 1380 CURVE SMOOTH",
"290 1377 OFFCURVE",
"341 1377 OFFCURVE",
"388 1381 CURVE SMOOTH",
"396 1382 OFFCURVE",
"402 1380 OFFCURVE",
"406 1376 CURVE SMOOTH",
"410 1372 OFFCURVE",
"409 1367 OFFCURVE",
"406 1362 CURVE SMOOTH",
"403 1357 OFFCURVE",
"400 1354 OFFCURVE",
"395 1353 CURVE SMOOTH",
"372 1346 OFFCURVE",
"352 1337 OFFCURVE",
"335 1327 CURVE SMOOTH",
"318 1317 OFFCURVE",
"307 1313 OFFCURVE",
"301 1312 CURVE SMOOTH",
"186 1302 OFFCURVE",
"103 1316 OFFCURVE",
"51 1354 CURVE SMOOTH",
"-1 1392 OFFCURVE",
"-18 1452 OFFCURVE",
"0 1533 CURVE",
"17 1607 OFFCURVE",
"59 1663 OFFCURVE",
"125 1700 CURVE",
"85 1707 OFFCURVE",
"55 1704 OFFCURVE",
"34 1692 CURVE SMOOTH",
"30 1690 OFFCURVE",
"25 1689 OFFCURVE",
"21 1690 CURVE",
"15 1692 OFFCURVE",
"13 1697 OFFCURVE",
"13 1705 CURVE SMOOTH",
"13 1713 OFFCURVE",
"15 1721 OFFCURVE",
"19 1732 CURVE SMOOTH",
"28 1755 OFFCURVE",
"48 1768 OFFCURVE",
"81 1770 CURVE",
"97 1771 OFFCURVE",
"121 1767 OFFCURVE",
"154 1761 CURVE SMOOTH",
"187 1755 OFFCURVE",
"214 1752 OFFCURVE",
"236 1752 CURVE SMOOTH",
"258 1752 OFFCURVE",
"278 1755 OFFCURVE",
"297 1758 CURVE SMOOTH",
"316 1761 OFFCURVE",
"328 1761 OFFCURVE",
"334 1759 CURVE SMOOTH",
"340 1757 OFFCURVE",
"340 1751 OFFCURVE",
"336 1741 CURVE SMOOTH"
);
}
);
width = 0;
}
);
unicode = 06DA;
},
{
glyphname = "threedotsabove-ar";
layers = (
{
anchors = (
{
name = _MarkAbove;
position = "{185, 1270}";
}
);
layerId = "037FF2D3-C03F-44B0-90AB-89AFD43EFA27";
paths = (
{
closed = 1;
nodes = (
"161 1512 OFFCURVE",
"182 1529 OFFCURVE",
"188 1526 CURVE SMOOTH",
"209 1514 OFFCURVE",
"226 1499 OFFCURVE",
"240 1481 CURVE",
"244 1475 OFFCURVE",
"244 1469 OFFCURVE",
"240 1464 CURVE",
"191 1412 LINE",
"185 1406 OFFCURVE",
"180 1406 OFFCURVE",
"175 1412 CURVE SMOOTH",
"170 1418 OFFCURVE",
"153 1433 OFFCURVE",
"125 1459 CURVE SMOOTH",
"119 1464 OFFCURVE",
"119 1469 OFFCURVE",
"124 1475 CURVE"
);
},
{
closed = 1;
nodes = (
"247 1431 OFFCURVE",
"252 1431 OFFCURVE",
"258 1428 CURVE",
"279 1416 OFFCURVE",
"296 1401 OFFCURVE",
"310 1383 CURVE",
"314 1377 OFFCURVE",
"313 1372 OFFCURVE",
"309 1367 CURVE",
"260 1314 LINE SMOOTH",
"255 1309 OFFCURVE",
"250 1309 OFFCURVE",
"246 1313 CURVE SMOOTH",
"242 1317 OFFCURVE",
"224 1333 OFFCURVE",
"194 1361 CURVE",
"189 1366 OFFCURVE",
"189 1372 OFFCURVE",
"193 1377 CURVE",
"242 1427 LINE"
);
},
{
closed = 1;
nodes = (
"107 1431 OFFCURVE",
"112 1432 OFFCURVE",
"118 1428 CURVE SMOOTH",
"138 1416 OFFCURVE",
"155 1401 OFFCURVE",
"169 1383 CURVE",
"173 1377 OFFCURVE",
"173 1372 OFFCURVE",
"169 1367 CURVE",
"120 1314 LINE SMOOTH",
"115 1309 OFFCURVE",
"111 1309 OFFCURVE",
"106 1313 CURVE SMOOTH",
"101 1317 OFFCURVE",
"84 1333 OFFCURVE",
"54 1361 CURVE",
"49 1366 OFFCURVE",
"49 1372 OFFCURVE",
"53 1377 CURVE",
"102 1427 LINE"
);
}
);
width = 0;
}
);
unicode = 06DB;
},
{
glyphname = "seenabove-ar";
layers = (
{
anchors = (
{
name = _MarkAbove;
position = "{288, 1270}";
},
{
name = _SeenAbove;
position = "{249, 1318}";
}
);
layerId = "037FF2D3-C03F-44B0-90AB-89AFD43EFA27";
paths = (
{
closed = 1;
nodes = (
"500 1674 OFFCURVE",
"508 1658 OFFCURVE",
"508 1626 CURVE SMOOTH",
"508 1594 OFFCURVE",
"500 1567 OFFCURVE",
"486 1544 CURVE SMOOTH",
"481 1537 OFFCURVE",
"475 1532 OFFCURVE",
"467 1530 CURVE",
"449 1527 OFFCURVE",
"429 1532 OFFCURVE",
"406 1544 CURVE",
"388 1517 OFFCURVE",
"364 1504 OFFCURVE",
"335 1506 CURVE",
"333 1475 OFFCURVE",
"328 1448 OFFCURVE",
"320 1424 CURVE SMOOTH",
"312 1400 OFFCURVE",
"296 1379 OFFCURVE",
"275 1362 CURVE",
"229 1327 OFFCURVE",
"180 1310 OFFCURVE",
"125 1312 CURVE SMOOTH",
"56 1314 OFFCURVE",
"12 1343 OFFCURVE",
"-4 1399 CURVE",
"-9 1415 OFFCURVE",
"-8 1438 OFFCURVE",
"-2 1467 CURVE SMOOTH",
"4 1496 OFFCURVE",
"16 1528 OFFCURVE",
"34 1561 CURVE SMOOTH",
"37 1566 OFFCURVE",
"41 1568 OFFCURVE",
"46 1568 CURVE SMOOTH",
"51 1568 OFFCURVE",
"55 1566 OFFCURVE",
"57 1562 CURVE SMOOTH",
"59 1557 OFFCURVE",
"59 1553 OFFCURVE",
"57 1549 CURVE SMOOTH",
"34 1504 OFFCURVE",
"24 1474 OFFCURVE",
"28 1460 CURVE SMOOTH",
"42 1413 OFFCURVE",
"76 1390 OFFCURVE",
"130 1388 CURVE",
"206 1386 OFFCURVE",
"261 1410 OFFCURVE",
"294 1460 CURVE",
"295 1488 OFFCURVE",
"288 1519 OFFCURVE",
"272 1554 CURVE SMOOTH",
"269 1561 OFFCURVE",
"269 1566 OFFCURVE",
"271 1570 CURVE SMOOTH",
"279 1588 OFFCURVE",
"286 1601 OFFCURVE",
"291 1608 CURVE SMOOTH",
"297 1616 OFFCURVE",
"301 1618 OFFCURVE",
"306 1614 CURVE SMOOTH",
"311 1610 OFFCURVE",
"315 1604 OFFCURVE",
"320 1595 CURVE SMOOTH",
"325 1586 OFFCURVE",
"329 1580 OFFCURVE",
"332 1578 CURVE",
"350 1575 OFFCURVE",
"367 1580 OFFCURVE",
"385 1595 CURVE",
"392 1601 OFFCURVE",
"397 1618 OFFCURVE",
"404 1644 CURVE SMOOTH",
"406 1650 OFFCURVE",
"409 1653 OFFCURVE",
"413 1655 CURVE",
"418 1657 OFFCURVE",
"422 1657 OFFCURVE",
"426 1654 CURVE SMOOTH",
"433 1649 OFFCURVE",
"435 1637 OFFCURVE",
"431 1619 CURVE SMOOTH",
"431 1618 OFFCURVE",
"431 1618 OFFCURVE",
"431 1618 CURVE SMOOTH",
"442 1611 OFFCURVE",
"453 1607 OFFCURVE",
"466 1607 CURVE",
"466 1607 OFFCURVE",
"466 1608 OFFCURVE",
"466 1609 CURVE SMOOTH",
"466 1610 OFFCURVE",
"464 1610 OFFCURVE",
"463 1612 CURVE SMOOTH",
"461 1616 OFFCURVE",
"461 1618 OFFCURVE",
"461 1619 CURVE SMOOTH",
"472 1664 LINE",
"475 1671 OFFCURVE",
"479 1675 OFFCURVE",
"485 1675 CURVE"
);
}
);
width = 0;
}
);
unicode = 06DC;
},
{
glyphname = "endofayah-ar";
layers = (
{
layerId = "037FF2D3-C03F-44B0-90AB-89AFD43EFA27";
paths = (
{
closed = 1;
nodes = (
"1129 -81 OFFCURVE",
"1199 20 OFFCURVE",
"1199 166 CURVE SMOOTH",
"1199 275 OFFCURVE",
"1160 358 OFFCURVE",
"1082 418 CURVE",
"1053 439 OFFCURVE",
"1022 457 OFFCURVE",
"990 469 CURVE",
"989 441 OFFCURVE",
"977 424 OFFCURVE",
"954 417 CURVE SMOOTH",
"931 410 OFFCURVE",
"909 415 OFFCURVE",
"888 429 CURVE",
"873 441 OFFCURVE",
"873 450 OFFCURVE",
"887 456 CURVE",
"896 459 OFFCURVE",
"901 463 OFFCURVE",
"902 468 CURVE",
"901 477 OFFCURVE",
"893 486 OFFCURVE",
"881 494 CURVE",
"794 501 OFFCURVE",
"730 485 OFFCURVE",
"686 450 CURVE",
"697 430 OFFCURVE",
"692 416 OFFCURVE",
"672 405 CURVE",
"659 399 OFFCURVE",
"648 402 OFFCURVE",
"640 411 CURVE",
"632 402 OFFCURVE",
"619 400 OFFCURVE",
"603 408 CURVE SMOOTH",
"587 416 OFFCURVE",
"584 430 OFFCURVE",
"594 450 CURVE",
"550 486 OFFCURVE",
"484 501 OFFCURVE",
"397 494 CURVE",
"384 486 OFFCURVE",
"378 477 OFFCURVE",
"377 468 CURVE",
"378 463 OFFCURVE",
"381 460 OFFCURVE",
"387 458 CURVE SMOOTH",
"406 451 OFFCURVE",
"407 441 OFFCURVE",
"391 429 CURVE",
"369 414 OFFCURVE",
"346 410 OFFCURVE",
"323 418 CURVE",
"301 427 OFFCURVE",
"290 444 OFFCURVE",
"289 469 CURVE",
"257 456 OFFCURVE",
"227 439 OFFCURVE",
"198 418 CURVE",
"119 358 OFFCURVE",
"80 275 OFFCURVE",
"80 166 CURVE SMOOTH",
"80 57 OFFCURVE",
"120 -27 OFFCURVE",
"198 -87 CURVE",
"227 -108 OFFCURVE",
"257 -125 OFFCURVE",
"289 -137 CURVE",
"290 -110 OFFCURVE",
"302 -92 OFFCURVE",
"324 -85 CURVE",
"349 -78 OFFCURVE",
"371 -82 OFFCURVE",
"391 -97 CURVE",
"395 -100 OFFCURVE",
"398 -105 OFFCURVE",
"400 -111 CURVE SMOOTH",
"402 -117 OFFCURVE",
"397 -122 OFFCURVE",
"386 -125 CURVE",
"381 -127 OFFCURVE",
"378 -131 OFFCURVE",
"377 -136 CURVE",
"379 -146 OFFCURVE",
"385 -154 OFFCURVE",
"397 -162 CURVE",
"484 -168 OFFCURVE",
"550 -153 OFFCURVE",
"594 -118 CURVE",
"583 -98 OFFCURVE",
"587 -84 OFFCURVE",
"607 -73 CURVE",
"620 -67 OFFCURVE",
"632 -70 OFFCURVE",
"640 -79 CURVE",
"648 -70 OFFCURVE",
"661 -68 OFFCURVE",
"677 -76 CURVE SMOOTH",
"693 -84 OFFCURVE",
"696 -98 OFFCURVE",
"686 -118 CURVE",
"730 -153 OFFCURVE",
"795 -168 OFFCURVE",
"882 -162 CURVE",
"894 -154 OFFCURVE",
"901 -145 OFFCURVE",
"902 -136 CURVE",
"901 -130 OFFCURVE",
"899 -127 OFFCURVE",
"894 -126 CURVE SMOOTH",
"889 -125 OFFCURVE",
"885 -121 OFFCURVE",
"881 -116 CURVE SMOOTH",
"877 -111 OFFCURVE",
"879 -104 OFFCURVE",
"889 -97 CURVE",
"911 -82 OFFCURVE",
"933 -78 OFFCURVE",
"956 -86 CURVE",
"978 -95 OFFCURVE",
"989 -112 OFFCURVE",
"990 -137 CURVE"
);
},
{
closed = 1;
nodes = (
"584 -164 OFFCURVE",
"562 -196 OFFCURVE",
"562 -230 CURVE",
"564 -259 OFFCURVE",
"590 -293 OFFCURVE",
"640 -332 CURVE",
"690 -293 OFFCURVE",
"715 -259 OFFCURVE",
"717 -230 CURVE",
"717 -196 OFFCURVE",
"694 -163 OFFCURVE",
"649 -130 CURVE SMOOTH",
"645 -127 OFFCURVE",
"643 -125 OFFCURVE",
"640 -122 CURVE",
"637 -125 OFFCURVE",
"634 -127 OFFCURVE",
"630 -130 CURVE SMOOTH"
);
},
{
closed = 1;
nodes = (
"890 -301 OFFCURVE",
"880 -305 OFFCURVE",
"868 -305 CURVE SMOOTH",
"856 -305 OFFCURVE",
"847 -302 OFFCURVE",
"839 -294 CURVE SMOOTH",
"831 -286 OFFCURVE",
"827 -276 OFFCURVE",
"826 -264 CURVE SMOOTH",
"825 -252 OFFCURVE",
"830 -242 OFFCURVE",
"838 -234 CURVE SMOOTH",
"857 -216 OFFCURVE",
"876 -215 OFFCURVE",
"897 -232 CURVE",
"905 -239 OFFCURVE",
"910 -249 OFFCURVE",
"910 -262 CURVE SMOOTH",
"910 -275 OFFCURVE",
"906 -285 OFFCURVE",
"898 -293 CURVE"
);
},
{
closed = 1;
nodes = (
"432 -301 OFFCURVE",
"423 -305 OFFCURVE",
"411 -305 CURVE SMOOTH",
"399 -305 OFFCURVE",
"389 -302 OFFCURVE",
"381 -294 CURVE SMOOTH",
"373 -286 OFFCURVE",
"370 -276 OFFCURVE",
"369 -264 CURVE SMOOTH",
"368 -252 OFFCURVE",
"372 -242 OFFCURVE",
"380 -234 CURVE SMOOTH",
"399 -216 OFFCURVE",
"419 -215 OFFCURVE",
"440 -232 CURVE",
"448 -239 OFFCURVE",
"452 -249 OFFCURVE",
"452 -262 CURVE SMOOTH",
"452 -275 OFFCURVE",
"448 -285 OFFCURVE",
"440 -293 CURVE"
);
},
{
closed = 1;
nodes = (
"890 556 OFFCURVE",
"880 552 OFFCURVE",
"868 552 CURVE SMOOTH",
"856 552 OFFCURVE",
"847 556 OFFCURVE",
"839 564 CURVE SMOOTH",
"831 572 OFFCURVE",
"827 582 OFFCURVE",
"826 594 CURVE SMOOTH",
"825 606 OFFCURVE",
"830 616 OFFCURVE",
"838 624 CURVE SMOOTH",
"857 642 OFFCURVE",
"876 642 OFFCURVE",
"897 625 CURVE",
"905 618 OFFCURVE",
"910 608 OFFCURVE",
"910 595 CURVE SMOOTH",
"910 582 OFFCURVE",
"906 572 OFFCURVE",
"898 564 CURVE"
);
},
{
closed = 1;
nodes = (
"432 556 OFFCURVE",
"423 552 OFFCURVE",
"411 552 CURVE SMOOTH",
"399 552 OFFCURVE",
"389 556 OFFCURVE",
"381 564 CURVE SMOOTH",
"373 572 OFFCURVE",
"370 582 OFFCURVE",
"369 594 CURVE SMOOTH",
"368 606 OFFCURVE",
"372 616 OFFCURVE",
"380 624 CURVE SMOOTH",
"399 642 OFFCURVE",
"419 642 OFFCURVE",
"440 625 CURVE",
"448 618 OFFCURVE",
"452 608 OFFCURVE",
"452 595 CURVE SMOOTH",
"452 582 OFFCURVE",
"448 572 OFFCURVE",
"440 564 CURVE"
);
},
{
closed = 1;
nodes = (
"793 -220 OFFCURVE",
"790 -238 OFFCURVE",
"782 -259 CURVE SMOOTH",
"774 -280 OFFCURVE",
"750 -303 OFFCURVE",
"711 -331 CURVE SMOOTH",
"672 -359 OFFCURVE",
"650 -374 OFFCURVE",
"646 -378 CURVE SMOOTH",
"642 -382 OFFCURVE",
"637 -382 OFFCURVE",
"633 -378 CURVE SMOOTH",
"629 -374 OFFCURVE",
"607 -359 OFFCURVE",
"568 -331 CURVE SMOOTH",
"529 -303 OFFCURVE",
"505 -279 OFFCURVE",
"497 -258 CURVE SMOOTH",
"489 -237 OFFCURVE",
"487 -220 OFFCURVE",
"491 -203 CURVE",
"470 -205 OFFCURVE",
"452 -206 OFFCURVE",
"433 -206 CURVE SMOOTH",
"334 -205 OFFCURVE",
"248 -177 OFFCURVE",
"173 -121 CURVE SMOOTH",
"82 -53 OFFCURVE",
"36 43 OFFCURVE",
"36 166 CURVE SMOOTH",
"36 289 OFFCURVE",
"82 384 OFFCURVE",
"173 453 CURVE",
"248 508 OFFCURVE",
"335 536 OFFCURVE",
"433 537 CURVE SMOOTH",
"452 537 OFFCURVE",
"471 536 OFFCURVE",
"491 534 CURVE",
"486 551 OFFCURVE",
"489 570 OFFCURVE",
"497 591 CURVE SMOOTH",
"505 612 OFFCURVE",
"529 635 OFFCURVE",
"568 663 CURVE SMOOTH",
"607 691 OFFCURVE",
"629 706 OFFCURVE",
"633 710 CURVE SMOOTH",
"637 714 OFFCURVE",
"642 714 OFFCURVE",
"646 710 CURVE SMOOTH",
"650 706 OFFCURVE",
"673 691 OFFCURVE",
"712 663 CURVE SMOOTH",
"751 635 OFFCURVE",
"775 611 OFFCURVE",
"783 590 CURVE SMOOTH",
"791 569 OFFCURVE",
"792 551 OFFCURVE",
"788 534 CURVE",
"809 536 OFFCURVE",
"828 537 OFFCURVE",
"847 537 CURVE SMOOTH",
"945 536 OFFCURVE",
"1031 508 OFFCURVE",
"1106 453 CURVE",
"1197 384 OFFCURVE",
"1244 288 OFFCURVE",
"1244 166 CURVE SMOOTH",
"1244 44 OFFCURVE",
"1197 -53 OFFCURVE",
"1106 -121 CURVE SMOOTH",
"1031 -177 OFFCURVE",
"945 -205 OFFCURVE",
"847 -206 CURVE SMOOTH",
"828 -206 OFFCURVE",
"808 -205 OFFCURVE",
"788 -203 CURVE"
);
},
{
closed = 1;
nodes = (
"643 457 OFFCURVE",
"645 460 OFFCURVE",
"649 462 CURVE",
"694 496 OFFCURVE",
"717 529 OFFCURVE",
"717 563 CURVE",
"715 593 OFFCURVE",
"690 627 OFFCURVE",
"640 664 CURVE",
"590 626 OFFCURVE",
"564 593 OFFCURVE",
"562 563 CURVE",
"562 528 OFFCURVE",
"585 495 OFFCURVE",
"630 462 CURVE SMOOTH",
"634 459 OFFCURVE",
"637 457 OFFCURVE",
"640 454 CURVE"
);
}
);
width = 1279;
}
);
unicode = 06DD;
},
{
glyphname = "hizb-ar";
layers = (
{
layerId = "037FF2D3-C03F-44B0-90AB-89AFD43EFA27";
paths = (
{
closed = 1;
nodes = (
"363 463 OFFCURVE",
"379 439 OFFCURVE",
"375 392 CURVE",
"362 253 LINE",
"451 361 LINE",
"481 397 OFFCURVE",
"510 402 OFFCURVE",
"536 376 CURVE",
"562 349 OFFCURVE",
"557 321 OFFCURVE",
"521 291 CURVE",
"413 202 LINE",
"552 216 LINE",
"599 220 OFFCURVE",
"623 204 OFFCURVE",
"623 167 CURVE",
"623 130 OFFCURVE",
"599 113 OFFCURVE",
"552 117 CURVE",
"413 130 LINE",
"521 42 LINE",
"557 12 OFFCURVE",
"562 -17 OFFCURVE",
"536 -43 CURVE",
"509 -69 OFFCURVE",
"481 -64 OFFCURVE",
"451 -28 CURVE",
"362 79 LINE",
"375 -60 LINE",
"379 -107 OFFCURVE",
"363 -130 OFFCURVE",
"326 -130 CURVE",
"289 -130 OFFCURVE",
"272 -107 OFFCURVE",
"276 -60 CURVE",
"290 79 LINE",
"201 -28 LINE",
"171 -64 OFFCURVE",
"142 -69 OFFCURVE",
"116 -43 CURVE",
"90 -17 OFFCURVE",
"95 12 OFFCURVE",
"131 42 CURVE",
"239 130 LINE",
"100 117 LINE",
"53 113 OFFCURVE",
"29 130 OFFCURVE",
"29 167 CURVE",
"29 204 OFFCURVE",
"53 220 OFFCURVE",
"100 216 CURVE",
"239 202 LINE",
"131 291 LINE",
"95 321 OFFCURVE",
"90 349 OFFCURVE",
"116 376 CURVE",
"142 402 OFFCURVE",
"171 397 OFFCURVE",
"201 361 CURVE",
"290 253 LINE",
"276 392 LINE",
"272 439 OFFCURVE",
"289 463 OFFCURVE",
"326 463 CURVE"
);
}
);
width = 652;
}
);
unicode = 06DE;
},
{
glyphname = "sukunround-ar";
layers = (
{
anchors = (
{
name = _MarkAbove;
position = "{180, 801}";
},
{
name = _TashkilAbove;
position = "{182, 801}";
}
);
layerId = "037FF2D3-C03F-44B0-90AB-89AFD43EFA27";
paths = (
{
closed = 1;
nodes = (
"220 902 OFFCURVE",
"219 909 OFFCURVE",
"205 920 CURVE SMOOTH",
"191 931 OFFCURVE",
"180 937 OFFCURVE",
"173 937 CURVE SMOOTH",
"158 937 OFFCURVE",
"149 930 OFFCURVE",
"148 917 CURVE SMOOTH",
"147 910 OFFCURVE",
"150 906 OFFCURVE",
"156 903 CURVE SMOOTH",
"170 896 OFFCURVE",
"188 894 OFFCURVE",
"208 899 CURVE SMOOTH"
);
},
{
closed = 1;
nodes = (
"115 928 OFFCURVE",
"123 948 OFFCURVE",
"135 966 CURVE SMOOTH",
"156 995 OFFCURVE",
"182 998 OFFCURVE",
"214 976 CURVE",
"239 957 OFFCURVE",
"250 936 OFFCURVE",
"248 911 CURVE SMOOTH",
"246 886 OFFCURVE",
"238 867 OFFCURVE",
"224 854 CURVE SMOOTH",
"210 841 OFFCURVE",
"187 836 OFFCURVE",
"157 841 CURVE SMOOTH",
"127 846 OFFCURVE",
"112 868 OFFCURVE",
"114 905 CURVE SMOOTH"
);
}
);
width = 0;
}
);
unicode = 06DF;
},
{
glyphname = "sukunoval-ar";
layers = (
{
anchors = (
{
name = _MarkAbove;
position = "{180, 801}";
},
{
name = _TashkilAbove;
position = "{182, 801}";
}
);
layerId = "037FF2D3-C03F-44B0-90AB-89AFD43EFA27";
paths = (
{
closed = 1;
nodes = (
"216 1012 OFFCURVE",
"214 1039 OFFCURVE",
"210 1053 CURVE SMOOTH",
"205 1071 OFFCURVE",
"195 1080 OFFCURVE",
"178 1080 CURVE SMOOTH",
"163 1080 OFFCURVE",
"152 1071 OFFCURVE",
"146 1053 CURVE SMOOTH",
"142 1041 OFFCURVE",
"141 1014 OFFCURVE",
"141 973 CURVE SMOOTH",
"141 933 OFFCURVE",
"142 906 OFFCURVE",
"146 892 CURVE SMOOTH",
"151 874 OFFCURVE",
"162 866 OFFCURVE",
"178 866 CURVE SMOOTH",
"195 866 OFFCURVE",
"205 874 OFFCURVE",
"210 892 CURVE SMOOTH",
"214 906 OFFCURVE",
"216 933 OFFCURVE",
"216 973 CURVE SMOOTH"
);
},
{
closed = 1;
nodes = (
"94 1013 OFFCURVE",
"103 1045 OFFCURVE",
"120 1069 CURVE SMOOTH",
"137 1093 OFFCURVE",
"158 1105 OFFCURVE",
"179 1105 CURVE SMOOTH",
"200 1105 OFFCURVE",
"220 1093 OFFCURVE",
"237 1069 CURVE SMOOTH",
"254 1045 OFFCURVE",
"263 1012 OFFCURVE",
"263 972 CURVE SMOOTH",
"263 932 OFFCURVE",
"254 900 OFFCURVE",
"237 876 CURVE SMOOTH",
"220 852 OFFCURVE",
"199 840 OFFCURVE",
"178 840 CURVE SMOOTH",
"157 840 OFFCURVE",
"137 852 OFFCURVE",
"120 876 CURVE SMOOTH",
"103 900 OFFCURVE",
"94 933 OFFCURVE",
"94 973 CURVE SMOOTH"
);
}
);
width = 0;
}
);
unicode = 06E0;
},
{
glyphname = "hahabove-ar";
layers = (
{
anchors = (
{
name = TashkilTashkilAbove;
position = "{179, 1069}";
},
{
name = _MarkAbove;
position = "{180, 801}";
},
{
name = _TashkilAbove;
position = "{182, 801}";
},
{
name = _TashkilAboveDot;
position = "{182, 801}";
}
);
layerId = "037FF2D3-C03F-44B0-90AB-89AFD43EFA27";
paths = (
{
closed = 1;
nodes = (
"283 997 OFFCURVE",
"289 983 OFFCURVE",
"280 960 CURVE SMOOTH",
"275 949 OFFCURVE",
"264 935 OFFCURVE",
"248 918 CURVE SMOOTH",
"232 901 OFFCURVE",
"217 888 OFFCURVE",
"205 878 CURVE SMOOTH",
"179 857 OFFCURVE",
"138 852 OFFCURVE",
"85 865 CURVE SMOOTH",
"77 867 OFFCURVE",
"73 872 OFFCURVE",
"73 881 CURVE SMOOTH",
"73 890 OFFCURVE",
"77 896 OFFCURVE",
"87 897 CURVE",
"132 901 OFFCURVE",
"169 913 OFFCURVE",
"199 933 CURVE",
"166 944 OFFCURVE",
"137 944 OFFCURVE",
"110 932 CURVE",
"101 928 OFFCURVE",
"95 930 OFFCURVE",
"89 938 CURVE SMOOTH",
"83 946 OFFCURVE",
"83 954 OFFCURVE",
"89 961 CURVE SMOOTH",
"106 982 OFFCURVE",
"122 998 OFFCURVE",
"137 1010 CURVE SMOOTH",
"152 1022 OFFCURVE",
"174 1025 OFFCURVE",
"201 1018 CURVE SMOOTH",
"262 1002 LINE SMOOTH"
);
}
);
width = 0;
}
);
unicode = 06E1;
},
{
glyphname = "meemStopabove-ar";
layers = (
{
anchors = (
{
name = _MarkAbove;
position = "{155, 801}";
},
{
name = _TashkilAbove;
position = "{156, 801}";
},
{
name = _TashkilAboveDot;
position = "{156, 801}";
},
{
name = _TashkilTashkilAbove;
position = "{220, 1050}";
},
{
name = _TashkilTashkilAbove2;
position = "{220, 1050}";
}
);
layerId = "037FF2D3-C03F-44B0-90AB-89AFD43EFA27";
paths = (
{
closed = 1;
nodes = (
"115 1067 OFFCURVE",
"103 1067 OFFCURVE",
"90 1058 CURVE SMOOTH",
"77 1049 OFFCURVE",
"69 1044 OFFCURVE",
"65 1045 CURVE",
"58 1047 OFFCURVE",
"58 1057 OFFCURVE",
"65 1077 CURVE SMOOTH",
"72 1097 OFFCURVE",
"83 1113 OFFCURVE",
"98 1125 CURVE SMOOTH",
"113 1137 OFFCURVE",
"134 1136 OFFCURVE",
"160 1121 CURVE",
"179 1110 OFFCURVE",
"194 1094 OFFCURVE",
"205 1074 CURVE SMOOTH",
"209 1067 OFFCURVE",
"209 1059 OFFCURVE",
"208 1052 CURVE SMOOTH",
"203 1019 LINE",
"201 1009 OFFCURVE",
"194 1002 OFFCURVE",
"181 1000 CURVE SMOOTH",
"112 991 OFFCURVE",
"73 976 OFFCURVE",
"65 954 CURVE",
"92 880 OFFCURVE",
"108 825 OFFCURVE",
"110 792 CURVE SMOOTH",
"111 775 OFFCURVE",
"106 766 OFFCURVE",
"96 764 CURVE",
"85 763 OFFCURVE",
"78 770 OFFCURVE",
"74 786 CURVE SMOOTH",
"70 802 OFFCURVE",
"61 828 OFFCURVE",
"48 864 CURVE SMOOTH",
"35 900 OFFCURVE",
"29 932 OFFCURVE",
"31 959 CURVE",
"36 1007 OFFCURVE",
"68 1040 OFFCURVE",
"127 1058 CURVE"
);
}
);
width = 0;
}
);
unicode = 06E2;
},
{
glyphname = "maddalong-ar";
layers = (
{
anchors = (
{
name = _AlefAbove;
position = "{0, 635}";
},
{
name = _MarkAbove;
position = "{0, 781}";
},
{
name = _TashkilAbove;
position = "{0, 810}";
},
{
name = _TashkilTashkilAbove;
position = "{0, 810}";
},
{
name = _TashkilTashkilAbove2;
position = "{0, 810}";
}
);
layerId = "037FF2D3-C03F-44B0-90AB-89AFD43EFA27";
paths = (
{
closed = 1;
nodes = (
"169 910 OFFCURVE",
"178 905 OFFCURVE",
"183 893 CURVE SMOOTH",
"188 881 OFFCURVE",
"184 871 OFFCURVE",
"173 864 CURVE SMOOTH",
"115 826 OFFCURVE",
"23 809 OFFCURVE",
"-105 812 CURVE",
"-117 786 OFFCURVE",
"-130 778 OFFCURVE",
"-142 787 CURVE",
"-178 825 LINE SMOOTH",
"-185 832 OFFCURVE",
"-186 841 OFFCURVE",
"-180 851 CURVE SMOOTH",
"-174 861 OFFCURVE",
"-165 873 OFFCURVE",
"-153 887 CURVE SMOOTH",
"-146 894 OFFCURVE",
"-137 896 OFFCURVE",
"-125 894 CURVE SMOOTH",
"-31 879 OFFCURVE",
"62 883 OFFCURVE",
"155 906 CURVE SMOOTH"
);
}
);
width = 0;
}
);
unicode = 06E4;
},
{
glyphname = "wawSmall-ar";
layers = (
{
anchors = (
{
name = TashkilAbove;
position = "{195, 417}";
}
);
layerId = "037FF2D3-C03F-44B0-90AB-89AFD43EFA27";
paths = (
{
closed = 1;
nodes = (
"242 183 OFFCURVE",
"233 193 OFFCURVE",
"224 195 CURVE SMOOTH",
"216 197 OFFCURVE",
"210 195 OFFCURVE",
"206 189 CURVE SMOOTH",
"203 184 OFFCURVE",
"203 179 OFFCURVE",
"209 174 CURVE SMOOTH",
"216 168 OFFCURVE",
"229 166 OFFCURVE",
"249 166 CURVE"
);
},
{
closed = 1;
nodes = (
"227 94 OFFCURVE",
"213 95 OFFCURVE",
"202 98 CURVE SMOOTH",
"168 106 OFFCURVE",
"157 133 OFFCURVE",
"168 180 CURVE SMOOTH",
"174 204 OFFCURVE",
"185 227 OFFCURVE",
"202 248 CURVE",
"211 259 OFFCURVE",
"222 265 OFFCURVE",
"235 265 CURVE SMOOTH",
"248 265 OFFCURVE",
"260 259 OFFCURVE",
"271 246 CURVE SMOOTH",
"298 212 OFFCURVE",
"304 162 OFFCURVE",
"290 96 CURVE SMOOTH",
"281 53 OFFCURVE",
"261 17 OFFCURVE",
"232 -10 CURVE",
"213 -27 OFFCURVE",
"194 -37 OFFCURVE",
"175 -41 CURVE SMOOTH",
"129 -49 OFFCURVE",
"88 -42 OFFCURVE",
"51 -21 CURVE SMOOTH",
"37 -13 OFFCURVE",
"33 -5 OFFCURVE",
"38 2 CURVE SMOOTH",
"43 9 OFFCURVE",
"51 12 OFFCURVE",
"63 12 CURVE SMOOTH",
"99 11 OFFCURVE",
"134 18 OFFCURVE",
"168 32 CURVE SMOOTH",
"202 46 OFFCURVE",
"227 67 OFFCURVE",
"244 94 CURVE"
);
}
);
width = 333;
}
);
unicode = 06E5;
},
{
glyphname = "yehSmall-ar";
layers = (
{
anchors = (
{
name = TashkilAbove;
position = "{205, 417}";
}
);
layerId = "037FF2D3-C03F-44B0-90AB-89AFD43EFA27";
paths = (
{
closed = 1;
nodes = (
"199 251 OFFCURVE",
"216 266 OFFCURVE",
"236 266 CURVE",
"262 265 OFFCURVE",
"278 251 OFFCURVE",
"286 221 CURVE SMOOTH",
"291 201 OFFCURVE",
"293 177 OFFCURVE",
"292 148 CURVE",
"291 135 OFFCURVE",
"285 127 OFFCURVE",
"276 127 CURVE",
"267 127 OFFCURVE",
"261 134 OFFCURVE",
"259 146 CURVE",
"255 176 OFFCURVE",
"245 191 OFFCURVE",
"230 191 CURVE",
"219 191 OFFCURVE",
"207 179 OFFCURVE",
"195 156 CURVE SMOOTH",
"176 121 OFFCURVE",
"139 89 OFFCURVE",
"84 62 CURVE",
"157 49 OFFCURVE",
"243 51 OFFCURVE",
"341 69 CURVE SMOOTH",
"362 73 OFFCURVE",
"372 70 OFFCURVE",
"373 60 CURVE SMOOTH",
"374 53 OFFCURVE",
"371 47 OFFCURVE",
"365 42 CURVE SMOOTH",
"359 37 OFFCURVE",
"348 30 OFFCURVE",
"334 19 CURVE SMOOTH",
"320 8 OFFCURVE",
"306 1 OFFCURVE",
"293 -1 CURVE SMOOTH",
"256 -7 OFFCURVE",
"215 -10 OFFCURVE",
"172 -9 CURVE SMOOTH",
"129 -8 OFFCURVE",
"102 -7 OFFCURVE",
"90 -3 CURVE SMOOTH",
"78 1 OFFCURVE",
"70 4 OFFCURVE",
"65 6 CURVE SMOOTH",
"38 20 OFFCURVE",
"33 42 OFFCURVE",
"48 71 CURVE SMOOTH",
"63 100 OFFCURVE",
"80 119 OFFCURVE",
"96 128 CURVE SMOOTH",
"140 154 OFFCURVE",
"170 186 OFFCURVE",
"186 222 CURVE SMOOTH"
);
}
);
width = 407;
}
);
unicode = 06E6;
},
{
glyphname = "noonabove-ar";
layers = (
{
anchors = (
{
name = TashkilTashkilAbove;
position = "{127, 1249}";
},
{
name = _MarkAbove;
position = "{141, 801}";
},
{
name = _NoonAbove;
position = "{142, 801}";
}
);
layerId = "037FF2D3-C03F-44B0-90AB-89AFD43EFA27";
paths = (
{
closed = 1;
nodes = (
"127 1214 OFFCURVE",
"131 1216 OFFCURVE",
"136 1214 CURVE SMOOTH",
"155 1207 OFFCURVE",
"169 1198 OFFCURVE",
"180 1188 CURVE",
"184 1183 OFFCURVE",
"185 1179 OFFCURVE",
"182 1174 CURVE SMOOTH",
"154 1130 LINE SMOOTH",
"150 1124 OFFCURVE",
"146 1123 OFFCURVE",
"141 1127 CURVE SMOOTH",
"136 1131 OFFCURVE",
"122 1140 OFFCURVE",
"98 1154 CURVE SMOOTH",
"93 1157 OFFCURVE",
"91 1161 OFFCURVE",
"94 1167 CURVE",
"123 1210 LINE"
);
},
{
closed = 1;
nodes = (
"257 1096 OFFCURVE",
"268 1065 OFFCURVE",
"277 1029 CURVE SMOOTH",
"286 993 OFFCURVE",
"287 961 OFFCURVE",
"283 934 CURVE SMOOTH",
"279 907 OFFCURVE",
"273 887 OFFCURVE",
"264 873 CURVE SMOOTH",
"240 836 OFFCURVE",
"199 815 OFFCURVE",
"141 809 CURVE",
"99 805 OFFCURVE",
"65 813 OFFCURVE",
"43 834 CURVE",
"21 855 OFFCURVE",
"11 885 OFFCURVE",
"13 921 CURVE SMOOTH",
"15 957 OFFCURVE",
"28 991 OFFCURVE",
"50 1022 CURVE SMOOTH",
"56 1030 OFFCURVE",
"61 1032 OFFCURVE",
"67 1027 CURVE SMOOTH",
"74 1022 OFFCURVE",
"75 1015 OFFCURVE",
"70 1006 CURVE SMOOTH",
"48 968 OFFCURVE",
"43 938 OFFCURVE",
"56 916 CURVE",
"70 894 OFFCURVE",
"99 883 OFFCURVE",
"143 883 CURVE SMOOTH",
"187 883 OFFCURVE",
"223 898 OFFCURVE",
"252 929 CURVE",
"252 930 LINE SMOOTH",
"252 947 OFFCURVE",
"247 971 OFFCURVE",
"236 1000 CURVE SMOOTH",
"225 1029 OFFCURVE",
"216 1051 OFFCURVE",
"207 1064 CURVE",
"203 1070 OFFCURVE",
"202 1076 OFFCURVE",
"204 1082 CURVE SMOOTH",
"221 1123 LINE SMOOTH",
"222 1126 OFFCURVE",
"224 1129 OFFCURVE",
"226 1130 CURVE SMOOTH",
"232 1134 OFFCURVE",
"238 1132 OFFCURVE",
"243 1123 CURVE SMOOTH",
"243 1122 LINE SMOOTH"
);
}
);
width = 0;
}
);
unicode = 06E8;
},
{
glyphname = "sajdah-ar";
layers = (
{
layerId = "037FF2D3-C03F-44B0-90AB-89AFD43EFA27";
paths = (
{
closed = 1;
nodes = (
"420 426 OFFCURVE",
"407 416 OFFCURVE",
"400 387 CURVE",
"371 260 LINE SMOOTH",
"370 256 OFFCURVE",
"370 254 OFFCURVE",
"372 253 CURVE SMOOTH",
"374 252 OFFCURVE",
"376 254 OFFCURVE",
"378 257 CURVE SMOOTH",
"447 367 LINE",
"463 393 OFFCURVE",
"460 410 OFFCURVE",
"440 418 CURVE SMOOTH"
);
},
{
closed = 1;
nodes = (
"596 82 OFFCURVE",
"586 95 OFFCURVE",
"557 102 CURVE",
"430 131 LINE SMOOTH",
"426 132 OFFCURVE",
"424 132 OFFCURVE",
"423 130 CURVE SMOOTH",
"422 128 OFFCURVE",
"424 126 OFFCURVE",
"427 124 CURVE SMOOTH",
"537 55 LINE",
"563 39 OFFCURVE",
"580 42 OFFCURVE",
"588 62 CURVE SMOOTH"
);
},
{
closed = 1;
nodes = (
"252 -94 OFFCURVE",
"265 -84 OFFCURVE",
"272 -55 CURVE SMOOTH",
"301 72 LINE SMOOTH",
"302 76 OFFCURVE",
"302 78 OFFCURVE",
"300 79 CURVE SMOOTH",
"298 80 OFFCURVE",
"296 78 OFFCURVE",
"294 75 CURVE SMOOTH",
"226 -36 LINE SMOOTH",
"210 -61 OFFCURVE",
"212 -78 OFFCURVE",
"232 -86 CURVE SMOOTH"
);
},
{
closed = 1;
nodes = (
"76 250 OFFCURVE",
"86 237 OFFCURVE",
"115 230 CURVE SMOOTH",
"242 201 LINE SMOOTH",
"246 200 OFFCURVE",
"248 200 OFFCURVE",
"249 202 CURVE SMOOTH",
"250 204 OFFCURVE",
"248 206 OFFCURVE",
"245 208 CURVE SMOOTH",
"134 276 LINE SMOOTH",
"109 292 OFFCURVE",
"92 290 OFFCURVE",
"84 270 CURVE SMOOTH"
);
},
{
closed = 1;
nodes = (
"586 237 OFFCURVE",
"596 250 OFFCURVE",
"588 270 CURVE SMOOTH",
"580 290 OFFCURVE",
"563 292 OFFCURVE",
"538 276 CURVE SMOOTH",
"427 208 LINE SMOOTH",
"424 206 OFFCURVE",
"422 204 OFFCURVE",
"423 202 CURVE SMOOTH",
"424 200 OFFCURVE",
"426 200 OFFCURVE",
"430 201 CURVE SMOOTH",
"557 230 LINE SMOOTH"
);
},
{
closed = 1;
nodes = (
"407 -84 OFFCURVE",
"420 -94 OFFCURVE",
"440 -86 CURVE SMOOTH",
"460 -78 OFFCURVE",
"462 -61 OFFCURVE",
"446 -36 CURVE SMOOTH",
"378 75 LINE SMOOTH",
"376 78 OFFCURVE",
"374 80 OFFCURVE",
"372 79 CURVE SMOOTH",
"370 78 OFFCURVE",
"370 76 OFFCURVE",
"371 72 CURVE SMOOTH",
"400 -55 LINE SMOOTH"
);
},
{
closed = 1;
nodes = (
"86 95 OFFCURVE",
"76 81 OFFCURVE",
"84 61 CURVE SMOOTH",
"92 41 OFFCURVE",
"110 39 OFFCURVE",
"135 55 CURVE SMOOTH",
"245 124 LINE SMOOTH",
"248 126 OFFCURVE",
"250 128 OFFCURVE",
"249 130 CURVE SMOOTH",
"248 132 OFFCURVE",
"246 132 OFFCURVE",
"242 131 CURVE SMOOTH",
"115 102 LINE SMOOTH"
);
},
{
closed = 1;
nodes = (
"264 416 OFFCURVE",
"251 426 OFFCURVE",
"231 418 CURVE SMOOTH",
"211 410 OFFCURVE",
"209 392 OFFCURVE",
"225 367 CURVE SMOOTH",
"294 257 LINE SMOOTH",
"296 254 OFFCURVE",
"298 252 OFFCURVE",
"300 253 CURVE SMOOTH",
"302 254 OFFCURVE",
"302 256 OFFCURVE",
"301 260 CURVE SMOOTH",
"271 387 LINE SMOOTH"
);
},
{
closed = 1;
nodes = (
"514 374 OFFCURVE",
"497 369 OFFCURVE",
"480 345 CURVE SMOOTH",
"404 240 LINE SMOOTH",
"402 237 OFFCURVE",
"402 234 OFFCURVE",
"403 233 CURVE SMOOTH",
"404 232 OFFCURVE",
"407 232 OFFCURVE",
"410 234 CURVE SMOOTH",
"516 310 LINE SMOOTH",
"540 328 OFFCURVE",
"544 344 OFFCURVE",
"529 359 CURVE SMOOTH"
);
},
{
closed = 1;
nodes = (
"544 -12 OFFCURVE",
"539 5 OFFCURVE",
"515 22 CURVE SMOOTH",
"410 98 LINE SMOOTH",
"407 100 OFFCURVE",
"404 100 OFFCURVE",
"403 99 CURVE SMOOTH",
"402 98 OFFCURVE",
"402 95 OFFCURVE",
"404 92 CURVE SMOOTH",
"479 -14 LINE SMOOTH",
"497 -38 OFFCURVE",
"514 -42 OFFCURVE",
"529 -27 CURVE SMOOTH"
);
},
{
closed = 1;
nodes = (
"158 -42 OFFCURVE",
"174 -38 OFFCURVE",
"192 -14 CURVE SMOOTH",
"268 92 LINE SMOOTH",
"270 95 OFFCURVE",
"270 98 OFFCURVE",
"269 99 CURVE SMOOTH",
"268 100 OFFCURVE",
"265 100 OFFCURVE",
"262 98 CURVE SMOOTH",
"157 22 LINE SMOOTH",
"133 5 OFFCURVE",
"128 -12 OFFCURVE",
"143 -27 CURVE SMOOTH"
);
},
{
closed = 1;
nodes = (
"128 344 OFFCURVE",
"132 328 OFFCURVE",
"156 310 CURVE SMOOTH",
"262 234 LINE SMOOTH",
"265 232 OFFCURVE",
"268 232 OFFCURVE",
"269 233 CURVE SMOOTH",
"270 234 OFFCURVE",
"270 237 OFFCURVE",
"268 240 CURVE SMOOTH",
"192 345 LINE SMOOTH",
"175 369 OFFCURVE",
"158 374 OFFCURVE",
"143 359 CURVE SMOOTH"
);
},
{
closed = 1;
nodes = (
"593 136 OFFCURVE",
"608 144 OFFCURVE",
"608 166 CURVE SMOOTH",
"608 188 OFFCURVE",
"593 196 OFFCURVE",
"564 191 CURVE SMOOTH",
"436 170 LINE SMOOTH",
"432 169 OFFCURVE",
"430 168 OFFCURVE",
"430 166 CURVE SMOOTH",
"430 164 OFFCURVE",
"432 163 OFFCURVE",
"436 162 CURVE SMOOTH",
"564 141 LINE SMOOTH"
);
},
{
closed = 1;
nodes = (
"306 -91 OFFCURVE",
"314 -106 OFFCURVE",
"336 -106 CURVE SMOOTH",
"358 -106 OFFCURVE",
"366 -91 OFFCURVE",
"361 -62 CURVE SMOOTH",
"340 66 LINE SMOOTH",
"339 70 OFFCURVE",
"338 72 OFFCURVE",
"336 72 CURVE SMOOTH",
"334 72 OFFCURVE",
"333 70 OFFCURVE",
"332 66 CURVE SMOOTH",
"311 -62 LINE SMOOTH"
);
},
{
closed = 1;
nodes = (
"78 196 OFFCURVE",
"63 188 OFFCURVE",
"63 166 CURVE SMOOTH",
"63 144 OFFCURVE",
"78 136 OFFCURVE",
"107 141 CURVE SMOOTH",
"236 162 LINE SMOOTH",
"240 163 OFFCURVE",
"242 164 OFFCURVE",
"242 166 CURVE SMOOTH",
"242 168 OFFCURVE",
"240 169 OFFCURVE",
"236 170 CURVE SMOOTH",
"107 191 LINE SMOOTH"
);
},
{
closed = 1;
nodes = (
"366 424 OFFCURVE",
"358 438 OFFCURVE",
"336 438 CURVE SMOOTH",
"314 438 OFFCURVE",
"306 424 OFFCURVE",
"311 395 CURVE SMOOTH",
"332 266 LINE SMOOTH",
"333 262 OFFCURVE",
"334 260 OFFCURVE",
"336 260 CURVE SMOOTH",
"338 260 OFFCURVE",
"339 262 OFFCURVE",
"340 266 CURVE SMOOTH",
"361 395 LINE SMOOTH"
);
},
{
closed = 1;
nodes = (
"342 510 OFFCURVE",
"353 539 OFFCURVE",
"368 565 CURVE",
"354 578 OFFCURVE",
"343 593 OFFCURVE",
"336 611 CURVE",
"329 593 OFFCURVE",
"318 578 OFFCURVE",
"304 565 CURVE",
"320 539 OFFCURVE",
"330 510 OFFCURVE",
"336 477 CURVE"
);
},
{
closed = 1;
nodes = (
"314 741 OFFCURVE",
"321 749 OFFCURVE",
"335 749 CURVE SMOOTH",
"349 749 OFFCURVE",
"356 741 OFFCURVE",
"356 724 CURVE SMOOTH",
"356 686 OFFCURVE",
"358 659 OFFCURVE",
"361 643 CURVE SMOOTH",
"364 627 OFFCURVE",
"370 613 OFFCURVE",
"382 599 CURVE",
"414 634 OFFCURVE",
"448 650 OFFCURVE",
"483 650 CURVE",
"498 650 OFFCURVE",
"512 646 OFFCURVE",
"525 637 CURVE SMOOTH",
"538 628 OFFCURVE",
"545 616 OFFCURVE",
"545 601 CURVE SMOOTH",
"545 586 OFFCURVE",
"543 573 OFFCURVE",
"537 564 CURVE SMOOTH",
"526 546 OFFCURVE",
"509 537 OFFCURVE",
"488 537 CURVE",
"478 537 OFFCURVE",
"467 541 OFFCURVE",
"454 549 CURVE SMOOTH",
"441 557 OFFCURVE",
"434 570 OFFCURVE",
"432 588 CURVE",
"431 587 OFFCURVE",
"429 586 OFFCURVE",
"428 585 CURVE SMOOTH",
"394 556 OFFCURVE",
"374 514 OFFCURVE",
"367 458 CURVE",
"377 451 OFFCURVE",
"384 440 OFFCURVE",
"387 425 CURVE",
"404 450 OFFCURVE",
"428 456 OFFCURVE",
"457 441 CURVE",
"478 429 OFFCURVE",
"486 411 OFFCURVE",
"482 386 CURVE",
"508 403 OFFCURVE",
"532 398 OFFCURVE",
"553 373 CURVE",
"568 354 OFFCURVE",
"569 333 OFFCURVE",
"556 312 CURVE",
"587 318 OFFCURVE",
"606 306 OFFCURVE",
"616 274 CURVE",
"623 251 OFFCURVE",
"616 231 OFFCURVE",
"595 217 CURVE",
"623 211 OFFCURVE",
"636 194 OFFCURVE",
"636 166 CURVE SMOOTH",
"636 138 OFFCURVE",
"623 120 OFFCURVE",
"596 114 CURVE",
"621 97 OFFCURVE",
"625 74 OFFCURVE",
"610 45 CURVE",
"598 24 OFFCURVE",
"580 16 OFFCURVE",
"555 20 CURVE",
"572 -6 OFFCURVE",
"568 -31 OFFCURVE",
"543 -52 CURVE",
"524 -67 OFFCURVE",
"503 -67 OFFCURVE",
"482 -53 CURVE",
"488 -84 OFFCURVE",
"476 -104 OFFCURVE",
"444 -114 CURVE",
"421 -121 OFFCURVE",
"402 -114 OFFCURVE",
"387 -93 CURVE",
"383 -108 OFFCURVE",
"377 -119 OFFCURVE",
"367 -126 CURVE",
"375 -186 OFFCURVE",
"397 -229 OFFCURVE",
"432 -256 CURVE",
"434 -237 OFFCURVE",
"441 -225 OFFCURVE",
"454 -217 CURVE SMOOTH",
"467 -209 OFFCURVE",
"478 -205 OFFCURVE",
"488 -205 CURVE SMOOTH",
"509 -205 OFFCURVE",
"526 -214 OFFCURVE",
"537 -232 CURVE",
"543 -241 OFFCURVE",
"545 -254 OFFCURVE",
"545 -269 CURVE SMOOTH",
"545 -284 OFFCURVE",
"538 -296 OFFCURVE",
"525 -305 CURVE SMOOTH",
"512 -314 OFFCURVE",
"497 -318 OFFCURVE",
"483 -318 CURVE SMOOTH",
"447 -318 OFFCURVE",
"414 -301 OFFCURVE",
"382 -267 CURVE",
"370 -281 OFFCURVE",
"364 -296 OFFCURVE",
"361 -312 CURVE SMOOTH",
"358 -328 OFFCURVE",
"356 -355 OFFCURVE",
"356 -392 CURVE SMOOTH",
"356 -409 OFFCURVE",
"350 -417 OFFCURVE",
"338 -417 CURVE SMOOTH",
"322 -417 OFFCURVE",
"314 -409 OFFCURVE",
"314 -392 CURVE SMOOTH",
"314 -354 OFFCURVE",
"314 -327 OFFCURVE",
"311 -311 CURVE SMOOTH",
"308 -295 OFFCURVE",
"301 -281 OFFCURVE",
"289 -267 CURVE",
"257 -302 OFFCURVE",
"223 -318 OFFCURVE",
"188 -318 CURVE",
"173 -318 OFFCURVE",
"159 -314 OFFCURVE",
"146 -305 CURVE SMOOTH",
"133 -296 OFFCURVE",
"126 -284 OFFCURVE",
"126 -269 CURVE SMOOTH",
"126 -254 OFFCURVE",
"129 -241 OFFCURVE",
"135 -232 CURVE SMOOTH",
"146 -214 OFFCURVE",
"162 -205 OFFCURVE",
"183 -205 CURVE",
"193 -205 OFFCURVE",
"205 -209 OFFCURVE",
"218 -217 CURVE SMOOTH",
"231 -225 OFFCURVE",
"237 -238 OFFCURVE",
"239 -256 CURVE",
"240 -255 OFFCURVE",
"242 -254 OFFCURVE",
"243 -253 CURVE SMOOTH",
"277 -224 OFFCURVE",
"298 -182 OFFCURVE",
"305 -126 CURVE",
"295 -119 OFFCURVE",
"287 -109 OFFCURVE",
"284 -95 CURVE",
"267 -119 OFFCURVE",
"244 -124 OFFCURVE",
"215 -109 CURVE",
"194 -97 OFFCURVE",
"185 -79 OFFCURVE",
"189 -54 CURVE",
"164 -71 OFFCURVE",
"140 -67 OFFCURVE",
"119 -42 CURVE SMOOTH",
"103 -23 OFFCURVE",
"102 -2 OFFCURVE",
"115 19 CURVE",
"85 14 OFFCURVE",
"66 27 OFFCURVE",
"56 58 CURVE",
"49 81 OFFCURVE",
"56 100 OFFCURVE",
"77 114 CURVE",
"49 120 OFFCURVE",
"35 138 OFFCURVE",
"35 166 CURVE SMOOTH",
"35 194 OFFCURVE",
"49 211 OFFCURVE",
"77 217 CURVE",
"51 235 OFFCURVE",
"46 258 OFFCURVE",
"62 288 CURVE",
"74 309 OFFCURVE",
"92 316 OFFCURVE",
"117 312 CURVE",
"100 338 OFFCURVE",
"104 362 OFFCURVE",
"129 383 CURVE",
"148 398 OFFCURVE",
"167 399 OFFCURVE",
"188 386 CURVE",
"183 416 OFFCURVE",
"197 436 OFFCURVE",
"228 446 CURVE",
"251 453 OFFCURVE",
"269 446 OFFCURVE",
"284 425 CURVE",
"288 440 OFFCURVE",
"295 451 OFFCURVE",
"305 458 CURVE",
"297 518 OFFCURVE",
"274 561 OFFCURVE",
"239 588 CURVE",
"237 569 OFFCURVE",
"230 557 OFFCURVE",
"217 549 CURVE SMOOTH",
"204 541 OFFCURVE",
"193 537 OFFCURVE",
"183 537 CURVE SMOOTH",
"162 537 OFFCURVE",
"146 546 OFFCURVE",
"135 564 CURVE",
"129 573 OFFCURVE",
"127 586 OFFCURVE",
"127 601 CURVE SMOOTH",
"127 616 OFFCURVE",
"134 628 OFFCURVE",
"147 637 CURVE SMOOTH",
"160 646 OFFCURVE",
"174 650 OFFCURVE",
"188 650 CURVE SMOOTH",
"224 650 OFFCURVE",
"257 633 OFFCURVE",
"289 599 CURVE",
"301 613 OFFCURVE",
"308 628 OFFCURVE",
"311 644 CURVE SMOOTH",
"314 660 OFFCURVE",
"314 687 OFFCURVE",
"314 724 CURVE SMOOTH"
);
},
{
closed = 1;
nodes = (
"330 -178 OFFCURVE",
"320 -207 OFFCURVE",
"304 -233 CURVE",
"318 -246 OFFCURVE",
"329 -261 OFFCURVE",
"336 -279 CURVE",
"343 -261 OFFCURVE",
"354 -246 OFFCURVE",
"368 -233 CURVE",
"353 -207 OFFCURVE",
"342 -178 OFFCURVE",
"336 -145 CURVE"
);
}
);
width = 671;
}
);
unicode = 06E9;
},
{
glyphname = "rhombusStopbelow-ar";
layers = (
{
anchors = (
{
name = _MarkBelow;
position = "{254, -371}";
}
);
layerId = "037FF2D3-C03F-44B0-90AB-89AFD43EFA27";
paths = (
{
closed = 1;
nodes = (
"329 -624 LINE",
"254 -497 LINE",
"180 -624 LINE",
"254 -752 LINE"
);
},
{
closed = 1;
nodes = (
"125 -628 LINE SMOOTH",
"124 -625 OFFCURVE",
"124 -623 OFFCURVE",
"125 -620 CURVE SMOOTH",
"248 -411 LINE",
"252 -405 OFFCURVE",
"257 -405 OFFCURVE",
"261 -411 CURVE",
"384 -620 LINE SMOOTH",
"385 -623 OFFCURVE",
"385 -625 OFFCURVE",
"384 -628 CURVE SMOOTH",
"261 -839 LINE SMOOTH",
"257 -846 OFFCURVE",
"253 -846 OFFCURVE",
"248 -839 CURVE"
);
}
);
width = 0;
}
);
unicode = 06EA;
},
{
glyphname = "dotStopabove-ar";
layers = (
{
anchors = (
{
name = TashkilTashkilAbove;
position = "{93, 1060}";
},
{
name = _MarkAbove;
position = "{111, 801}";
},
{
name = _TashkilAbove;
position = "{109, 801}";
},
{
name = _TashkilTashkilAbove;
position = "{111, 801}";
}
);
layerId = "037FF2D3-C03F-44B0-90AB-89AFD43EFA27";
paths = (
{
closed = 1;
nodes = (
"49 1019 OFFCURVE",
"77 1030 OFFCURVE",
"110 1030 CURVE SMOOTH",
"143 1030 OFFCURVE",
"170 1018 OFFCURVE",
"192 995 CURVE SMOOTH",
"214 972 OFFCURVE",
"226 945 OFFCURVE",
"226 913 CURVE SMOOTH",
"226 881 OFFCURVE",
"214 853 OFFCURVE",
"192 830 CURVE",
"169 807 OFFCURVE",
"141 796 OFFCURVE",
"109 796 CURVE SMOOTH",
"77 796 OFFCURVE",
"49 808 OFFCURVE",
"26 830 CURVE",
"3 853 OFFCURVE",
"-8 881 OFFCURVE",
"-8 913 CURVE SMOOTH",
"-8 945 OFFCURVE",
"3 973 OFFCURVE",
"26 996 CURVE"
);
}
);
width = 0;
}
);
unicode = 06EC;
},
{
glyphname = "fourFarsi-ar";
layers = (
{
layerId = "037FF2D3-C03F-44B0-90AB-89AFD43EFA27";
paths = (
{
closed = 1;
nodes = (
"226 453 OFFCURVE",
"209 485 OFFCURVE",
"188 521 CURVE SMOOTH",
"156 576 OFFCURVE",
"134 578 OFFCURVE",
"122 527 CURVE SMOOTH",
"97 423 LINE SMOOTH",
"93 406 OFFCURVE",
"98 386 OFFCURVE",
"112 364 CURVE SMOOTH",
"194 237 OFFCURVE",
"241 91 OFFCURVE",
"252 -73 CURVE SMOOTH",
"253 -83 OFFCURVE",
"256 -91 OFFCURVE",
"262 -98 CURVE SMOOTH",
"268 -105 OFFCURVE",
"276 -106 OFFCURVE",
"286 -100 CURVE SMOOTH",
"296 -94 OFFCURVE",
"302 -85 OFFCURVE",
"304 -76 CURVE SMOOTH",
"323 13 OFFCURVE",
"320 116 OFFCURVE",
"298 233 CURVE",
"322 226 OFFCURVE",
"349 224 OFFCURVE",
"380 226 CURVE SMOOTH",
"447 231 OFFCURVE",
"499 262 OFFCURVE",
"535 319 CURVE SMOOTH",
"548 339 OFFCURVE",
"548 354 OFFCURVE",
"537 365 CURVE SMOOTH",
"526 376 OFFCURVE",
"511 373 OFFCURVE",
"492 357 CURVE SMOOTH",
"473 341 OFFCURVE",
"437 334 OFFCURVE",
"385 337 CURVE SMOOTH",
"351 339 OFFCURVE",
"316 354 OFFCURVE",
"281 383 CURVE",
"301 440 OFFCURVE",
"347 468 OFFCURVE",
"420 468 CURVE SMOOTH",
"444 468 OFFCURVE",
"476 453 OFFCURVE",
"516 424 CURVE SMOOTH",
"530 414 OFFCURVE",
"542 413 OFFCURVE",
"553 424 CURVE SMOOTH",
"561 432 OFFCURVE",
"559 447 OFFCURVE",
"548 468 CURVE SMOOTH",
"510 539 OFFCURVE",
"467 573 OFFCURVE",
"418 570 CURVE SMOOTH",
"339 565 OFFCURVE",
"279 516 OFFCURVE",
"237 424 CURVE"
);
}
);
width = 585;
}
);
unicode = 06F4;
},
{
glyphname = "fiveFarsi-ar";
layers = (
{
layerId = "037FF2D3-C03F-44B0-90AB-89AFD43EFA27";
paths = (
{
closed = 1;
nodes = (
"342 438 OFFCURVE",
"406 362 OFFCURVE",
"433 307 CURVE SMOOTH",
"471 230 OFFCURVE",
"487 169 OFFCURVE",
"482 124 CURVE SMOOTH",
"468 8 OFFCURVE",
"434 -56 OFFCURVE",
"378 -66 CURVE SMOOTH",
"340 -73 OFFCURVE",
"311 -65 OFFCURVE",
"291 -44 CURVE",
"260 -76 OFFCURVE",
"225 -90 OFFCURVE",
"187 -87 CURVE SMOOTH",
"116 -81 OFFCURVE",
"86 -22 OFFCURVE",
"97 92 CURVE SMOOTH",
"104 167 OFFCURVE",
"144 253 OFFCURVE",
"215 350 CURVE",
"211 353 OFFCURVE",
"205 356 OFFCURVE",
"198 361 CURVE SMOOTH",
"186 368 OFFCURVE",
"181 381 OFFCURVE",
"184 401 CURVE SMOOTH",
"201 522 LINE SMOOTH",
"202 530 OFFCURVE",
"204 536 OFFCURVE",
"208 540 CURVE SMOOTH",
"217 550 OFFCURVE",
"229 548 OFFCURVE",
"243 535 CURVE SMOOTH"
);
},
{
closed = 1;
nodes = (
"211 274 OFFCURVE",
"186 231 OFFCURVE",
"172 196 CURVE SMOOTH",
"148 134 OFFCURVE",
"146 94 OFFCURVE",
"166 75 CURVE SMOOTH",
"204 39 OFFCURVE",
"252 47 OFFCURVE",
"309 100 CURVE SMOOTH",
"319 110 OFFCURVE",
"329 114 OFFCURVE",
"336 111 CURVE SMOOTH",
"343 108 OFFCURVE",
"347 101 OFFCURVE",
"349 88 CURVE",
"347 84 OFFCURVE",
"345 81 OFFCURVE",
"345 80 CURVE",
"358 75 OFFCURVE",
"369 74 OFFCURVE",
"379 75 CURVE SMOOTH",
"402 77 OFFCURVE",
"419 89 OFFCURVE",
"427 111 CURVE SMOOTH",
"429 117 OFFCURVE",
"428 125 OFFCURVE",
"424 134 CURVE SMOOTH",
"389 211 OFFCURVE",
"331 275 OFFCURVE",
"247 325 CURVE"
);
}
);
width = 585;
}
);
unicode = 06F5;
},
{
glyphname = "sixFarsi-ar";
layers = (
{
layerId = "037FF2D3-C03F-44B0-90AB-89AFD43EFA27";
paths = (
{
closed = 1;
nodes = (
"169 229 OFFCURVE",
"121 267 OFFCURVE",
"104 310 CURVE SMOOTH",
"97 326 OFFCURVE",
"97 341 OFFCURVE",
"102 357 CURVE SMOOTH",
"116 396 OFFCURVE",
"136 432 OFFCURVE",
"163 464 CURVE SMOOTH",
"226 539 OFFCURVE",
"281 576 OFFCURVE",
"330 576 CURVE SMOOTH",
"387 576 OFFCURVE",
"429 537 OFFCURVE",
"458 460 CURVE SMOOTH",
"463 445 OFFCURVE",
"461 435 OFFCURVE",
"451 429 CURVE SMOOTH",
"441 422 OFFCURVE",
"430 425 OFFCURVE",
"421 436 CURVE SMOOTH",
"405 454 OFFCURVE",
"373 463 OFFCURVE",
"326 464 CURVE SMOOTH",
"258 465 OFFCURVE",
"204 444 OFFCURVE",
"164 399 CURVE",
"203 352 OFFCURVE",
"259 318 OFFCURVE",
"334 297 CURVE SMOOTH",
"347 293 OFFCURVE",
"358 295 OFFCURVE",
"366 302 CURVE SMOOTH",
"415 342 OFFCURVE",
"457 368 OFFCURVE",
"491 380 CURVE SMOOTH",
"530 394 OFFCURVE",
"545 386 OFFCURVE",
"534 354 CURVE SMOOTH",
"504 262 LINE SMOOTH",
"496 236 OFFCURVE",
"480 218 OFFCURVE",
"458 210 CURVE SMOOTH",
"402 188 OFFCURVE",
"342 151 OFFCURVE",
"276 98 CURVE SMOOTH",
"210 45 OFFCURVE",
"158 -14 OFFCURVE",
"117 -77 CURVE SMOOTH",
"103 -99 OFFCURVE",
"89 -107 OFFCURVE",
"76 -100 CURVE SMOOTH",
"63 -93 OFFCURVE",
"63 -77 OFFCURVE",
"74 -51 CURVE SMOOTH",
"109 30 OFFCURVE",
"167 112 OFFCURVE",
"247 196 CURVE"
);
}
);
width = 585;
}
);
unicode = 06F6;
},
{
glyphname = uni0890;
layers = (
{
layerId = "037FF2D3-C03F-44B0-90AB-89AFD43EFA27";
paths = (
{
closed = 1;
nodes = (
"630.754 1061.754 OFFCURVE",
"638.126 995.533 OFFCURVE",
"657 947 CURVE",
"989 948 LINE",
"936.585 987.312 OFFCURVE",
"843.392 1061.765 OFFCURVE",
"803 1086 CURVE SMOOTH",
"762.113 1111.378 OFFCURVE",
"695.788 1126.788 OFFCURVE",
"663 1094 CURVE SMOOTH"
);
},
{
closed = 1;
nodes = (
"0 947 LINE",
"620 947 LINE",
"587 1006 OFFCURVE",
"562 1060 OFFCURVE",
"562 1108 CURVE SMOOTH",
"562 1188.956 OFFCURVE",
"605.515 1240.247 OFFCURVE",
"687 1241 CURVE SMOOTH",
"795.293 1242 OFFCURVE",
"871.067 1176.519 OFFCURVE",
"957 1109 CURVE SMOOTH",
"1061.736 1026.707 OFFCURVE",
"1105.913 998.082 OFFCURVE",
"1218 948 CURVE",
"1572 948 LINE",
"1650 831 LINE",
"102 831 LINE"
);
}
);
width = 1650;
}
);
unicode = 0890;
},
{
glyphname = "yehRohingya-ar";
layers = (
{
anchors = (
{
name = TashkilAbove;
position = "{413, 801}";
},
{
name = TashkilBelow;
position = "{354, -327}";
}
);
components = (
{
name = "twodotshorizontalbelow-ar";
transform = "{1, 0, 0, 1, 379, -215}";
}
);
layerId = "037FF2D3-C03F-44B0-90AB-89AFD43EFA27";
paths = (
{
closed = 1;
nodes = (
"394 260 OFFCURVE",
"364 244 OFFCURVE",
"341 213 CURVE",
"368 157 OFFCURVE",
"410 151 OFFCURVE",
"467 193 CURVE",
"467 236 OFFCURVE",
"455 258 OFFCURVE",
"429 259 CURVE SMOOTH"
);
},
{
closed = 1;
nodes = (
"483 394 OFFCURVE",
"490 392 OFFCURVE",
"494 390 CURVE",
"514 378 OFFCURVE",
"525 356 OFFCURVE",
"531 325 CURVE SMOOTH",
"540 271 OFFCURVE",
"534 220 OFFCURVE",
"513 173 CURVE SMOOTH",
"505 156 OFFCURVE",
"496 140 OFFCURVE",
"486 123 CURVE",
"519 112 OFFCURVE",
"547 106 OFFCURVE",
"572 105 CURVE SMOOTH",
"587 104 OFFCURVE",
"596 89 OFFCURVE",
"599 59 CURVE SMOOTH",
"602 28 OFFCURVE",
"600 8 OFFCURVE",
"593 -2 CURVE SMOOTH",
"588 -9 OFFCURVE",
"581 -14 OFFCURVE",
"573 -15 CURVE SMOOTH",
"517 -21 OFFCURVE",
"448 -2 OFFCURVE",
"365 41 CURVE",
"282 -1 OFFCURVE",
"202 -15 OFFCURVE",
"125 -3 CURVE SMOOTH",
"121 -2 OFFCURVE",
"118 -3 OFFCURVE",
"116 -6 CURVE",
"115 -15 OFFCURVE",
"115 -46 OFFCURVE",
"116 -99 CURVE SMOOTH",
"117 -144 OFFCURVE",
"117 -173 OFFCURVE",
"117 -189 CURVE SMOOTH",
"117 -205 OFFCURVE",
"112 -213 OFFCURVE",
"105 -215 CURVE SMOOTH",
"98 -216 OFFCURVE",
"94 -212 OFFCURVE",
"91 -200 CURVE SMOOTH",
"80 -142 OFFCURVE",
"72 -83 OFFCURVE",
"65 -24 CURVE SMOOTH",
"58 35 OFFCURVE",
"56 72 OFFCURVE",
"58 89 CURVE SMOOTH",
"59 110 OFFCURVE",
"72 118 OFFCURVE",
"96 112 CURVE SMOOTH",
"150 99 OFFCURVE",
"212 104 OFFCURVE",
"283 126 CURVE",
"281 155 OFFCURVE",
"285 185 OFFCURVE",
"297 216 CURVE SMOOTH",
"319 274 OFFCURVE",
"358 324 OFFCURVE",
"415 367 CURVE SMOOTH",
"438 385 OFFCURVE",
"459 394 OFFCURVE",
"476 394 CURVE"
);
}
);
width = 571;
}
);
unicode = 08AC;
},
{
glyphname = "fathaCurly-ar";
layers = (
{
anchors = (
{
name = TashkilTashkilAbove;
position = "{145, 955}";
},
{
name = _MarkAbove;
position = "{268, 801}";
},
{
name = _TashkilAbove;
position = "{271, 801}";
},
{
name = _TashkilAboveDot;
position = "{271, 801}";
}
);
layerId = "037FF2D3-C03F-44B0-90AB-89AFD43EFA27";
paths = (
{
closed = 1;
nodes = (
"358 1020 OFFCURVE",
"370 992 OFFCURVE",
"364 967 CURVE",
"358 937 OFFCURVE",
"325 917 OFFCURVE",
"266 907 CURVE SMOOTH",
"232 901 OFFCURVE",
"211 894 OFFCURVE",
"202 883 CURVE",
"190 865 OFFCURVE",
"192 846 OFFCURVE",
"209 824 CURVE SMOOTH",
"214 817 OFFCURVE",
"216 812 OFFCURVE",
"213 809 CURVE SMOOTH",
"210 806 OFFCURVE",
"205 805 OFFCURVE",
"199 805 CURVE SMOOTH",
"193 805 OFFCURVE",
"182 815 OFFCURVE",
"169 834 CURVE SMOOTH",
"142 872 OFFCURVE",
"140 901 OFFCURVE",
"160 923 CURVE",
"171 937 OFFCURVE",
"194 946 OFFCURVE",
"227 952 CURVE SMOOTH",
"260 958 OFFCURVE",
"283 965 OFFCURVE",
"296 973 CURVE SMOOTH",
"315 985 OFFCURVE",
"323 1000 OFFCURVE",
"318 1019 CURVE SMOOTH",
"316 1025 OFFCURVE",
"311 1030 OFFCURVE",
"304 1037 CURVE SMOOTH",
"297 1044 OFFCURVE",
"294 1052 OFFCURVE",
"296 1058 CURVE SMOOTH",
"300 1069 OFFCURVE",
"311 1066 OFFCURVE",
"329 1048 CURVE SMOOTH"
);
}
);
width = 0;
}
);
unicode = 08E4;
},
{
glyphname = "dammaCurly-ar";
layers = (
{
anchors = (
{
name = TashkilTashkilAbove;
position = "{195, 1074}";
},
{
name = _MarkAbove;
position = "{278, 801}";
},
{
name = _TashkilAbove;
position = "{278, 801}";
},
{
name = _TashkilAboveDot;
position = "{278, 801}";
}
);
layerId = "037FF2D3-C03F-44B0-90AB-89AFD43EFA27";
paths = (
{
closed = 1;
nodes = (
"232 1016 OFFCURVE",
"214 1044 OFFCURVE",
"227 1073 CURVE SMOOTH",
"248 1122 OFFCURVE",
"275 1149 OFFCURVE",
"309 1154 CURVE SMOOTH",
"324 1156 OFFCURVE",
"337 1149 OFFCURVE",
"346 1134 CURVE SMOOTH",
"363 1107 OFFCURVE",
"364 1073 OFFCURVE",
"348 1029 CURVE",
"356 1025 OFFCURVE",
"362 1021 OFFCURVE",
"367 1019 CURVE SMOOTH",
"372 1017 OFFCURVE",
"375 1013 OFFCURVE",
"377 1007 CURVE SMOOTH",
"379 1001 OFFCURVE",
"378 996 OFFCURVE",
"375 990 CURVE SMOOTH",
"363 968 LINE SMOOTH",
"356 955 OFFCURVE",
"341 956 OFFCURVE",
"317 969 CURVE",
"304 952 OFFCURVE",
"287 934 OFFCURVE",
"268 917 CURVE SMOOTH",
"232 885 OFFCURVE",
"203 875 OFFCURVE",
"181 889 CURVE SMOOTH",
"155 906 OFFCURVE",
"154 939 OFFCURVE",
"178 990 CURVE SMOOTH",
"184 1003 OFFCURVE",
"192 1007 OFFCURVE",
"200 1002 CURVE SMOOTH",
"204 1000 OFFCURVE",
"207 993 OFFCURVE",
"209 983 CURVE SMOOTH",
"211 973 OFFCURVE",
"214 966 OFFCURVE",
"218 963 CURVE SMOOTH",
"232 950 OFFCURVE",
"252 959 OFFCURVE",
"278 990 CURVE"
);
},
{
closed = 1;
nodes = (
"304 1064 OFFCURVE",
"299 1075 OFFCURVE",
"288 1081 CURVE SMOOTH",
"281 1085 OFFCURVE",
"275 1083 OFFCURVE",
"270 1075 CURVE",
"271 1070 OFFCURVE",
"282 1061 OFFCURVE",
"304 1050 CURVE"
);
}
);
width = 0;
}
);
unicode = 08E5;
},
{
glyphname = "toneonedotabove-ar";
layers = (
{
anchors = (
{
name = _MarkAbove;
position = "{161, 801}";
},
{
name = _TashkilAbove;
position = "{161, 801}";
},
{
name = _TashkilAboveDot;
position = "{161, 801}";
}
);
layerId = "037FF2D3-C03F-44B0-90AB-89AFD43EFA27";
paths = (
{
closed = 1;
nodes = (
"129 938 LINE SMOOTH",
"131 942 OFFCURVE",
"134 944 OFFCURVE",
"137 944 CURVE SMOOTH",
"152 944 OFFCURVE",
"170 934 OFFCURVE",
"192 914 CURVE SMOOTH",
"197 909 OFFCURVE",
"198 904 OFFCURVE",
"195 899 CURVE SMOOTH",
"163 850 LINE SMOOTH",
"159 843 OFFCURVE",
"155 843 OFFCURVE",
"150 847 CURVE SMOOTH",
"140 855 OFFCURVE",
"124 865 OFFCURVE",
"101 876 CURVE SMOOTH",
"95 879 OFFCURVE",
"93 882 OFFCURVE",
"95 887 CURVE SMOOTH"
);
}
);
width = 0;
}
);
unicode = 08EA;
},
{
glyphname = "toneloopabove-ar";
layers = (
{
anchors = (
{
name = _MarkAbove;
position = "{156, 801}";
},
{
name = _TashkilAbove;
position = "{156, 801}";
},
{
name = _TashkilAboveDot;
position = "{156, 801}";
}
);
layerId = "037FF2D3-C03F-44B0-90AB-89AFD43EFA27";
paths = (
{
closed = 1;
nodes = (
"261 891 OFFCURVE",
"267 877 OFFCURVE",
"264 870 CURVE SMOOTH",
"257 855 OFFCURVE",
"248 848 OFFCURVE",
"236 847 CURVE SMOOTH",
"232 847 OFFCURVE",
"227 850 OFFCURVE",
"223 857 CURVE SMOOTH",
"219 864 OFFCURVE",
"214 871 OFFCURVE",
"208 878 CURVE",
"184 862 OFFCURVE",
"162 851 OFFCURVE",
"140 846 CURVE SMOOTH",
"118 841 OFFCURVE",
"101 841 OFFCURVE",
"88 848 CURVE SMOOTH",
"65 860 OFFCURVE",
"57 881 OFFCURVE",
"65 910 CURVE SMOOTH",
"70 931 OFFCURVE",
"84 948 OFFCURVE",
"105 959 CURVE SMOOTH",
"134 975 OFFCURVE",
"167 970 OFFCURVE",
"202 946 CURVE SMOOTH",
"215 937 OFFCURVE",
"225 931 OFFCURVE",
"229 926 CURVE",
"236 934 OFFCURVE",
"243 943 OFFCURVE",
"250 954 CURVE SMOOTH",
"257 965 OFFCURVE",
"265 971 OFFCURVE",
"272 973 CURVE SMOOTH",
"279 975 OFFCURVE",
"283 971 OFFCURVE",
"284 964 CURVE SMOOTH",
"285 957 OFFCURVE",
"272 938 OFFCURVE",
"245 909 CURVE"
);
},
{
closed = 1;
nodes = (
"168 919 OFFCURVE",
"139 930 OFFCURVE",
"109 927 CURVE SMOOTH",
"103 926 OFFCURVE",
"99 926 OFFCURVE",
"98 925 CURVE",
"97 922 OFFCURVE",
"96 916 OFFCURVE",
"96 908 CURVE SMOOTH",
"96 900 OFFCURVE",
"103 892 OFFCURVE",
"115 887 CURVE SMOOTH",
"137 877 OFFCURVE",
"164 880 OFFCURVE",
"196 896 CURVE"
);
}
);
width = 0;
}
);
unicode = 08EC;
},
{
glyphname = "openfathatan-ar";
layers = (
{
anchors = (
{
name = TashkilTashkilAbove;
position = "{140, 1074}";
},
{
name = _MarkAbove;
position = "{244, 801}";
},
{
name = _TashkilAbove;
position = "{244, 801}";
},
{
name = _TashkilAboveDot;
position = "{244, 801}";
}
);
layerId = "037FF2D3-C03F-44B0-90AB-89AFD43EFA27";
paths = (
{
closed = 1;
nodes = (
"345 1026 OFFCURVE",
"355 1029 OFFCURVE",
"362 1027 CURVE SMOOTH",
"369 1025 OFFCURVE",
"371 1016 OFFCURVE",
"366 1001 CURVE SMOOTH",
"355 970 LINE SMOOTH",
"351 958 OFFCURVE",
"345 950 OFFCURVE",
"336 944 CURVE SMOOTH",
"161 836 LINE SMOOTH",
"154 832 OFFCURVE",
"147 831 OFFCURVE",
"140 832 CURVE SMOOTH",
"133 833 OFFCURVE",
"130 840 OFFCURVE",
"132 853 CURVE SMOOTH",
"135 872 LINE",
"137 883 OFFCURVE",
"144 893 OFFCURVE",
"155 900 CURVE",
"333 1018 LINE SMOOTH"
);
},
{
closed = 1;
nodes = (
"423 1174 OFFCURVE",
"431 1176 OFFCURVE",
"437 1175 CURVE",
"446 1172 OFFCURVE",
"448 1164 OFFCURVE",
"444 1150 CURVE SMOOTH",
"437 1125 LINE",
"433 1112 OFFCURVE",
"425 1102 OFFCURVE",
"413 1095 CURVE SMOOTH",
"236 992 LINE SMOOTH",
"222 985 OFFCURVE",
"212 982 OFFCURVE",
"205 985 CURVE SMOOTH",
"198 988 OFFCURVE",
"198 997 OFFCURVE",
"204 1011 CURVE SMOOTH",
"213 1030 LINE SMOOTH",
"219 1041 OFFCURVE",
"224 1048 OFFCURVE",
"231 1053 CURVE SMOOTH",
"412 1167 LINE SMOOTH"
);
}
);
width = 0;
}
);
unicode = 08F0;
},
{
glyphname = "fathaRing-ar";
layers = (
{
anchors = (
{
name = TashkilTashkilAbove;
position = "{145, 955}";
},
{
name = _MarkAbove;
position = "{268, 801}";
},
{
name = _TashkilAbove;
position = "{271, 801}";
},
{
name = _TashkilAboveDot;
position = "{271, 801}";
}
);
layerId = "037FF2D3-C03F-44B0-90AB-89AFD43EFA27";
paths = (
{
closed = 1;
nodes = (
"212 1043 OFFCURVE",
"246 1051 OFFCURVE",
"288 1019 CURVE SMOOTH",
"314 999 OFFCURVE",
"329 969 OFFCURVE",
"332 929 CURVE SMOOTH",
"336 884 OFFCURVE",
"324 851 OFFCURVE",
"299 834 CURVE SMOOTH",
"281 822 OFFCURVE",
"260 817 OFFCURVE",
"234 819 CURVE SMOOTH",
"176 823 OFFCURVE",
"154 866 OFFCURVE",
"169 949 CURVE SMOOTH",
"172 966 OFFCURVE",
"178 980 OFFCURVE",
"185 994 CURVE SMOOTH"
);
},
{
closed = 1;
nodes = (
"320 900 OFFCURVE",
"319 923 OFFCURVE",
"291 957 CURVE SMOOTH",
"279 972 OFFCURVE",
"261 979 OFFCURVE",
"238 979 CURVE SMOOTH",
"215 979 OFFCURVE",
"200 968 OFFCURVE",
"193 946 CURVE SMOOTH",
"188 929 OFFCURVE",
"188 916 OFFCURVE",
"191 905 CURVE SMOOTH",
"194 896 OFFCURVE",
"202 889 OFFCURVE",
"215 885 CURVE SMOOTH",
"238 877 OFFCURVE",
"264 878 OFFCURVE",
"292 889 CURVE SMOOTH"
);
},
{
closed = 1;
nodes = (
"390 1036 OFFCURVE",
"396 1033 OFFCURVE",
"391 1016 CURVE SMOOTH",
"381 983 LINE SMOOTH",
"379 975 OFFCURVE",
"372 967 OFFCURVE",
"360 960 CURVE",
"126 828 LINE SMOOTH",
"114 821 OFFCURVE",
"108 824 OFFCURVE",
"108 837 CURVE",
"109 854 LINE SMOOTH",
"109 860 OFFCURVE",
"115 868 OFFCURVE",
"126 877 CURVE",
"373 1026 LINE"
);
}
);
width = 0;
}
);
unicode = 08F4;
},
{
glyphname = "fathaDotabove-ar";
layers = (
{
anchors = (
{
name = _MarkAbove;
position = "{268, 801}";
},
{
name = _TashkilAbove;
position = "{271, 801}";
},
{
name = _TashkilAboveDot;
position = "{271, 801}";
}
);
components = (
{
name = "fatha-ar";
}
);
layerId = "037FF2D3-C03F-44B0-90AB-89AFD43EFA27";
paths = (
{
closed = 1;
nodes = (
"196 1091 OFFCURVE",
"201 1093 OFFCURVE",
"208 1093 CURVE SMOOTH",
"215 1093 OFFCURVE",
"228 1085 OFFCURVE",
"245 1070 CURVE",
"249 1065 OFFCURVE",
"250 1062 OFFCURVE",
"248 1057 CURVE",
"224 1019 LINE",
"220 1014 OFFCURVE",
"216 1013 OFFCURVE",
"211 1016 CURVE SMOOTH",
"200 1023 OFFCURVE",
"191 1029 OFFCURVE",
"182 1033 CURVE",
"174 1038 OFFCURVE",
"169 1043 OFFCURVE",
"168 1047 CURVE",
"169 1052 LINE",
"194 1088 LINE SMOOTH"
);
}
);
width = 0;
}
);
unicode = 08F5;
},
{
glyphname = "kasraDotbelow-ar";
layers = (
{
anchors = (
{
name = TashkilTashkilBelow;
position = "{-62, -376}";
},
{
name = _MarkBelow;
position = "{38, -220}";
},
{
name = _TashkilBelow;
position = "{121, -220}";
},
{
name = _TashkilBelowDot;
position = "{121, -220}";
}
);
components = (
{
name = "fatha-ar";
transform = "{1, 0, 0, 1, -142, -1274}";
}
);
layerId = "037FF2D3-C03F-44B0-90AB-89AFD43EFA27";
paths = (
{
closed = 1;
nodes = (
"145 -421 OFFCURVE",
"150 -419 OFFCURVE",
"157 -419 CURVE SMOOTH",
"164 -419 OFFCURVE",
"177 -427 OFFCURVE",
"194 -442 CURVE",
"198 -447 OFFCURVE",
"198 -451 OFFCURVE",
"196 -456 CURVE",
"172 -493 LINE",
"168 -498 OFFCURVE",
"165 -499 OFFCURVE",
"160 -496 CURVE SMOOTH",
"149 -489 OFFCURVE",
"139 -483 OFFCURVE",
"130 -479 CURVE",
"122 -474 OFFCURVE",
"118 -469 OFFCURVE",
"117 -465 CURVE",
"118 -460 LINE",
"143 -424 LINE SMOOTH"
);
}
);
width = 0;
}
);
unicode = 08F6;
},
{
glyphname = "leftarrowheadabove-ar";
layers = (
{
anchors = (
{
name = _MarkAbove;
position = "{156, 801}";
},
{
name = _TashkilAbove;
position = "{156, 801}";
},
{
name = _TashkilAboveDot;
position = "{156, 801}";
}
);
layerId = "037FF2D3-C03F-44B0-90AB-89AFD43EFA27";
paths = (
{
closed = 1;
nodes = (
"219 999 LINE",
"146 964 LINE",
"261 896 LINE",
"273 876 LINE",
"212 841 LINE",
"61 929 LINE",
"49 950 LINE",
"107 983 LINE",
"262 1057 LINE",
"276 1032 LINE"
);
}
);
width = 0;
}
);
unicode = 08F7;
},
{
glyphname = "rightarrowheadabove-ar";
layers = (
{
anchors = (
{
name = _MarkAbove;
position = "{156, 801}";
},
{
name = _TashkilAbove;
position = "{156, 801}";
},
{
name = _TashkilAboveDot;
position = "{156, 801}";
}
);
layerId = "037FF2D3-C03F-44B0-90AB-89AFD43EFA27";
paths = (
{
closed = 1;
nodes = (
"95 1056 LINE",
"250 982 LINE",
"262 961 LINE",
"110 872 LINE",
"53 839 LINE",
"38 864 LINE",
"169 942 LINE",
"47 1000 LINE",
"35 1021 LINE"
);
}
);
width = 0;
}
);
unicode = 08F8;
},
{
glyphname = "doublerightarrowheadDotabove-ar";
layers = (
{
anchors = (
{
name = _MarkAbove;
position = "{107, 801}";
},
{
name = _TashkilAbove;
position = "{107, 801}";
},
{
name = _TashkilAboveDot;
position = "{107, 801}";
}
);
components = (
{
name = "doublerightarrowheadabove-ar";
}
);
layerId = "037FF2D3-C03F-44B0-90AB-89AFD43EFA27";
paths = (
{
closed = 1;
nodes = (
"-95 984 OFFCURVE",
"-90 986 OFFCURVE",
"-83 986 CURVE SMOOTH",
"-76 986 OFFCURVE",
"-63 978 OFFCURVE",
"-46 963 CURVE",
"-42 958 OFFCURVE",
"-42 954 OFFCURVE",
"-44 949 CURVE",
"-68 912 LINE",
"-72 907 OFFCURVE",
"-76 906 OFFCURVE",
"-81 909 CURVE SMOOTH",
"-92 916 OFFCURVE",
"-101 922 OFFCURVE",
"-110 926 CURVE",
"-118 931 OFFCURVE",
"-122 935 OFFCURVE",
"-123 939 CURVE",
"-122 944 LINE",
"-97 981 LINE SMOOTH"
);
}
);
width = 0;
}
);
unicode = 08FC;
},
{
glyphname = "rightarrowheadDotabove-ar";
layers = (
{
anchors = (
{
name = _MarkAbove;
position = "{14, 801}";
},
{
name = _TashkilAbove;
position = "{15, 801}";
},
{
name = _TashkilAboveDot;
position = "{15, 801}";
}
);
components = (
{
name = "rightarrowheadabove-ar";
}
);
layerId = "037FF2D3-C03F-44B0-90AB-89AFD43EFA27";
paths = (
{
closed = 1;
nodes = (
"-95 984 OFFCURVE",
"-90 986 OFFCURVE",
"-83 986 CURVE SMOOTH",
"-76 986 OFFCURVE",
"-63 978 OFFCURVE",
"-46 963 CURVE",
"-42 958 OFFCURVE",
"-42 954 OFFCURVE",
"-44 949 CURVE",
"-68 912 LINE",
"-72 907 OFFCURVE",
"-76 906 OFFCURVE",
"-81 909 CURVE SMOOTH",
"-92 916 OFFCURVE",
"-101 922 OFFCURVE",
"-110 926 CURVE",
"-118 931 OFFCURVE",
"-122 935 OFFCURVE",
"-123 939 CURVE",
"-122 944 LINE",
"-97 981 LINE SMOOTH"
);
}
);
width = 0;
}
);
unicode = 08FD;
},
{
glyphname = "dammaDot-ar";
layers = (
{
anchors = (
{
name = TashkilTashkilAbove;
position = "{195, 1074}";
},
{
name = _MarkAbove;
position = "{278, 801}";
},
{
name = _TashkilAbove;
position = "{278, 801}";
},
{
name = _TashkilAboveDot;
position = "{278, 801}";
}
);
components = (
{
name = "damma-ar";
}
);
layerId = "037FF2D3-C03F-44B0-90AB-89AFD43EFA27";
paths = (
{
closed = 1;
nodes = (
"104 1082 OFFCURVE",
"109 1083 OFFCURVE",
"116 1083 CURVE SMOOTH",
"123 1083 OFFCURVE",
"136 1076 OFFCURVE",
"153 1061 CURVE",
"157 1056 OFFCURVE",
"157 1052 OFFCURVE",
"155 1047 CURVE",
"131 1009 LINE",
"127 1004 OFFCURVE",
"124 1003 OFFCURVE",
"119 1006 CURVE SMOOTH",
"108 1013 OFFCURVE",
"98 1019 OFFCURVE",
"89 1023 CURVE",
"81 1028 OFFCURVE",
"77 1033 OFFCURVE",
"76 1037 CURVE",
"77 1042 LINE",
"102 1079 LINE SMOOTH"
);
}
);
width = 0;
}
);
unicode = 08FE;
},
{
glyphname = zerowidthnonjoiner;
layers = (
{
layerId = "037FF2D3-C03F-44B0-90AB-89AFD43EFA27";
paths = (
{
closed = 1;
nodes = (
"15 0 LINE",
"-15 0 LINE",
"-15 542 LINE",
"15 542 LINE"
);
}
);
width = 0;
}
);
unicode = 200C;
},
{
glyphname = zerowidthjoiner;
layers = (
{
layerId = "037FF2D3-C03F-44B0-90AB-89AFD43EFA27";
paths = (
{
closed = 1;
nodes = (
"15 0 LINE",
"-15 0 LINE",
"-15 474 LINE",
"15 474 LINE"
);
},
{
closed = 1;
nodes = (
"-47 474 LINE",
"-68 495 LINE",
"-21 542 LINE",
"-68 589 LINE",
"-47 610 LINE",
"0 562 LINE",
"47 610 LINE",
"68 589 LINE",
"21 542 LINE",
"68 495 LINE",
"47 474 LINE",
"0 521 LINE"
);
}
);
width = 0;
}
);
unicode = 200D;
},
{
glyphname = lefttorightmark;
layers = (
{
layerId = "037FF2D3-C03F-44B0-90AB-89AFD43EFA27";
paths = (
{
closed = 1;
nodes = (
"15 474 LINE",
"15 0 LINE",
"-15 0 LINE",
"-15 474 LINE"
);
},
{
closed = 1;
nodes = (
"67 474 LINE",
"47 495 LINE",
"80 527 LINE",
"-15 527 LINE",
"-15 557 LINE",
"79 557 LINE",
"47 589 LINE",
"68 609 LINE",
"135 542 LINE"
);
}
);
width = 0;
}
);
unicode = 200E;
},
{
glyphname = fraction;
layers = (
{
layerId = "037FF2D3-C03F-44B0-90AB-89AFD43EFA27";
paths = (
{
closed = 1;
nodes = (
"-43 -11 LINE SMOOTH",
"-45 -15 OFFCURVE",
"-49 -18 OFFCURVE",
"-56 -23 CURVE SMOOTH",
"-63 -28 OFFCURVE",
"-71 -31 OFFCURVE",
"-79 -33 CURVE SMOOTH",
"-83 -34 OFFCURVE",
"-87 -33 OFFCURVE",
"-90 -32 CURVE SMOOTH",
"-93 -31 OFFCURVE",
"-94 -29 OFFCURVE",
"-95 -27 CURVE SMOOTH",
"-96 -24 LINE",
"241 647 LINE",
"248 657 OFFCURVE",
"259 664 OFFCURVE",
"276 668 CURVE SMOOTH",
"280 669 OFFCURVE",
"285 668 OFFCURVE",
"288 667 CURVE SMOOTH",
"291 666 OFFCURVE",
"293 664 OFFCURVE",
"294 661 CURVE"
);
}
);
width = 134;
}
);
unicode = "2044,2215";
},
{
glyphname = dottedCircle;
layers = (
{
anchors = (
{
name = MarkAbove;
position = "{340, 591}";
},
{
name = MarkBelow;
position = "{340, -249}";
}
);
layerId = "037FF2D3-C03F-44B0-90AB-89AFD43EFA27";
paths = (
{
closed = 1;
nodes = (
"567 379 OFFCURVE",
"570 370 OFFCURVE",
"570 360 CURVE SMOOTH",
"570 350 OFFCURVE",
"567 342 OFFCURVE",
"560 335 CURVE",
"553 328 OFFCURVE",
"544 325 OFFCURVE",
"534 325 CURVE SMOOTH",
"524 325 OFFCURVE",
"516 328 OFFCURVE",
"509 335 CURVE SMOOTH",
"502 342 OFFCURVE",
"499 350 OFFCURVE",
"499 360 CURVE SMOOTH",
"499 370 OFFCURVE",
"502 379 OFFCURVE",
"509 386 CURVE SMOOTH",
"516 393 OFFCURVE",
"524 396 OFFCURVE",
"534 396 CURVE SMOOTH",
"544 396 OFFCURVE",
"553 393 OFFCURVE",
"560 386 CURVE"
);
},
{
closed = 1;
nodes = (
"456 455 OFFCURVE",
"464 451 OFFCURVE",
"471 444 CURVE SMOOTH",
"478 437 OFFCURVE",
"481 429 OFFCURVE",
"481 419 CURVE SMOOTH",
"481 409 OFFCURVE",
"477 401 OFFCURVE",
"470 394 CURVE",
"463 387 OFFCURVE",
"454 384 OFFCURVE",
"444 384 CURVE SMOOTH",
"434 384 OFFCURVE",
"426 387 OFFCURVE",
"419 394 CURVE SMOOTH",
"412 401 OFFCURVE",
"409 410 OFFCURVE",
"409 420 CURVE SMOOTH",
"409 430 OFFCURVE",
"412 438 OFFCURVE",
"419 445 CURVE SMOOTH",
"426 452 OFFCURVE",
"436 455 OFFCURVE",
"446 455 CURVE SMOOTH"
);
},
{
closed = 1;
nodes = (
"561 253 OFFCURVE",
"558 261 OFFCURVE",
"558 271 CURVE SMOOTH",
"558 281 OFFCURVE",
"561 289 OFFCURVE",
"568 296 CURVE SMOOTH",
"575 303 OFFCURVE",
"583 307 OFFCURVE",
"593 307 CURVE SMOOTH",
"603 307 OFFCURVE",
"612 304 OFFCURVE",
"619 297 CURVE SMOOTH",
"626 290 OFFCURVE",
"629 281 OFFCURVE",
"629 271 CURVE SMOOTH",
"629 261 OFFCURVE",
"625 252 OFFCURVE",
"618 245 CURVE SMOOTH",
"611 238 OFFCURVE",
"603 235 OFFCURVE",
"593 235 CURVE SMOOTH",
"583 235 OFFCURVE",
"575 239 OFFCURVE",
"568 246 CURVE"
);
},
{
closed = 1;
nodes = (
"303 451 OFFCURVE",
"307 460 OFFCURVE",
"314 467 CURVE SMOOTH",
"321 474 OFFCURVE",
"330 476 OFFCURVE",
"340 476 CURVE SMOOTH",
"350 476 OFFCURVE",
"359 473 OFFCURVE",
"366 466 CURVE SMOOTH",
"373 459 OFFCURVE",
"376 451 OFFCURVE",
"376 441 CURVE SMOOTH",
"376 431 OFFCURVE",
"373 423 OFFCURVE",
"366 416 CURVE",
"359 409 OFFCURVE",
"350 406 OFFCURVE",
"340 406 CURVE SMOOTH",
"330 406 OFFCURVE",
"321 409 OFFCURVE",
"314 416 CURVE SMOOTH",
"307 423 OFFCURVE",
"303 431 OFFCURVE",
"303 441 CURVE SMOOTH"
);
},
{
closed = 1;
nodes = (
"625 202 OFFCURVE",
"633 198 OFFCURVE",
"640 191 CURVE SMOOTH",
"647 184 OFFCURVE",
"650 176 OFFCURVE",
"650 166 CURVE SMOOTH",
"650 156 OFFCURVE",
"647 147 OFFCURVE",
"640 140 CURVE SMOOTH",
"633 133 OFFCURVE",
"625 130 OFFCURVE",
"615 130 CURVE SMOOTH",
"605 130 OFFCURVE",
"596 133 OFFCURVE",
"589 140 CURVE",
"582 147 OFFCURVE",
"580 156 OFFCURVE",
"580 166 CURVE SMOOTH",
"580 176 OFFCURVE",
"583 185 OFFCURVE",
"590 192 CURVE SMOOTH",
"597 199 OFFCURVE",
"605 202 OFFCURVE",
"615 202 CURVE SMOOTH"
);
},
{
closed = 1;
nodes = (
"267 438 OFFCURVE",
"271 429 OFFCURVE",
"271 419 CURVE SMOOTH",
"271 409 OFFCURVE",
"267 401 OFFCURVE",
"260 394 CURVE SMOOTH",
"253 387 OFFCURVE",
"245 384 OFFCURVE",
"235 384 CURVE SMOOTH",
"225 384 OFFCURVE",
"217 387 OFFCURVE",
"210 394 CURVE SMOOTH",
"203 401 OFFCURVE",
"199 409 OFFCURVE",
"199 419 CURVE SMOOTH",
"199 429 OFFCURVE",
"202 438 OFFCURVE",
"209 445 CURVE SMOOTH",
"216 452 OFFCURVE",
"224 455 OFFCURVE",
"234 455 CURVE SMOOTH",
"244 455 OFFCURVE",
"253 452 OFFCURVE",
"260 445 CURVE"
);
},
{
closed = 1;
nodes = (
"626 79 OFFCURVE",
"629 70 OFFCURVE",
"629 60 CURVE SMOOTH",
"629 50 OFFCURVE",
"625 42 OFFCURVE",
"618 35 CURVE SMOOTH",
"611 28 OFFCURVE",
"603 25 OFFCURVE",
"593 25 CURVE SMOOTH",
"583 25 OFFCURVE",
"574 29 OFFCURVE",
"567 36 CURVE",
"560 43 OFFCURVE",
"557 52 OFFCURVE",
"557 62 CURVE SMOOTH",
"557 72 OFFCURVE",
"561 79 OFFCURVE",
"568 86 CURVE SMOOTH",
"575 93 OFFCURVE",
"583 97 OFFCURVE",
"593 97 CURVE SMOOTH",
"603 97 OFFCURVE",
"612 93 OFFCURVE",
"619 86 CURVE"
);
},
{
closed = 1;
nodes = (
"178 379 OFFCURVE",
"181 370 OFFCURVE",
"181 360 CURVE SMOOTH",
"181 350 OFFCURVE",
"177 342 OFFCURVE",
"170 335 CURVE SMOOTH",
"163 328 OFFCURVE",
"156 325 OFFCURVE",
"146 325 CURVE SMOOTH",
"136 325 OFFCURVE",
"127 328 OFFCURVE",
"120 335 CURVE SMOOTH",
"113 342 OFFCURVE",
"110 351 OFFCURVE",
"110 361 CURVE SMOOTH",
"110 371 OFFCURVE",
"113 379 OFFCURVE",
"120 386 CURVE SMOOTH",
"127 393 OFFCURVE",
"136 396 OFFCURVE",
"146 396 CURVE SMOOTH",
"156 396 OFFCURVE",
"164 393 OFFCURVE",
"171 386 CURVE"
);
},
{
closed = 1;
nodes = (
"516 4 OFFCURVE",
"524 7 OFFCURVE",
"534 7 CURVE SMOOTH",
"544 7 OFFCURVE",
"553 4 OFFCURVE",
"560 -3 CURVE SMOOTH",
"567 -10 OFFCURVE",
"570 -19 OFFCURVE",
"570 -29 CURVE SMOOTH",
"570 -39 OFFCURVE",
"566 -47 OFFCURVE",
"559 -54 CURVE SMOOTH",
"552 -61 OFFCURVE",
"544 -64 OFFCURVE",
"534 -64 CURVE SMOOTH",
"524 -64 OFFCURVE",
"516 -61 OFFCURVE",
"509 -54 CURVE",
"502 -47 OFFCURVE",
"499 -38 OFFCURVE",
"499 -28 CURVE SMOOTH",
"499 -18 OFFCURVE",
"502 -10 OFFCURVE",
"509 -3 CURVE SMOOTH"
);
},
{
closed = 1;
nodes = (
"119 289 OFFCURVE",
"122 280 OFFCURVE",
"122 270 CURVE SMOOTH",
"122 260 OFFCURVE",
"119 253 OFFCURVE",
"112 246 CURVE SMOOTH",
"105 239 OFFCURVE",
"96 235 OFFCURVE",
"86 235 CURVE SMOOTH",
"76 235 OFFCURVE",
"68 239 OFFCURVE",
"61 246 CURVE",
"54 253 OFFCURVE",
"51 262 OFFCURVE",
"51 272 CURVE SMOOTH",
"51 282 OFFCURVE",
"55 290 OFFCURVE",
"62 297 CURVE",
"69 304 OFFCURVE",
"77 307 OFFCURVE",
"87 307 CURVE SMOOTH",
"97 307 OFFCURVE",
"105 303 OFFCURVE",
"112 296 CURVE"
);
},
{
closed = 1;
nodes = (
"426 -55 OFFCURVE",
"435 -52 OFFCURVE",
"445 -52 CURVE SMOOTH",
"455 -52 OFFCURVE",
"463 -55 OFFCURVE",
"470 -62 CURVE SMOOTH",
"477 -69 OFFCURVE",
"481 -77 OFFCURVE",
"481 -87 CURVE SMOOTH",
"481 -97 OFFCURVE",
"478 -106 OFFCURVE",
"471 -113 CURVE SMOOTH",
"464 -120 OFFCURVE",
"456 -123 OFFCURVE",
"446 -123 CURVE SMOOTH",
"436 -123 OFFCURVE",
"426 -119 OFFCURVE",
"419 -112 CURVE SMOOTH",
"412 -105 OFFCURVE",
"409 -97 OFFCURVE",
"409 -87 CURVE SMOOTH",
"409 -77 OFFCURVE",
"412 -69 OFFCURVE",
"419 -62 CURVE"
);
},
{
closed = 1;
nodes = (
"97 185 OFFCURVE",
"100 176 OFFCURVE",
"100 166 CURVE SMOOTH",
"100 156 OFFCURVE",
"97 147 OFFCURVE",
"90 140 CURVE SMOOTH",
"83 133 OFFCURVE",
"75 130 OFFCURVE",
"65 130 CURVE SMOOTH",
"55 130 OFFCURVE",
"46 134 OFFCURVE",
"39 141 CURVE SMOOTH",
"32 148 OFFCURVE",
"30 156 OFFCURVE",
"30 166 CURVE SMOOTH",
"30 176 OFFCURVE",
"33 185 OFFCURVE",
"40 192 CURVE SMOOTH",
"47 199 OFFCURVE",
"55 202 OFFCURVE",
"65 202 CURVE SMOOTH",
"75 202 OFFCURVE",
"83 199 OFFCURVE",
"90 192 CURVE"
);
},
{
closed = 1;
nodes = (
"321 -76 OFFCURVE",
"330 -74 OFFCURVE",
"340 -74 CURVE SMOOTH",
"350 -74 OFFCURVE",
"359 -77 OFFCURVE",
"366 -84 CURVE SMOOTH",
"373 -91 OFFCURVE",
"376 -99 OFFCURVE",
"376 -109 CURVE SMOOTH",
"376 -119 OFFCURVE",
"372 -128 OFFCURVE",
"365 -135 CURVE SMOOTH",
"358 -142 OFFCURVE",
"350 -144 OFFCURVE",
"340 -144 CURVE SMOOTH",
"330 -144 OFFCURVE",
"321 -141 OFFCURVE",
"314 -134 CURVE SMOOTH",
"307 -127 OFFCURVE",
"303 -119 OFFCURVE",
"303 -109 CURVE SMOOTH",
"303 -99 OFFCURVE",
"307 -90 OFFCURVE",
"314 -83 CURVE"
);
},
{
closed = 1;
nodes = (
"119 79 OFFCURVE",
"122 71 OFFCURVE",
"122 61 CURVE SMOOTH",
"122 51 OFFCURVE",
"119 43 OFFCURVE",
"112 36 CURVE SMOOTH",
"105 29 OFFCURVE",
"97 25 OFFCURVE",
"87 25 CURVE SMOOTH",
"77 25 OFFCURVE",
"68 28 OFFCURVE",
"61 35 CURVE SMOOTH",
"54 42 OFFCURVE",
"51 51 OFFCURVE",
"51 61 CURVE SMOOTH",
"51 71 OFFCURVE",
"54 79 OFFCURVE",
"61 86 CURVE SMOOTH",
"68 93 OFFCURVE",
"76 97 OFFCURVE",
"86 97 CURVE SMOOTH",
"96 97 OFFCURVE",
"105 93 OFFCURVE",
"112 86 CURVE"
);
},
{
closed = 1;
nodes = (
"267 -69 OFFCURVE",
"271 -78 OFFCURVE",
"271 -88 CURVE SMOOTH",
"271 -98 OFFCURVE",
"267 -106 OFFCURVE",
"260 -113 CURVE",
"253 -120 OFFCURVE",
"244 -123 OFFCURVE",
"234 -123 CURVE SMOOTH",
"224 -123 OFFCURVE",
"215 -119 OFFCURVE",
"208 -112 CURVE",
"201 -105 OFFCURVE",
"199 -97 OFFCURVE",
"199 -87 CURVE SMOOTH",
"199 -77 OFFCURVE",
"203 -69 OFFCURVE",
"210 -62 CURVE",
"217 -55 OFFCURVE",
"226 -52 OFFCURVE",
"235 -52 CURVE SMOOTH",
"244 -52 OFFCURVE",
"253 -55 OFFCURVE",
"260 -62 CURVE"
);
},
{
closed = 1;
nodes = (
"156 7 OFFCURVE",
"164 4 OFFCURVE",
"171 -3 CURVE SMOOTH",
"178 -10 OFFCURVE",
"181 -18 OFFCURVE",
"181 -28 CURVE SMOOTH",
"181 -38 OFFCURVE",
"177 -47 OFFCURVE",
"170 -54 CURVE SMOOTH",
"163 -61 OFFCURVE",
"155 -64 OFFCURVE",
"145 -64 CURVE SMOOTH",
"135 -64 OFFCURVE",
"127 -60 OFFCURVE",
"120 -53 CURVE SMOOTH",
"113 -46 OFFCURVE",
"110 -38 OFFCURVE",
"110 -28 CURVE SMOOTH",
"110 -18 OFFCURVE",
"113 -10 OFFCURVE",
"120 -3 CURVE",
"127 4 OFFCURVE",
"136 7 OFFCURVE",
"146 7 CURVE SMOOTH"
);
}
);
width = 679;
}
);
unicode = 25CC;
},
{
glyphname = commareversed;
layers = (
{
layerId = "037FF2D3-C03F-44B0-90AB-89AFD43EFA27";
paths = (
{
closed = 1;
nodes = (
"207 -249.952 OFFCURVE",
"217 -251.952 OFFCURVE",
"225 -249.952 CURVE SMOOTH",
"241 -245.952 OFFCURVE",
"249 -236.952 OFFCURVE",
"251 -222.952 CURVE",
"252 -212.952 OFFCURVE",
"248 -202.952 OFFCURVE",
"240 -194.952 CURVE SMOOTH",
"166 -117.952 OFFCURVE",
"137 -46.952 OFFCURVE",
"155 16.048 CURVE",
"172 1.048 OFFCURVE",
"193 -6.952 OFFCURVE",
"217 -6.952 CURVE SMOOTH",
"241 -6.952 OFFCURVE",
"261 2.048 OFFCURVE",
"279 20.048 CURVE SMOOTH",
"297 38.048 OFFCURVE",
"305 58.048 OFFCURVE",
"305 83.048 CURVE SMOOTH",
"305 108.048 OFFCURVE",
"295 130.048 OFFCURVE",
"276 148.048 CURVE",
"257 166.048 OFFCURVE",
"235 175.048 OFFCURVE",
"208 174.048 CURVE SMOOTH",
"181 173.048 OFFCURVE",
"160 166.048 OFFCURVE",
"143 153.048 CURVE SMOOTH",
"97 117.048 OFFCURVE",
"78 53.048 OFFCURVE",
"85 -39.952 CURVE",
"89 -81.952 OFFCURVE",
"103 -122.952 OFFCURVE",
"128 -161.952 CURVE SMOOTH",
"153 -200.952 OFFCURVE",
"176 -227.952 OFFCURVE",
"197 -242.952 CURVE"
);
}
);
width = 369;
}
);
unicode = 2E41;
},
{
glyphname = "uyghur-hyphen";
layers = (
{
layerId = "037FF2D3-C03F-44B0-90AB-89AFD43EFA27";
paths = (
{
closed = 1;
nodes = (
"78 -15 OFFCURVE",
"70 -5 OFFCURVE",
"70 8 CURVE SMOOTH",
"70 81 LINE SMOOTH",
"70 94 OFFCURVE",
"78 104 OFFCURVE",
"95 104 CURVE SMOOTH",
"276 104 LINE SMOOTH",
"293 104 OFFCURVE",
"301 94 OFFCURVE",
"301 81 CURVE SMOOTH",
"301 8 LINE SMOOTH",
"301 -5 OFFCURVE",
"293 -15 OFFCURVE",
"276 -15 CURVE SMOOTH",
"95 -15 LINE SMOOTH"
);
}
);
width = 371;
}
);
unicode = F4FF;
},
{
glyphname = "parenleft-ar";
layers = (
{
layerId = "037FF2D3-C03F-44B0-90AB-89AFD43EFA27";
paths = (
{
closed = 1;
nodes = (
"348 155 OFFCURVE",
"353 141 OFFCURVE",
"362 128 CURVE SMOOTH",
"371 115 OFFCURVE",
"384 108 OFFCURVE",
"400 108 CURVE SMOOTH",
"416 108 OFFCURVE",
"431 114 OFFCURVE",
"444 123 CURVE SMOOTH",
"457 132 OFFCURVE",
"463 145 OFFCURVE",
"463 161 CURVE SMOOTH",
"463 177 OFFCURVE",
"458 191 OFFCURVE",
"449 204 CURVE SMOOTH",
"440 217 OFFCURVE",
"427 224 OFFCURVE",
"411 224 CURVE SMOOTH",
"395 224 OFFCURVE",
"380 219 OFFCURVE",
"367 209 CURVE SMOOTH",
"354 199 OFFCURVE",
"348 187 OFFCURVE",
"348 171 CURVE SMOOTH"
);
},
{
closed = 1;
nodes = (
"514 365 OFFCURVE",
"529 359 OFFCURVE",
"536 354 CURVE SMOOTH",
"543 349 OFFCURVE",
"544 341 OFFCURVE",
"539 331 CURVE SMOOTH",
"538 330 OFFCURVE",
"538 329 OFFCURVE",
"537 328 CURVE SMOOTH",
"469 236 LINE",
"472 233 OFFCURVE",
"475 231 OFFCURVE",
"478 229 CURVE",
"567 295 LINE SMOOTH",
"579 304 OFFCURVE",
"589 302 OFFCURVE",
"596 290 CURVE",
"603 279 OFFCURVE",
"610 257 OFFCURVE",
"616 223 CURVE",
"636 212 OFFCURVE",
"654 198 OFFCURVE",
"669 178 CURVE",
"669 177 LINE",
"673 170 OFFCURVE",
"673 162 OFFCURVE",
"669 155 CURVE",
"669 155 LINE",
"654 135 OFFCURVE",
"637 119 OFFCURVE",
"616 109 CURVE",
"609 72 OFFCURVE",
"600 48 OFFCURVE",
"590 37 CURVE SMOOTH",
"584 31 OFFCURVE",
"576 30 OFFCURVE",
"567 37 CURVE",
"477 104 LINE",
"469 96 LINE",
"537 4 LINE",
"545 -8 OFFCURVE",
"543 -18 OFFCURVE",
"528 -26 CURVE SMOOTH",
"527 -26 OFFCURVE",
"524 -28 OFFCURVE",
"518 -30 CURVE SMOOTH",
"512 -32 OFFCURVE",
"504 -36 OFFCURVE",
"492 -39 CURVE",
"522 -156 OFFCURVE",
"570 -260 OFFCURVE",
"636 -352 CURVE",
"636 -353 LINE",
"649 -374 OFFCURVE",
"648 -392 OFFCURVE",
"634 -406 CURVE SMOOTH",
"620 -420 OFFCURVE",
"602 -417 OFFCURVE",
"583 -398 CURVE SMOOTH",
"582 -397 OFFCURVE",
"582 -397 OFFCURVE",
"582 -397 CURVE SMOOTH",
"481 -293 OFFCURVE",
"412 -177 OFFCURVE",
"374 -48 CURVE",
"345 -44 OFFCURVE",
"316 -37 OFFCURVE",
"288 -26 CURVE",
"288 -26 LINE",
"274 -20 OFFCURVE",
"271 -11 OFFCURVE",
"278 1 CURVE SMOOTH",
"279 2 OFFCURVE",
"279 3 OFFCURVE",
"279 4 CURVE SMOOTH",
"345 93 LINE",
"341 98 OFFCURVE",
"338 101 OFFCURVE",
"335 104 CURVE",
"244 37 LINE",
"232 29 OFFCURVE",
"222 31 OFFCURVE",
"214 45 CURVE",
"214 46 LINE",
"206 67 OFFCURVE",
"200 88 OFFCURVE",
"196 109 CURVE",
"175 120 OFFCURVE",
"158 135 OFFCURVE",
"143 155 CURVE",
"139 163 OFFCURVE",
"139 171 OFFCURVE",
"143 178 CURVE",
"158 198 OFFCURVE",
"175 213 OFFCURVE",
"196 223 CURVE",
"203 260 OFFCURVE",
"210 283 OFFCURVE",
"217 292 CURVE SMOOTH",
"224 301 OFFCURVE",
"232 302 OFFCURVE",
"242 296 CURVE SMOOTH",
"243 295 OFFCURVE",
"243 295 OFFCURVE",
"244 295 CURVE SMOOTH",
"334 228 LINE",
"338 232 OFFCURVE",
"342 235 OFFCURVE",
"346 239 CURVE",
"279 328 LINE",
"271 340 OFFCURVE",
"274 350 OFFCURVE",
"288 358 CURVE",
"288 358 LINE",
"317 369 OFFCURVE",
"346 377 OFFCURVE",
"374 380 CURVE",
"412 508 OFFCURVE",
"481 624 OFFCURVE",
"582 728 CURVE",
"602 747 OFFCURVE",
"620 749 OFFCURVE",
"634 735 CURVE SMOOTH",
"648 721 OFFCURVE",
"649 704 OFFCURVE",
"636 683 CURVE",
"569 585 OFFCURVE",
"521 481 OFFCURVE",
"492 371 CURVE"
);
},
{
closed = 1;
nodes = (
"472 458 OFFCURVE",
"516 564 OFFCURVE",
"579 667 CURVE",
"497 574 OFFCURVE",
"441 471 OFFCURVE",
"409 359 CURVE",
"406 348 LINE",
"405 345 OFFCURVE",
"402 342 OFFCURVE",
"399 342 CURVE SMOOTH",
"375 341 OFFCURVE",
"351 337 OFFCURVE",
"327 330 CURVE",
"371 270 LINE",
"376 277 OFFCURVE",
"380 284 OFFCURVE",
"385 291 CURVE SMOOTH",
"390 298 OFFCURVE",
"397 303 OFFCURVE",
"406 303 CURVE SMOOTH",
"415 303 OFFCURVE",
"422 299 OFFCURVE",
"428 291 CURVE SMOOTH",
"434 283 OFFCURVE",
"439 274 OFFCURVE",
"444 267 CURVE",
"490 330 LINE",
"478 334 OFFCURVE",
"465 337 OFFCURVE",
"453 339 CURVE SMOOTH",
"449 340 OFFCURVE",
"447 342 OFFCURVE",
"447 347 CURVE SMOOTH",
"447 348 LINE SMOOTH"
);
},
{
closed = 1;
nodes = (
"230 137 OFFCURVE",
"232 131 OFFCURVE",
"233 122 CURVE SMOOTH",
"234 113 OFFCURVE",
"237 100 OFFCURVE",
"242 84 CURVE",
"304 130 LINE",
"297 135 OFFCURVE",
"290 141 OFFCURVE",
"282 146 CURVE SMOOTH",
"274 151 OFFCURVE",
"270 157 OFFCURVE",
"271 166 CURVE SMOOTH",
"272 175 OFFCURVE",
"276 182 OFFCURVE",
"283 187 CURVE SMOOTH",
"290 192 OFFCURVE",
"297 197 OFFCURVE",
"304 202 CURVE",
"242 248 LINE",
"237 232 OFFCURVE",
"234 216 OFFCURVE",
"232 201 CURVE SMOOTH",
"231 198 OFFCURVE",
"230 196 OFFCURVE",
"228 195 CURVE SMOOTH",
"216 189 LINE SMOOTH",
"204 183 OFFCURVE",
"193 176 OFFCURVE",
"184 166 CURVE",
"194 156 OFFCURVE",
"204 149 OFFCURVE",
"216 143 CURVE SMOOTH",
"228 138 LINE SMOOTH"
);
},
{
closed = 1;
nodes = (
"515 197 OFFCURVE",
"522 191 OFFCURVE",
"530 186 CURVE SMOOTH",
"538 181 OFFCURVE",
"542 174 OFFCURVE",
"541 165 CURVE SMOOTH",
"540 156 OFFCURVE",
"537 150 OFFCURVE",
"529 145 CURVE SMOOTH",
"521 140 OFFCURVE",
"514 135 OFFCURVE",
"508 130 CURVE",
"569 84 LINE",
"574 100 OFFCURVE",
"578 116 OFFCURVE",
"580 132 CURVE SMOOTH",
"581 135 OFFCURVE",
"582 137 OFFCURVE",
"584 138 CURVE",
"596 143 LINE",
"608 149 OFFCURVE",
"619 157 OFFCURVE",
"628 166 CURVE",
"619 176 OFFCURVE",
"608 183 OFFCURVE",
"596 189 CURVE SMOOTH",
"584 195 LINE SMOOTH",
"582 196 OFFCURVE",
"579 202 OFFCURVE",
"578 211 CURVE SMOOTH",
"577 220 OFFCURVE",
"574 233 OFFCURVE",
"569 248 CURVE",
"508 202 LINE"
);
},
{
closed = 1;
nodes = (
"453 -7 OFFCURVE",
"455 -6 OFFCURVE",
"462 -5 CURVE SMOOTH",
"469 -4 OFFCURVE",
"478 -2 OFFCURVE",
"490 2 CURVE",
"443 65 LINE",
"437 58 OFFCURVE",
"432 50 OFFCURVE",
"427 42 CURVE SMOOTH",
"422 34 OFFCURVE",
"416 29 OFFCURVE",
"407 29 CURVE SMOOTH",
"398 29 OFFCURVE",
"390 33 OFFCURVE",
"385 41 CURVE SMOOTH",
"380 49 OFFCURVE",
"376 56 OFFCURVE",
"371 62 CURVE",
"327 2 LINE",
"352 -5 OFFCURVE",
"375 -9 OFFCURVE",
"399 -10 CURVE",
"403 -11 OFFCURVE",
"405 -13 OFFCURVE",
"406 -16 CURVE SMOOTH",
"408 -26 LINE",
"439 -139 OFFCURVE",
"496 -242 OFFCURVE",
"578 -335 CURVE",
"519 -242 OFFCURVE",
"476 -136 OFFCURVE",
"447 -16 CURVE SMOOTH",
"446 -12 OFFCURVE",
"448 -8 OFFCURVE",
"452 -7 CURVE SMOOTH"
);
}
);
width = 714;
}
);
unicode = FD3E;
},
{
glyphname = "parenright-ar";
layers = (
{
layerId = "037FF2D3-C03F-44B0-90AB-89AFD43EFA27";
paths = (
{
closed = 1;
nodes = (
"367 187 OFFCURVE",
"360 199 OFFCURVE",
"347 209 CURVE SMOOTH",
"334 219 OFFCURVE",
"319 224 OFFCURVE",
"303 224 CURVE SMOOTH",
"287 224 OFFCURVE",
"274 217 OFFCURVE",
"265 204 CURVE SMOOTH",
"256 191 OFFCURVE",
"251 177 OFFCURVE",
"251 161 CURVE SMOOTH",
"251 145 OFFCURVE",
"258 132 OFFCURVE",
"271 123 CURVE SMOOTH",
"284 114 OFFCURVE",
"298 108 OFFCURVE",
"314 108 CURVE SMOOTH",
"330 108 OFFCURVE",
"343 115 OFFCURVE",
"352 128 CURVE SMOOTH",
"361 141 OFFCURVE",
"367 155 OFFCURVE",
"367 171 CURVE SMOOTH"
);
},
{
closed = 1;
nodes = (
"194 481 OFFCURVE",
"146 585 OFFCURVE",
"79 683 CURVE",
"65 704 OFFCURVE",
"66 721 OFFCURVE",
"81 735 CURVE SMOOTH",
"96 749 OFFCURVE",
"113 747 OFFCURVE",
"133 728 CURVE",
"234 624 OFFCURVE",
"303 508 OFFCURVE",
"341 380 CURVE",
"370 377 OFFCURVE",
"398 369 OFFCURVE",
"427 358 CURVE",
"427 358 LINE",
"441 350 OFFCURVE",
"444 340 OFFCURVE",
"436 328 CURVE",
"369 239 LINE",
"372 235 OFFCURVE",
"376 232 OFFCURVE",
"380 228 CURVE",
"471 295 LINE SMOOTH",
"472 295 OFFCURVE",
"472 295 OFFCURVE",
"473 296 CURVE SMOOTH",
"483 302 OFFCURVE",
"492 301 OFFCURVE",
"498 292 CURVE SMOOTH",
"504 283 OFFCURVE",
"512 260 OFFCURVE",
"519 223 CURVE",
"540 213 OFFCURVE",
"557 198 OFFCURVE",
"572 178 CURVE",
"576 171 OFFCURVE",
"576 163 OFFCURVE",
"572 155 CURVE",
"557 135 OFFCURVE",
"540 120 OFFCURVE",
"519 109 CURVE",
"515 88 OFFCURVE",
"508 67 OFFCURVE",
"500 46 CURVE",
"500 45 LINE",
"492 31 OFFCURVE",
"483 29 OFFCURVE",
"471 37 CURVE",
"380 104 LINE",
"376 100 OFFCURVE",
"376 100 OFFCURVE",
"369 93 CURVE",
"436 4 LINE SMOOTH",
"436 3 OFFCURVE",
"436 2 OFFCURVE",
"437 1 CURVE SMOOTH",
"444 -11 OFFCURVE",
"441 -20 OFFCURVE",
"427 -26 CURVE",
"427 -26 LINE",
"398 -37 OFFCURVE",
"370 -44 OFFCURVE",
"341 -48 CURVE",
"303 -177 OFFCURVE",
"234 -293 OFFCURVE",
"133 -397 CURVE SMOOTH",
"132 -397 OFFCURVE",
"132 -397 OFFCURVE",
"131 -398 CURVE SMOOTH",
"112 -417 OFFCURVE",
"96 -420 OFFCURVE",
"81 -406 CURVE SMOOTH",
"66 -392 OFFCURVE",
"65 -374 OFFCURVE",
"78 -353 CURVE",
"79 -352 LINE",
"145 -260 OFFCURVE",
"193 -156 OFFCURVE",
"223 -39 CURVE",
"211 -36 OFFCURVE",
"203 -32 OFFCURVE",
"197 -30 CURVE SMOOTH",
"191 -28 OFFCURVE",
"188 -26 OFFCURVE",
"187 -26 CURVE SMOOTH",
"173 -18 OFFCURVE",
"170 -8 OFFCURVE",
"178 4 CURVE",
"245 96 LINE",
"237 104 LINE",
"147 37 LINE",
"137 30 OFFCURVE",
"130 31 OFFCURVE",
"124 37 CURVE SMOOTH",
"114 48 OFFCURVE",
"106 72 OFFCURVE",
"99 109 CURVE",
"79 119 OFFCURVE",
"61 135 OFFCURVE",
"46 155 CURVE",
"45 155 LINE",
"40 162 OFFCURVE",
"40 170 OFFCURVE",
"45 177 CURVE",
"46 178 LINE",
"61 198 OFFCURVE",
"79 212 OFFCURVE",
"99 223 CURVE",
"106 257 OFFCURVE",
"112 279 OFFCURVE",
"119 290 CURVE",
"126 302 OFFCURVE",
"135 304 OFFCURVE",
"147 295 CURVE SMOOTH",
"237 229 LINE",
"240 231 OFFCURVE",
"242 233 OFFCURVE",
"245 236 CURVE",
"178 328 LINE SMOOTH",
"177 329 OFFCURVE",
"177 330 OFFCURVE",
"176 331 CURVE SMOOTH",
"171 341 OFFCURVE",
"172 349 OFFCURVE",
"179 354 CURVE SMOOTH",
"186 359 OFFCURVE",
"201 365 OFFCURVE",
"223 371 CURVE"
);
},
{
closed = 1;
nodes = (
"268 347 LINE SMOOTH",
"268 342 OFFCURVE",
"266 340 OFFCURVE",
"262 339 CURVE SMOOTH",
"250 337 OFFCURVE",
"237 334 OFFCURVE",
"225 330 CURVE",
"271 267 LINE",
"276 274 OFFCURVE",
"281 283 OFFCURVE",
"287 291 CURVE SMOOTH",
"293 299 OFFCURVE",
"300 303 OFFCURVE",
"309 303 CURVE SMOOTH",
"318 303 OFFCURVE",
"324 298 OFFCURVE",
"329 291 CURVE SMOOTH",
"334 284 OFFCURVE",
"339 277 OFFCURVE",
"344 270 CURVE",
"388 330 LINE",
"364 337 OFFCURVE",
"339 341 OFFCURVE",
"315 342 CURVE SMOOTH",
"312 342 OFFCURVE",
"310 345 OFFCURVE",
"309 348 CURVE",
"306 359 LINE",
"275 471 OFFCURVE",
"218 574 OFFCURVE",
"136 667 CURVE",
"199 564 OFFCURVE",
"243 458 OFFCURVE",
"268 348 CURVE SMOOTH"
);
},
{
closed = 1;
nodes = (
"498 143 LINE SMOOTH",
"510 149 OFFCURVE",
"521 156 OFFCURVE",
"531 166 CURVE",
"521 176 OFFCURVE",
"510 183 OFFCURVE",
"498 189 CURVE SMOOTH",
"487 195 LINE SMOOTH",
"484 196 OFFCURVE",
"483 198 OFFCURVE",
"482 201 CURVE SMOOTH",
"480 216 OFFCURVE",
"478 232 OFFCURVE",
"473 248 CURVE",
"410 202 LINE",
"417 197 OFFCURVE",
"424 192 OFFCURVE",
"431 187 CURVE SMOOTH",
"438 182 OFFCURVE",
"442 175 OFFCURVE",
"443 166 CURVE SMOOTH",
"444 157 OFFCURVE",
"440 151 OFFCURVE",
"432 146 CURVE SMOOTH",
"424 141 OFFCURVE",
"417 135 OFFCURVE",
"410 130 CURVE",
"473 84 LINE",
"478 100 OFFCURVE",
"481 113 OFFCURVE",
"482 122 CURVE SMOOTH",
"483 131 OFFCURVE",
"485 137 OFFCURVE",
"487 138 CURVE SMOOTH"
);
},
{
closed = 1;
nodes = (
"146 248 LINE",
"141 233 OFFCURVE",
"137 220 OFFCURVE",
"136 211 CURVE SMOOTH",
"135 202 OFFCURVE",
"133 196 OFFCURVE",
"131 195 CURVE SMOOTH",
"119 189 LINE SMOOTH",
"107 183 OFFCURVE",
"97 176 OFFCURVE",
"87 166 CURVE",
"97 157 OFFCURVE",
"107 149 OFFCURVE",
"119 143 CURVE",
"131 138 LINE",
"133 137 OFFCURVE",
"134 135 OFFCURVE",
"135 132 CURVE SMOOTH",
"137 116 OFFCURVE",
"141 100 OFFCURVE",
"146 84 CURVE",
"207 130 LINE",
"200 135 OFFCURVE",
"193 140 OFFCURVE",
"186 145 CURVE SMOOTH",
"179 150 OFFCURVE",
"175 156 OFFCURVE",
"174 165 CURVE SMOOTH",
"173 174 OFFCURVE",
"177 181 OFFCURVE",
"185 186 CURVE SMOOTH",
"193 191 OFFCURVE",
"200 197 OFFCURVE",
"207 202 CURVE"
);
},
{
closed = 1;
nodes = (
"267 -8 OFFCURVE",
"269 -12 OFFCURVE",
"268 -16 CURVE SMOOTH",
"239 -136 OFFCURVE",
"196 -242 OFFCURVE",
"137 -335 CURVE",
"219 -242 OFFCURVE",
"276 -139 OFFCURVE",
"307 -26 CURVE",
"309 -16 LINE SMOOTH",
"310 -13 OFFCURVE",
"312 -11 OFFCURVE",
"315 -10 CURVE",
"338 -9 OFFCURVE",
"363 -5 OFFCURVE",
"388 2 CURVE",
"344 62 LINE",
"339 56 OFFCURVE",
"334 49 OFFCURVE",
"329 41 CURVE SMOOTH",
"324 33 OFFCURVE",
"317 29 OFFCURVE",
"308 29 CURVE SMOOTH",
"299 29 OFFCURVE",
"292 34 OFFCURVE",
"287 42 CURVE SMOOTH",
"282 50 OFFCURVE",
"277 58 OFFCURVE",
"271 65 CURVE",
"225 2 LINE",
"237 -2 OFFCURVE",
"245 -4 OFFCURVE",
"252 -5 CURVE SMOOTH",
"259 -6 OFFCURVE",
"262 -7 OFFCURVE",
"263 -7 CURVE SMOOTH"
);
}
);
width = 714;
}
);
unicode = FD3F;
},
{
glyphname = uniFDFA;
layers = (
{
layerId = "037FF2D3-C03F-44B0-90AB-89AFD43EFA27";
paths = (
{
closed = 1;
nodes = (
"462 373 LINE",
"464 388 OFFCURVE",
"467 395 OFFCURVE",
"469 397 CURVE SMOOTH",
"482 409 OFFCURVE",
"492 428 OFFCURVE",
"500 453 CURVE SMOOTH",
"508 478 OFFCURVE",
"509 508 OFFCURVE",
"505 541 CURVE SMOOTH",
"499 586 OFFCURVE",
"496 618 OFFCURVE",
"493 638 CURVE SMOOTH",
"478 746 LINE SMOOTH",
"477 752 OFFCURVE",
"482 775 OFFCURVE",
"492 817 CURVE SMOOTH",
"493 820 OFFCURVE",
"495 821 OFFCURVE",
"498 821 CURVE SMOOTH",
"501 821 OFFCURVE",
"503 819 OFFCURVE",
"503 817 CURVE SMOOTH",
"526 657 OFFCURVE",
"547 561 OFFCURVE",
"566 529 CURVE SMOOTH",
"585 497 OFFCURVE",
"612 481 OFFCURVE",
"647 483 CURVE SMOOTH",
"687 485 OFFCURVE",
"721 500 OFFCURVE",
"748 526 CURVE",
"751 531 OFFCURVE",
"754 533 OFFCURVE",
"759 533 CURVE SMOOTH",
"764 533 OFFCURVE",
"768 531 OFFCURVE",
"772 525 CURVE",
"784 507 OFFCURVE",
"804 493 OFFCURVE",
"832 484 CURVE",
"848 502 OFFCURVE",
"863 518 OFFCURVE",
"879 532 CURVE SMOOTH",
"926 572 OFFCURVE",
"964 592 OFFCURVE",
"992 592 CURVE SMOOTH",
"1002 592 OFFCURVE",
"1015 586 OFFCURVE",
"1031 575 CURVE SMOOTH",
"1047 564 OFFCURVE",
"1055 553 OFFCURVE",
"1055 542 CURVE SMOOTH",
"1055 531 OFFCURVE",
"1050 516 OFFCURVE",
"1039 496 CURVE SMOOTH",
"1028 476 OFFCURVE",
"1021 465 OFFCURVE",
"1017 461 CURVE",
"982 436 OFFCURVE",
"937 424 OFFCURVE",
"881 424 CURVE",
"859 424 OFFCURVE",
"838 427 OFFCURVE",
"819 432 CURVE",
"804 386 LINE SMOOTH",
"803 383 OFFCURVE",
"801 381 OFFCURVE",
"797 380 CURVE",
"790 380 OFFCURVE",
"786 384 OFFCURVE",
"785 391 CURVE",
"785 393 LINE",
"787 406 OFFCURVE",
"792 421 OFFCURVE",
"799 439 CURVE",
"780 447 OFFCURVE",
"767 456 OFFCURVE",
"759 465 CURVE SMOOTH",
"751 474 OFFCURVE",
"746 479 OFFCURVE",
"744 479 CURVE SMOOTH",
"742 479 OFFCURVE",
"738 476 OFFCURVE",
"733 471 CURVE SMOOTH",
"705 444 OFFCURVE",
"672 431 OFFCURVE",
"631 432 CURVE SMOOTH",
"590 433 OFFCURVE",
"558 459 OFFCURVE",
"532 509 CURVE",
"530 477 OFFCURVE",
"519 442 OFFCURVE",
"498 405 CURVE",
"534 399 OFFCURVE",
"556 392 OFFCURVE",
"567 384 CURVE SMOOTH",
"578 376 OFFCURVE",
"583 371 OFFCURVE",
"583 368 CURVE SMOOTH",
"586 335 OFFCURVE",
"576 310 OFFCURVE",
"554 292 CURVE",
"500 249 OFFCURVE",
"447 228 OFFCURVE",
"393 228 CURVE SMOOTH",
"339 228 OFFCURVE",
"300 241 OFFCURVE",
"276 268 CURVE SMOOTH",
"234 315 OFFCURVE",
"244 387 OFFCURVE",
"304 488 CURVE SMOOTH",
"305 490 OFFCURVE",
"307 491 OFFCURVE",
"310 492 CURVE",
"316 491 OFFCURVE",
"318 488 OFFCURVE",
"315 482 CURVE",
"295 448 OFFCURVE",
"284 424 OFFCURVE",
"281 411 CURVE SMOOTH",
"275 382 OFFCURVE",
"279 355 OFFCURVE",
"292 330 CURVE SMOOTH",
"310 296 OFFCURVE",
"349 280 OFFCURVE",
"407 284 CURVE SMOOTH",
"465 288 OFFCURVE",
"517 310 OFFCURVE",
"561 348 CURVE",
"548 355 OFFCURVE",
"515 364 OFFCURVE",
"463 373 CURVE"
);
},
{
closed = 1;
nodes = (
"997 525 OFFCURVE",
"979 533 OFFCURVE",
"960 533 CURVE SMOOTH",
"941 533 OFFCURVE",
"921 526 OFFCURVE",
"899 512 CURVE SMOOTH",
"877 498 OFFCURVE",
"862 487 OFFCURVE",
"855 479 CURVE",
"877 476 OFFCURVE",
"909 476 OFFCURVE",
"950 481 CURVE SMOOTH",
"991 486 OFFCURVE",
"1014 493 OFFCURVE",
"1019 504 CURVE SMOOTH",
"1019 505 OFFCURVE",
"1018 506 OFFCURVE",
"1017 507 CURVE SMOOTH"
);
},
{
closed = 1;
nodes = (
"411 433 OFFCURVE",
"409 432 OFFCURVE",
"407 432 CURVE SMOOTH",
"405 432 OFFCURVE",
"404 435 OFFCURVE",
"404 441 CURVE SMOOTH",
"404 492 OFFCURVE",
"403 528 OFFCURVE",
"400 548 CURVE SMOOTH",
"397 574 OFFCURVE",
"394 610 OFFCURVE",
"389 655 CURVE",
"376 765 LINE SMOOTH",
"375 771 OFFCURVE",
"377 777 OFFCURVE",
"379 784 CURVE SMOOTH",
"392 813 LINE SMOOTH",
"395 820 OFFCURVE",
"396 823 OFFCURVE",
"398 823 CURVE SMOOTH",
"400 823 OFFCURVE",
"401 820 OFFCURVE",
"402 814 CURVE SMOOTH",
"415 672 LINE",
"429 546 OFFCURVE",
"429 467 OFFCURVE",
"413 436 CURVE SMOOTH"
);
},
{
closed = 1;
nodes = (
"205 812 OFFCURVE",
"208 813 OFFCURVE",
"211 813 CURVE SMOOTH",
"214 813 OFFCURVE",
"216 811 OFFCURVE",
"216 806 CURVE SMOOTH",
"216 793 OFFCURVE",
"221 786 OFFCURVE",
"230 786 CURVE SMOOTH",
"239 786 OFFCURVE",
"244 791 OFFCURVE",
"245 802 CURVE SMOOTH",
"246 813 OFFCURVE",
"250 818 OFFCURVE",
"254 818 CURVE",
"257 817 OFFCURVE",
"259 812 OFFCURVE",
"259 802 CURVE SMOOTH",
"259 792 OFFCURVE",
"256 780 OFFCURVE",
"250 766 CURVE SMOOTH",
"244 752 OFFCURVE",
"237 745 OFFCURVE",
"227 745 CURVE SMOOTH",
"217 745 OFFCURVE",
"209 748 OFFCURVE",
"202 755 CURVE",
"194 741 OFFCURVE",
"184 734 OFFCURVE",
"172 734 CURVE SMOOTH",
"154 734 OFFCURVE",
"146 743 OFFCURVE",
"146 761 CURVE SMOOTH",
"146 775 OFFCURVE",
"147 787 OFFCURVE",
"150 796 CURVE SMOOTH",
"153 805 OFFCURVE",
"157 810 OFFCURVE",
"160 810 CURVE SMOOTH",
"163 810 OFFCURVE",
"165 808 OFFCURVE",
"165 803 CURVE SMOOTH",
"164 793 LINE SMOOTH",
"164 788 OFFCURVE",
"166 783 OFFCURVE",
"169 777 CURVE SMOOTH",
"172 771 OFFCURVE",
"178 770 OFFCURVE",
"185 774 CURVE SMOOTH",
"192 778 OFFCURVE",
"197 789 OFFCURVE",
"203 807 CURVE SMOOTH"
);
},
{
closed = 1;
nodes = (
"206 593 OFFCURVE",
"197 637 OFFCURVE",
"195 652 CURVE SMOOTH",
"193 667 OFFCURVE",
"194 678 OFFCURVE",
"197 682 CURVE SMOOTH",
"213 708 LINE SMOOTH",
"217 714 OFFCURVE",
"220 712 OFFCURVE",
"222 704 CURVE",
"222 704 OFFCURVE",
"226 678 OFFCURVE",
"234 625 CURVE SMOOTH",
"242 572 OFFCURVE",
"250 538 OFFCURVE",
"259 525 CURVE SMOOTH",
"275 500 OFFCURVE",
"294 492 OFFCURVE",
"318 499 CURVE",
"318 508 OFFCURVE",
"312 536 OFFCURVE",
"301 584 CURVE SMOOTH",
"290 632 OFFCURVE",
"284 659 OFFCURVE",
"283 666 CURVE SMOOTH",
"282 673 OFFCURVE",
"283 678 OFFCURVE",
"285 682 CURVE SMOOTH",
"299 706 LINE SMOOTH",
"302 711 OFFCURVE",
"305 709 OFFCURVE",
"308 700 CURVE",
"336 568 LINE",
"342 538 OFFCURVE",
"345 516 OFFCURVE",
"343 500 CURVE SMOOTH",
"338 455 OFFCURVE",
"325 433 OFFCURVE",
"304 433 CURVE SMOOTH",
"287 433 OFFCURVE",
"274 437 OFFCURVE",
"264 447 CURVE SMOOTH",
"254 457 OFFCURVE",
"243 471 OFFCURVE",
"233 490 CURVE",
"219 451 OFFCURVE",
"196 432 OFFCURVE",
"164 433 CURVE SMOOTH",
"132 434 OFFCURVE",
"113 453 OFFCURVE",
"107 490 CURVE",
"95 472 OFFCURVE",
"85 462 OFFCURVE",
"76 460 CURVE SMOOTH",
"46 453 OFFCURVE",
"22 457 OFFCURVE",
"4 469 CURVE",
"-2 474 OFFCURVE",
"-2 484 OFFCURVE",
"3 499 CURVE SMOOTH",
"8 514 OFFCURVE",
"20 530 OFFCURVE",
"38 546 CURVE SMOOTH",
"56 561 OFFCURVE",
"76 572 OFFCURVE",
"98 577 CURVE",
"97 604 LINE",
"97 604 LINE",
"97 614 OFFCURVE",
"104 630 OFFCURVE",
"118 650 CURVE SMOOTH",
"122 656 OFFCURVE",
"124 656 OFFCURVE",
"125 649 CURVE",
"125 640 OFFCURVE",
"125 617 OFFCURVE",
"126 583 CURVE SMOOTH",
"128 522 OFFCURVE",
"142 492 OFFCURVE",
"168 492 CURVE SMOOTH",
"194 492 OFFCURVE",
"213 501 OFFCURVE",
"221 520 CURVE"
);
},
{
closed = 1;
nodes = (
"93 548 OFFCURVE",
"81 545 OFFCURVE",
"68 538 CURVE SMOOTH",
"55 531 OFFCURVE",
"47 524 OFFCURVE",
"42 517 CURVE",
"49 512 OFFCURVE",
"59 510 OFFCURVE",
"73 511 CURVE SMOOTH",
"87 512 OFFCURVE",
"97 515 OFFCURVE",
"102 519 CURVE",
"101 524 OFFCURVE",
"101 534 OFFCURVE",
"100 550 CURVE"
);
},
{
closed = 1;
nodes = (
"94 365 LINE SMOOTH",
"94 373 OFFCURVE",
"96 378 OFFCURVE",
"100 382 CURVE SMOOTH",
"111 394 LINE SMOOTH",
"116 399 OFFCURVE",
"119 396 OFFCURVE",
"120 388 CURVE",
"120 385 OFFCURVE",
"121 364 OFFCURVE",
"125 324 CURVE SMOOTH",
"134 223 OFFCURVE",
"201 172 OFFCURVE",
"325 172 CURVE SMOOTH",
"434 172 OFFCURVE",
"511 192 OFFCURVE",
"556 229 CURVE",
"586 190 OFFCURVE",
"612 176 OFFCURVE",
"635 191 CURVE SMOOTH",
"658 206 OFFCURVE",
"672 225 OFFCURVE",
"678 248 CURVE",
"661 331 OFFCURVE",
"650 442 OFFCURVE",
"646 582 CURVE SMOOTH",
"646 587 OFFCURVE",
"648 592 OFFCURVE",
"651 598 CURVE SMOOTH",
"672 638 LINE SMOOTH",
"673 639 OFFCURVE",
"674 640 OFFCURVE",
"676 641 CURVE",
"677 641 OFFCURVE",
"678 639 OFFCURVE",
"678 635 CURVE SMOOTH",
"686 478 OFFCURVE",
"694 377 OFFCURVE",
"700 333 CURVE SMOOTH",
"712 241 OFFCURVE",
"750 193 OFFCURVE",
"813 187 CURVE",
"801 204 OFFCURVE",
"795 225 OFFCURVE",
"795 250 CURVE SMOOTH",
"795 275 OFFCURVE",
"805 298 OFFCURVE",
"827 319 CURVE SMOOTH",
"875 366 OFFCURVE",
"921 364 OFFCURVE",
"966 314 CURVE SMOOTH",
"970 310 OFFCURVE",
"971 305 OFFCURVE",
"968 301 CURVE",
"965 297 OFFCURVE",
"962 296 OFFCURVE",
"957 298 CURVE SMOOTH",
"921 310 OFFCURVE",
"885 310 OFFCURVE",
"850 298 CURVE SMOOTH",
"832 291 OFFCURVE",
"823 283 OFFCURVE",
"823 274 CURVE SMOOTH",
"823 265 OFFCURVE",
"829 250 OFFCURVE",
"842 229 CURVE SMOOTH",
"855 208 OFFCURVE",
"871 199 OFFCURVE",
"891 199 CURVE SMOOTH",
"923 200 OFFCURVE",
"960 212 OFFCURVE",
"1000 236 CURVE SMOOTH",
"1023 249 OFFCURVE",
"1031 250 OFFCURVE",
"1025 237 CURVE",
"1009 199 LINE",
"1007 193 OFFCURVE",
"999 186 OFFCURVE",
"983 177 CURVE SMOOTH",
"928 147 OFFCURVE",
"869 134 OFFCURVE",
"808 135 CURVE SMOOTH",
"747 136 OFFCURVE",
"707 164 OFFCURVE",
"688 218 CURVE",
"685 211 OFFCURVE",
"680 201 OFFCURVE",
"673 190 CURVE SMOOTH",
"645 147 OFFCURVE",
"619 129 OFFCURVE",
"594 135 CURVE SMOOTH",
"577 140 OFFCURVE",
"560 151 OFFCURVE",
"542 170 CURVE",
"492 138 OFFCURVE",
"419 122 OFFCURVE",
"325 122 CURVE SMOOTH",
"212 122 OFFCURVE",
"142 159 OFFCURVE",
"116 233 CURVE",
"106 213 OFFCURVE",
"94 201 OFFCURVE",
"82 196 CURVE SMOOTH",
"70 191 OFFCURVE",
"57 190 OFFCURVE",
"42 193 CURVE SMOOTH",
"15 198 OFFCURVE",
"1 208 OFFCURVE",
"0 222 CURVE",
"0 229 OFFCURVE",
"4 239 OFFCURVE",
"11 253 CURVE SMOOTH",
"18 267 OFFCURVE",
"23 276 OFFCURVE",
"27 280 CURVE SMOOTH",
"43 299 OFFCURVE",
"66 315 OFFCURVE",
"96 330 CURVE"
);
},
{
closed = 1;
nodes = (
"38 248 OFFCURVE",
"49 246 OFFCURVE",
"70 246 CURVE SMOOTH",
"91 246 OFFCURVE",
"103 249 OFFCURVE",
"109 254 CURVE",
"106 264 OFFCURVE",
"103 278 OFFCURVE",
"100 296 CURVE",
"63 286 OFFCURVE",
"42 272 OFFCURVE",
"36 255 CURVE"
);
},
{
closed = 1;
nodes = (
"499 102 OFFCURVE",
"503 101 OFFCURVE",
"512 98 CURVE SMOOTH",
"520 95 OFFCURVE",
"530 88 OFFCURVE",
"542 78 CURVE",
"543 76 OFFCURVE",
"543 75 OFFCURVE",
"543 73 CURVE",
"516 31 LINE SMOOTH",
"515 30 OFFCURVE",
"514 30 OFFCURVE",
"511 32 CURVE SMOOTH",
"509 34 OFFCURVE",
"498 41 OFFCURVE",
"479 52 CURVE",
"458 18 LINE SMOOTH",
"458 19 OFFCURVE",
"456 20 OFFCURVE",
"452 19 CURVE SMOOTH",
"443 18 OFFCURVE",
"430 27 OFFCURVE",
"413 44 CURVE SMOOTH",
"412 45 OFFCURVE",
"412 46 OFFCURVE",
"412 47 CURVE",
"439 87 LINE SMOOTH",
"440 88 OFFCURVE",
"445 88 OFFCURVE",
"452 86 CURVE SMOOTH",
"459 84 OFFCURVE",
"468 79 OFFCURVE",
"478 71 CURVE",
"498 101 LINE SMOOTH"
);
},
{
closed = 1;
nodes = (
"812 -111 OFFCURVE",
"817 -110 OFFCURVE",
"826 -111 CURVE SMOOTH",
"835 -112 OFFCURVE",
"846 -112 OFFCURVE",
"859 -112 CURVE SMOOTH",
"872 -112 OFFCURVE",
"887 -111 OFFCURVE",
"903 -107 CURVE SMOOTH",
"919 -103 OFFCURVE",
"942 -88 OFFCURVE",
"972 -62 CURVE SMOOTH",
"1002 -36 OFFCURVE",
"1019 -14 OFFCURVE",
"1025 4 CURVE",
"1023 19 OFFCURVE",
"1021 28 OFFCURVE",
"1018 30 CURVE",
"1009 15 OFFCURVE",
"999 8 OFFCURVE",
"990 8 CURVE",
"960 8 OFFCURVE",
"944 22 OFFCURVE",
"944 50 CURVE SMOOTH",
"944 62 OFFCURVE",
"947 78 OFFCURVE",
"954 96 CURVE SMOOTH",
"967 132 OFFCURVE",
"982 150 OFFCURVE",
"1000 150 CURVE SMOOTH",
"1010 150 OFFCURVE",
"1021 141 OFFCURVE",
"1032 124 CURVE SMOOTH",
"1043 107 OFFCURVE",
"1049 87 OFFCURVE",
"1049 67 CURVE SMOOTH",
"1049 5 OFFCURVE",
"1029 -47 OFFCURVE",
"990 -92 CURVE SMOOTH",
"966 -120 OFFCURVE",
"945 -135 OFFCURVE",
"928 -136 CURVE SMOOTH",
"911 -137 OFFCURVE",
"888 -136 OFFCURVE",
"858 -131 CURVE SMOOTH",
"828 -126 OFFCURVE",
"812 -121 OFFCURVE",
"812 -115 CURVE SMOOTH",
"812 -113 LINE"
);
},
{
closed = 1;
nodes = (
"993 93 OFFCURVE",
"982 94 OFFCURVE",
"970 78 CURVE",
"979 68 OFFCURVE",
"990 67 OFFCURVE",
"1004 75 CURVE SMOOTH"
);
},
{
closed = 1;
nodes = (
"885 22 OFFCURVE",
"886 35 OFFCURVE",
"879 59 CURVE",
"879 69 OFFCURVE",
"881 77 OFFCURVE",
"888 83 CURVE SMOOTH",
"895 89 OFFCURVE",
"899 91 OFFCURVE",
"902 86 CURVE SMOOTH",
"905 81 OFFCURVE",
"906 71 OFFCURVE",
"906 56 CURVE SMOOTH",
"906 41 OFFCURVE",
"905 28 OFFCURVE",
"902 16 CURVE SMOOTH",
"895 -14 OFFCURVE",
"885 -29 OFFCURVE",
"873 -30 CURVE",
"869 -30 LINE SMOOTH",
"844 -30 OFFCURVE",
"822 -21 OFFCURVE",
"803 -2 CURVE",
"787 -39 OFFCURVE",
"765 -59 OFFCURVE",
"736 -60 CURVE",
"717 -60 OFFCURVE",
"698 -49 OFFCURVE",
"678 -29 CURVE",
"628 -57 OFFCURVE",
"558 -70 OFFCURVE",
"470 -70 CURVE SMOOTH",
"319 -70 OFFCURVE",
"233 -19 OFFCURVE",
"212 84 CURVE",
"210 52 OFFCURVE",
"202 29 OFFCURVE",
"189 12 CURVE",
"206 5 OFFCURVE",
"219 -5 OFFCURVE",
"226 -19 CURVE SMOOTH",
"233 -33 OFFCURVE",
"229 -55 OFFCURVE",
"214 -86 CURVE",
"210 -93 OFFCURVE",
"203 -96 OFFCURVE",
"192 -96 CURVE SMOOTH",
"191 -96 LINE",
"168 -96 OFFCURVE",
"148 -89 OFFCURVE",
"131 -77 CURVE",
"124 -100 OFFCURVE",
"114 -115 OFFCURVE",
"101 -122 CURVE SMOOTH",
"72 -137 OFFCURVE",
"41 -143 OFFCURVE",
"8 -140 CURVE SMOOTH",
"3 -140 OFFCURVE",
"0 -138 OFFCURVE",
"0 -134 CURVE",
"0 -132 OFFCURVE",
"2 -130 OFFCURVE",
"6 -128 CURVE SMOOTH",
"80 -98 OFFCURVE",
"117 -74 OFFCURVE",
"117 -54 CURVE SMOOTH",
"117 -45 LINE SMOOTH",
"117 -19 OFFCURVE",
"124 -1 OFFCURVE",
"138 9 CURVE SMOOTH",
"146 15 OFFCURVE",
"154 18 OFFCURVE",
"161 19 CURVE",
"188 38 OFFCURVE",
"201 69 OFFCURVE",
"201 114 CURVE SMOOTH",
"201 122 LINE",
"184 304 LINE",
"184 305 LINE SMOOTH",
"184 308 OFFCURVE",
"185 311 OFFCURVE",
"187 316 CURVE SMOOTH",
"199 340 LINE SMOOTH",
"201 344 OFFCURVE",
"204 346 OFFCURVE",
"206 346 CURVE SMOOTH",
"208 346 OFFCURVE",
"212 323 OFFCURVE",
"216 277 CURVE SMOOTH",
"220 231 OFFCURVE",
"224 198 OFFCURVE",
"227 177 CURVE SMOOTH",
"234 122 OFFCURVE",
"247 79 OFFCURVE",
"267 50 CURVE",
"301 3 OFFCURVE",
"371 -20 OFFCURVE",
"477 -20 CURVE SMOOTH",
"583 -20 OFFCURVE",
"660 -2 OFFCURVE",
"708 33 CURVE SMOOTH",
"713 37 OFFCURVE",
"716 37 OFFCURVE",
"718 34 CURVE SMOOTH",
"721 30 OFFCURVE",
"717 23 OFFCURVE",
"707 13 CURVE",
"718 0 OFFCURVE",
"733 -6 OFFCURVE",
"753 -5 CURVE",
"771 -3 OFFCURVE",
"791 22 OFFCURVE",
"816 71 CURVE SMOOTH",
"817 73 OFFCURVE",
"819 75 OFFCURVE",
"823 75 CURVE",
"827 75 OFFCURVE",
"829 72 OFFCURVE",
"829 67 CURVE",
"823 43 LINE",
"836 29 OFFCURVE",
"854 22 OFFCURVE",
"874 21 CURVE"
);
},
{
closed = 1;
nodes = (
"195 -28 OFFCURVE",
"177 -16 OFFCURVE",
"152 -16 CURVE SMOOTH",
"144 -16 OFFCURVE",
"137 -19 OFFCURVE",
"132 -26 CURVE",
"156 -43 OFFCURVE",
"181 -51 OFFCURVE",
"208 -52 CURVE"
);
},
{
closed = 1;
nodes = (
"836 821 OFFCURVE",
"839 818 OFFCURVE",
"833 808 CURVE SMOOTH",
"823 791 LINE SMOOTH",
"820 786 OFFCURVE",
"784 772 OFFCURVE",
"715 749 CURVE SMOOTH",
"647 726 OFFCURVE",
"601 710 OFFCURVE",
"577 702 CURVE SMOOTH",
"566 698 OFFCURVE",
"565 702 OFFCURVE",
"573 713 CURVE SMOOTH",
"580 723 LINE SMOOTH",
"585 730 OFFCURVE",
"590 734 OFFCURVE",
"597 737 CURVE SMOOTH",
"823 816 LINE SMOOTH"
);
},
{
closed = 1;
nodes = (
"1054 765 OFFCURVE",
"1057 761 OFFCURVE",
"1051 751 CURVE SMOOTH",
"1041 735 LINE SMOOTH",
"1038 730 OFFCURVE",
"1002 716 OFFCURVE",
"933 693 CURVE SMOOTH",
"865 670 OFFCURVE",
"818 654 OFFCURVE",
"794 646 CURVE SMOOTH",
"783 642 OFFCURVE",
"782 646 OFFCURVE",
"790 657 CURVE SMOOTH",
"797 667 LINE SMOOTH",
"802 674 OFFCURVE",
"807 679 OFFCURVE",
"814 681 CURVE SMOOTH",
"1041 760 LINE SMOOTH"
);
}
);
width = 1055;
}
);
unicode = FDFA;
},
